<?xml version="1.0" encoding="utf-8"?>
<!-- Generator: Adobe Illustrator 16.0.0, SVG Export Plug-In . SVG Version: 6.00 Build 0)  -->
<!DOCTYPE svg PUBLIC "-//W3C//DTD SVG 1.1//EN" "http://www.w3.org/Graphics/SVG/1.1/DTD/svg11.dtd">
<svg version="1.1" id="Layer_1" xmlns="http://www.w3.org/2000/svg" xmlns:xlink="http://www.w3.org/1999/xlink" x="0px" y="0px"
	 width="109px" height="109px" viewBox="0 0 109 109" enable-background="new 0 0 109 109" xml:space="preserve">
<g>
	<circle fill="#9E8361" cx="54.5" cy="54.5" r="54.5"/>
	<g>
		<defs>
			<circle id="SVGID_1_" cx="54.5" cy="54.5" r="54.5"/>
		</defs>
		<clipPath id="SVGID_2_">
			<use xlink:href="#SVGID_1_"  overflow="visible"/>
		</clipPath>
		<g opacity="0.2" clip-path="url(#SVGID_2_)">
			<path d="M75.717,45.261c-1.799,0-3.514,0.35-5.097,0.963c0.476-1.691,0.749-3.468,0.749-5.311
				c0-10.805-8.76-19.565-19.565-19.565c-10.805,0-19.564,8.76-19.564,19.565c0,5.008,1.897,9.562,4.992,13.022
				c-3.738,3.563-6.079,8.579-6.079,14.151c0,10.806,8.76,19.565,19.564,19.565c9.384,0,17.217-6.609,19.117-15.425
				c1.793,0.823,3.781,1.295,5.883,1.295c7.805,0,14.131-6.326,14.131-14.13C89.848,51.587,83.521,45.261,75.717,45.261z"/>
			<path d="M77.047,46.591c-1.799,0-3.514,0.35-5.096,0.963c0.476-1.691,0.749-3.468,0.749-5.311
				c0-10.805-8.76-19.565-19.565-19.565c-10.805,0-19.565,8.76-19.565,19.565c0,5.008,1.898,9.562,4.993,13.022
				c-3.738,3.563-6.079,8.579-6.079,14.151c0,10.806,8.76,19.565,19.564,19.565c9.384,0,17.217-6.61,19.118-15.426
				c1.793,0.823,3.781,1.295,5.882,1.295c7.805,0,14.131-6.326,14.131-14.13S84.852,46.591,77.047,46.591z"/>
			<path d="M78.378,47.922c-1.8,0-3.515,0.35-5.097,0.962c0.477-1.691,0.75-3.468,0.75-5.311c0-10.805-8.76-19.565-19.566-19.565
				c-10.804,0-19.564,8.76-19.564,19.565c0,5.008,1.897,9.562,4.992,13.022c-3.738,3.564-6.079,8.579-6.079,14.151
				c0,10.806,8.759,19.565,19.564,19.565c9.385,0,17.217-6.609,19.117-15.425c1.793,0.824,3.781,1.295,5.883,1.295
				c7.805,0,14.131-6.326,14.131-14.13C92.509,54.249,86.183,47.922,78.378,47.922z"/>
			<path d="M79.708,49.252c-1.799,0-3.514,0.35-5.097,0.963c0.476-1.691,0.749-3.468,0.749-5.311
				c0-10.805-8.76-19.565-19.565-19.565c-10.805,0-19.564,8.76-19.564,19.565c0,5.008,1.897,9.562,4.992,13.022
				c-3.738,3.563-6.079,8.579-6.079,14.151c0,10.806,8.76,19.565,19.564,19.565c9.384,0,17.217-6.609,19.117-15.425
				c1.793,0.823,3.781,1.295,5.883,1.295c7.805,0,14.131-6.326,14.131-14.13C93.839,55.579,87.513,49.252,79.708,49.252z"/>
			<path d="M81.039,50.583c-1.799,0-3.514,0.35-5.097,0.962c0.476-1.691,0.749-3.467,0.749-5.311
				c0-10.806-8.759-19.565-19.565-19.565c-10.804,0-19.564,8.76-19.564,19.565c0,5.007,1.897,9.562,4.992,13.022
				c-3.739,3.563-6.08,8.579-6.08,14.151c0,10.806,8.76,19.565,19.565,19.565c9.384,0,17.216-6.609,19.117-15.425
				c1.793,0.823,3.781,1.295,5.883,1.295c7.804,0,14.13-6.326,14.13-14.13C95.169,56.909,88.843,50.583,81.039,50.583z"/>
			<path d="M82.369,51.913c-1.799,0-3.514,0.35-5.096,0.963c0.476-1.69,0.749-3.468,0.749-5.311C78.021,36.76,69.261,28,58.456,28
				s-19.565,8.76-19.565,19.565c0,5.008,1.897,9.562,4.993,13.023c-3.739,3.563-6.08,8.579-6.08,14.151
				c0,10.806,8.76,19.565,19.564,19.565c9.384,0,17.217-6.609,19.118-15.425c1.793,0.823,3.78,1.295,5.882,1.295
				c7.805,0,14.131-6.326,14.131-14.13C96.5,58.239,90.173,51.913,82.369,51.913z"/>
			<path d="M83.699,53.244c-1.799,0-3.515,0.349-5.097,0.963c0.476-1.691,0.749-3.468,0.749-5.311
				c0-10.805-8.76-19.565-19.565-19.565c-10.805,0-19.564,8.76-19.564,19.565c0,5.008,1.897,9.562,4.992,13.022
				c-3.738,3.563-6.079,8.579-6.079,14.151c0,10.806,8.76,19.565,19.564,19.565c9.384,0,17.217-6.609,19.117-15.425
				c1.793,0.823,3.781,1.295,5.883,1.295c7.805,0,14.131-6.326,14.131-14.13S91.504,53.244,83.699,53.244z"/>
			<path d="M85.03,54.574c-1.799,0-3.514,0.35-5.097,0.962c0.476-1.69,0.749-3.467,0.749-5.311c0-10.805-8.76-19.564-19.565-19.564
				c-10.805,0-19.565,8.76-19.565,19.564c0,5.008,1.898,9.562,4.992,13.023c-3.738,3.563-6.079,8.579-6.079,14.151
				c0,10.805,8.76,19.565,19.564,19.565c9.384,0,17.217-6.609,19.118-15.426c1.793,0.824,3.781,1.295,5.883,1.295
				c7.805,0,14.131-6.326,14.131-14.13S92.834,54.574,85.03,54.574z"/>
			<path d="M86.36,55.904c-1.799,0-3.514,0.35-5.096,0.963c0.476-1.691,0.749-3.468,0.749-5.311c0-10.805-8.76-19.565-19.566-19.565
				c-10.805,0-19.564,8.76-19.564,19.565c0,5.008,1.897,9.562,4.992,13.023c-3.738,3.563-6.079,8.579-6.079,14.151
				c0,10.806,8.76,19.565,19.564,19.565c9.384,0,17.217-6.609,19.117-15.425c1.793,0.823,3.781,1.295,5.883,1.295
				c7.805,0,14.131-6.326,14.131-14.13C100.491,62.23,94.165,55.904,86.36,55.904z"/>
			<path d="M87.69,57.235c-1.799,0-3.514,0.35-5.097,0.963c0.476-1.691,0.749-3.468,0.749-5.311c0-10.805-8.76-19.565-19.565-19.565
				c-10.805,0-19.564,8.76-19.564,19.565c0,5.008,1.897,9.562,4.992,13.022c-3.738,3.563-6.079,8.579-6.079,14.151
				c0,10.806,8.76,19.565,19.564,19.565c9.384,0,17.217-6.609,19.117-15.425c1.793,0.823,3.781,1.295,5.883,1.295
				c7.805,0,14.131-6.326,14.131-14.13C101.821,63.561,95.495,57.235,87.69,57.235z"/>
			<path d="M89.021,58.565c-1.8,0-3.514,0.349-5.097,0.962c0.477-1.691,0.75-3.467,0.75-5.311c0-10.805-8.76-19.564-19.566-19.564
				c-10.805,0-19.564,8.76-19.564,19.564c0,5.008,1.897,9.562,4.992,13.022c-3.738,3.563-6.079,8.579-6.079,14.152
				c0,10.805,8.76,19.565,19.565,19.565c9.384,0,17.216-6.61,19.117-15.426c1.793,0.824,3.781,1.295,5.883,1.295
				c7.805,0,14.13-6.326,14.13-14.13S96.826,58.565,89.021,58.565z"/>
			<path d="M90.351,59.896c-1.799,0-3.514,0.35-5.097,0.963c0.476-1.69,0.749-3.468,0.749-5.311
				c0-10.805-8.759-19.565-19.565-19.565c-10.804,0-19.564,8.76-19.564,19.565c0,5.008,1.897,9.562,4.992,13.022
				c-3.738,3.563-6.079,8.579-6.079,14.151c0,10.806,8.76,19.565,19.564,19.565c9.384,0,17.217-6.609,19.118-15.425
				c1.793,0.823,3.78,1.295,5.882,1.295c7.805,0,14.131-6.326,14.131-14.13C104.482,66.222,98.156,59.896,90.351,59.896z"/>
			<path d="M91.682,61.226c-1.8,0-3.514,0.35-5.097,0.963c0.476-1.69,0.749-3.468,0.749-5.311c0-10.806-8.76-19.565-19.565-19.565
				c-10.805,0-19.564,8.759-19.564,19.565c0,5.007,1.897,9.562,4.992,13.022c-3.738,3.563-6.079,8.579-6.079,14.151
				c0,10.806,8.76,19.565,19.564,19.565c9.384,0,17.217-6.609,19.117-15.425c1.793,0.823,3.78,1.295,5.883,1.295
				c7.805,0,14.131-6.326,14.131-14.131C105.812,67.552,99.486,61.226,91.682,61.226z"/>
			<path d="M93.012,62.557c-1.799,0-3.514,0.349-5.097,0.963c0.477-1.691,0.749-3.468,0.749-5.311
				c0-10.806-8.76-19.565-19.565-19.565c-10.804,0-19.564,8.76-19.564,19.565c0,5.007,1.897,9.562,4.992,13.022
				c-3.738,3.563-6.079,8.58-6.079,14.152c0,10.806,8.76,19.565,19.565,19.565c9.384,0,17.217-6.61,19.117-15.425
				c1.793,0.823,3.781,1.295,5.883,1.295c7.804,0,14.131-6.327,14.131-14.131C107.143,68.882,100.816,62.557,93.012,62.557z"/>
			<path d="M94.343,63.887c-1.8,0-3.515,0.35-5.097,0.963c0.477-1.691,0.75-3.468,0.75-5.312c0-10.805-8.76-19.564-19.565-19.564
				c-10.805,0-19.564,8.76-19.564,19.564c0,5.008,1.897,9.562,4.992,13.023c-3.738,3.563-6.079,8.579-6.079,14.151
				c0,10.806,8.759,19.565,19.564,19.565c9.384,0,17.217-6.609,19.117-15.425c1.793,0.823,3.781,1.295,5.883,1.295
				c7.805,0,14.131-6.326,14.131-14.13C108.474,70.213,102.147,63.887,94.343,63.887z"/>
			<path d="M95.673,65.217c-1.799,0-3.514,0.35-5.097,0.963c0.476-1.69,0.749-3.468,0.749-5.311c0-10.805-8.76-19.565-19.565-19.565
				c-10.805,0-19.564,8.76-19.564,19.565c0,5.008,1.897,9.562,4.992,13.022c-3.738,3.563-6.079,8.579-6.079,14.151
				c0,10.806,8.76,19.564,19.564,19.564c9.384,0,17.217-6.609,19.117-15.425c1.793,0.823,3.78,1.295,5.883,1.295
				c7.805,0,14.131-6.326,14.131-14.131C109.804,71.543,103.478,65.217,95.673,65.217z"/>
			<path d="M97.003,66.547c-1.799,0-3.514,0.35-5.097,0.963c0.477-1.691,0.75-3.468,0.75-5.312c0-10.805-8.76-19.564-19.565-19.564
				c-10.805,0-19.565,8.76-19.565,19.564c0,5.008,1.897,9.562,4.993,13.022c-3.739,3.564-6.08,8.579-6.08,14.151
				c0,10.806,8.76,19.565,19.564,19.565c9.385,0,17.217-6.609,19.117-15.426c1.793,0.823,3.781,1.295,5.883,1.295
				c7.805,0,14.131-6.326,14.131-14.13C111.134,72.874,104.808,66.547,97.003,66.547z"/>
			<path d="M98.334,67.878c-1.8,0-3.515,0.35-5.097,0.963c0.476-1.69,0.749-3.468,0.749-5.311c0-10.805-8.76-19.565-19.566-19.565
				c-10.805,0-19.564,8.76-19.564,19.565c0,5.007,1.898,9.562,4.992,13.022c-3.738,3.563-6.079,8.579-6.079,14.151
				c0,10.807,8.76,19.565,19.564,19.565c9.384,0,17.217-6.609,19.118-15.426c1.793,0.823,3.78,1.295,5.883,1.295
				c7.805,0,14.131-6.326,14.131-14.13C112.465,74.204,106.139,67.878,98.334,67.878z"/>
			<path d="M99.664,69.208c-1.799,0-3.515,0.35-5.097,0.963c0.477-1.69,0.749-3.467,0.749-5.311c0-10.806-8.76-19.565-19.565-19.565
				c-10.805,0-19.564,8.76-19.564,19.565c0,5.008,1.897,9.562,4.992,13.022C57.44,81.446,55.1,86.462,55.1,92.034
				c0,10.805,8.76,19.564,19.564,19.564c9.384,0,17.217-6.609,19.117-15.425c1.793,0.823,3.78,1.295,5.883,1.295
				c7.805,0,14.131-6.326,14.131-14.13S107.469,69.208,99.664,69.208z"/>
			<path d="M100.994,70.539c-1.799,0-3.514,0.35-5.096,0.963c0.476-1.691,0.749-3.468,0.749-5.312
				c0-10.805-8.76-19.565-19.565-19.565c-10.805,0-19.564,8.76-19.564,19.565c0,5.008,1.897,9.562,4.992,13.022
				c-3.739,3.563-6.08,8.579-6.08,14.151c0,10.806,8.76,19.565,19.565,19.565c9.384,0,17.217-6.609,19.117-15.426
				c1.793,0.823,3.781,1.295,5.882,1.295c7.805,0,14.131-6.326,14.131-14.13C115.125,76.865,108.799,70.539,100.994,70.539z"/>
			<path d="M102.325,71.869c-1.799,0-3.514,0.35-5.096,0.963c0.476-1.691,0.749-3.468,0.749-5.311
				c0-10.806-8.759-19.565-19.565-19.565c-10.805,0-19.564,8.76-19.564,19.565c0,5.007,1.897,9.562,4.992,13.022
				c-3.738,3.563-6.079,8.58-6.079,14.151c0,10.806,8.76,19.565,19.564,19.565c9.384,0,17.216-6.609,19.117-15.425
				c1.793,0.822,3.781,1.295,5.883,1.295c7.805,0,14.131-6.327,14.131-14.131S110.129,71.869,102.325,71.869z"/>
			<path d="M103.655,73.2c-1.8,0-3.515,0.349-5.097,0.963c0.476-1.691,0.749-3.468,0.749-5.311c0-10.805-8.76-19.565-19.565-19.565
				c-10.805,0-19.564,8.76-19.564,19.565c0,5.008,1.897,9.562,4.992,13.022c-3.738,3.563-6.079,8.579-6.079,14.151
				c0,10.806,8.76,19.564,19.564,19.564c9.384,0,17.217-6.609,19.117-15.425c1.793,0.823,3.78,1.295,5.883,1.295
				c7.805,0,14.131-6.326,14.131-14.131C117.786,79.525,111.46,73.2,103.655,73.2z"/>
			<path d="M104.985,74.53c-1.799,0-3.514,0.35-5.096,0.963c0.476-1.691,0.749-3.468,0.749-5.311
				c0-10.805-8.759-19.565-19.565-19.565c-10.805,0-19.564,8.76-19.564,19.565c0,5.008,1.897,9.562,4.992,13.022
				c-3.738,3.563-6.079,8.579-6.079,14.151c0,10.806,8.76,19.565,19.564,19.565c9.385,0,17.217-6.609,19.117-15.425
				c1.793,0.823,3.781,1.295,5.883,1.295c7.805,0,14.131-6.326,14.131-14.13C119.116,80.856,112.79,74.53,104.985,74.53z"/>
			<path d="M106.316,75.86c-1.799,0-3.514,0.35-5.096,0.963c0.476-1.691,0.749-3.468,0.749-5.312
				c0-10.805-8.76-19.564-19.565-19.564c-10.805,0-19.564,8.76-19.564,19.564c0,5.008,1.897,9.562,4.992,13.023
				c-3.739,3.563-6.08,8.579-6.08,14.151c0,10.806,8.76,19.565,19.565,19.565c9.384,0,17.217-6.609,19.117-15.425
				c1.793,0.824,3.78,1.295,5.882,1.295c7.805,0,14.131-6.326,14.131-14.13C120.447,82.187,114.121,75.86,106.316,75.86z"/>
			<path d="M107.646,77.19c-1.799,0-3.515,0.35-5.097,0.963c0.477-1.69,0.749-3.468,0.749-5.311c0-10.806-8.76-19.565-19.565-19.565
				c-10.805,0-19.564,8.76-19.564,19.565c0,5.008,1.897,9.562,4.992,13.022c-3.738,3.563-6.079,8.579-6.079,14.151
				c0,10.806,8.76,19.564,19.564,19.564c9.384,0,17.217-6.609,19.117-15.425c1.793,0.823,3.78,1.294,5.883,1.294
				c7.805,0,14.131-6.326,14.131-14.13C121.777,83.517,115.451,77.19,107.646,77.19z"/>
			<path d="M108.977,78.521c-1.8,0-3.514,0.35-5.097,0.962c0.476-1.691,0.749-3.468,0.749-5.311c0-10.805-8.76-19.564-19.565-19.564
				c-10.805,0-19.564,8.759-19.564,19.564c0,5.008,1.897,9.562,4.992,13.022c-3.738,3.563-6.079,8.579-6.079,14.151
				c0,10.806,8.76,19.565,19.565,19.565c9.384,0,17.217-6.609,19.117-15.425c1.793,0.823,3.78,1.295,5.883,1.295
				c7.805,0,14.13-6.326,14.13-14.13C123.107,84.848,116.782,78.521,108.977,78.521z"/>
			<path d="M110.307,79.852c-1.799,0-3.514,0.35-5.096,0.963c0.476-1.691,0.749-3.468,0.749-5.311
				c0-10.805-8.76-19.565-19.565-19.565c-10.805,0-19.565,8.76-19.565,19.565c0,5.008,1.897,9.562,4.992,13.022
				c-3.738,3.563-6.079,8.579-6.079,14.151c0,10.806,8.76,19.565,19.564,19.565c9.384,0,17.217-6.609,19.118-15.426
				c1.793,0.823,3.78,1.295,5.882,1.295c7.805,0,14.131-6.326,14.131-14.13C124.438,86.178,118.112,79.852,110.307,79.852z"/>
			<path d="M111.638,81.182c-1.8,0-3.515,0.35-5.097,0.963c0.476-1.69,0.749-3.468,0.749-5.311c0-10.806-8.76-19.565-19.565-19.565
				c-10.805,0-19.564,8.759-19.564,19.565c0,5.007,1.897,9.562,4.992,13.022c-3.738,3.563-6.079,8.579-6.079,14.151
				c0,10.806,8.76,19.565,19.564,19.565c9.384,0,17.217-6.609,19.117-15.425c1.793,0.823,3.78,1.295,5.883,1.295
				c7.805,0,14.131-6.326,14.131-14.131C125.769,87.508,119.442,81.182,111.638,81.182z"/>
			<path d="M112.968,82.512c-1.799,0-3.514,0.351-5.097,0.963c0.477-1.691,0.75-3.468,0.75-5.311
				c0-10.805-8.76-19.564-19.566-19.564c-10.804,0-19.564,8.759-19.564,19.564c0,5.008,1.898,9.562,4.992,13.022
				c-3.738,3.563-6.079,8.579-6.079,14.151c0,10.806,8.76,19.565,19.564,19.565c9.384,0,17.217-6.609,19.117-15.425
				c1.793,0.823,3.781,1.295,5.883,1.295c7.806,0,14.132-6.326,14.132-14.13C127.1,88.839,120.773,82.512,112.968,82.512z"/>
			<path d="M114.298,83.843c-1.799,0-3.514,0.35-5.096,0.963c0.476-1.691,0.749-3.468,0.749-5.312
				c0-10.805-8.76-19.564-19.565-19.564c-10.804,0-19.564,8.76-19.564,19.564c0,5.008,1.897,9.562,4.992,13.022
				c-3.738,3.563-6.079,8.579-6.079,14.151c0,10.806,8.76,19.565,19.564,19.565c9.384,0,17.216-6.609,19.117-15.426
				c1.793,0.824,3.78,1.295,5.882,1.295c7.805,0,14.131-6.326,14.131-14.13S122.104,83.843,114.298,83.843z"/>
			<path d="M115.629,85.173c-1.799,0-3.514,0.35-5.097,0.963c0.477-1.69,0.749-3.467,0.749-5.311
				c0-10.806-8.76-19.565-19.565-19.565c-10.805,0-19.564,8.76-19.564,19.565c0,5.008,1.897,9.562,4.992,13.022
				c-3.738,3.563-6.079,8.579-6.079,14.151c0,10.806,8.76,19.565,19.564,19.565c9.384,0,17.217-6.609,19.117-15.425
				c1.793,0.823,3.78,1.295,5.883,1.295c7.805,0,14.131-6.326,14.131-14.13C129.76,91.499,123.434,85.173,115.629,85.173z"/>
			<path d="M116.959,86.504c-1.799,0-3.514,0.35-5.097,0.962c0.477-1.691,0.749-3.468,0.749-5.311
				c0-10.805-8.76-19.565-19.565-19.565s-19.564,8.76-19.564,19.565c0,5.008,1.897,9.562,4.992,13.022
				c-3.738,3.563-6.079,8.579-6.079,14.151c0,10.806,8.759,19.565,19.564,19.565c9.384,0,17.216-6.609,19.117-15.425
				c1.793,0.823,3.781,1.295,5.882,1.295c7.805,0,14.131-6.326,14.131-14.13C131.09,92.83,124.764,86.504,116.959,86.504z"/>
			<path d="M118.29,87.834c-1.8,0-3.515,0.35-5.097,0.963c0.477-1.691,0.75-3.468,0.75-5.312c0-10.805-8.76-19.564-19.565-19.564
				c-10.805,0-19.564,8.76-19.564,19.564c0,5.008,1.897,9.562,4.992,13.023c-3.738,3.563-6.079,8.579-6.079,14.151
				c0,10.806,8.76,19.565,19.565,19.565c9.384,0,17.217-6.609,19.117-15.425c1.793,0.823,3.78,1.295,5.883,1.295
				c7.805,0,14.131-6.326,14.131-14.13C132.421,94.16,126.095,87.834,118.29,87.834z"/>
			<path d="M119.62,89.164c-1.8,0-3.515,0.35-5.097,0.963c0.476-1.69,0.749-3.468,0.749-5.311c0-10.805-8.76-19.565-19.565-19.565
				c-10.805,0-19.564,8.76-19.564,19.565c0,5.008,1.897,9.562,4.992,13.022c-3.738,3.564-6.079,8.58-6.079,14.151
				c0,10.806,8.76,19.565,19.564,19.565c9.384,0,17.217-6.609,19.117-15.425c1.793,0.823,3.78,1.295,5.883,1.295
				c7.805,0,14.131-6.326,14.131-14.131C133.751,95.491,127.425,89.164,119.62,89.164z"/>
			<path d="M120.95,90.495c-1.799,0-3.514,0.349-5.096,0.962c0.476-1.69,0.749-3.467,0.749-5.311
				c0-10.806-8.76-19.565-19.565-19.565c-10.805,0-19.564,8.76-19.564,19.565c0,5.008,1.898,9.562,4.992,13.022
				c-3.738,3.563-6.079,8.579-6.079,14.151c0,10.806,8.76,19.565,19.564,19.565c9.384,0,17.217-6.609,19.117-15.425
				c1.793,0.823,3.781,1.295,5.883,1.295c7.805,0,14.132-6.326,14.132-14.13C135.082,96.821,128.755,90.495,120.95,90.495z"/>
			<path d="M122.281,91.825c-1.8,0-3.515,0.35-5.097,0.963c0.477-1.691,0.749-3.468,0.749-5.311c0-10.805-8.76-19.565-19.565-19.565
				c-10.805,0-19.564,8.76-19.564,19.565c0,5.007,1.897,9.562,4.993,13.022c-3.738,3.563-6.079,8.579-6.079,14.151
				c0,10.806,8.76,19.565,19.564,19.565c9.384,0,17.217-6.609,19.117-15.425c1.793,0.823,3.781,1.295,5.883,1.295
				c7.805,0,14.131-6.327,14.131-14.131C136.412,98.151,130.086,91.825,122.281,91.825z"/>
			<path d="M123.611,93.155c-1.8,0-3.515,0.35-5.097,0.963c0.477-1.69,0.749-3.468,0.749-5.311c0-10.806-8.76-19.565-19.565-19.565
				c-10.805,0-19.564,8.759-19.564,19.565c0,5.008,1.897,9.562,4.992,13.022c-3.738,3.564-6.079,8.58-6.079,14.151
				c0,10.806,8.76,19.565,19.564,19.565c9.384,0,17.217-6.609,19.117-15.425c1.793,0.823,3.78,1.295,5.883,1.295
				c7.805,0,14.131-6.327,14.131-14.131C137.742,99.481,131.416,93.155,123.611,93.155z"/>
			<path d="M124.941,94.486c-1.8,0-3.515,0.349-5.096,0.962c0.476-1.69,0.749-3.467,0.749-5.311c0-10.805-8.76-19.564-19.565-19.564
				c-10.804,0-19.564,8.759-19.564,19.564c0,5.008,1.898,9.562,4.993,13.022c-3.739,3.563-6.08,8.579-6.08,14.151
				c0,10.806,8.76,19.565,19.564,19.565c9.384,0,17.217-6.609,19.118-15.425c1.792,0.823,3.781,1.295,5.882,1.295
				c7.805,0,14.131-6.326,14.131-14.13S132.746,94.486,124.941,94.486z"/>
			<path d="M126.272,95.816c-1.8,0-3.515,0.35-5.097,0.962c0.477-1.691,0.749-3.467,0.749-5.311c0-10.805-8.76-19.564-19.566-19.564
				c-10.804,0-19.564,8.76-19.564,19.564c0,5.008,1.897,9.562,4.992,13.023c-3.739,3.563-6.08,8.579-6.08,14.151
				c0,10.806,8.76,19.565,19.565,19.565c9.384,0,17.217-6.609,19.117-15.426c1.793,0.823,3.78,1.295,5.883,1.295
				c7.805,0,14.131-6.326,14.131-14.13C140.403,102.143,134.077,95.816,126.272,95.816z"/>
			<path d="M127.603,97.147c-1.8,0-3.515,0.349-5.097,0.963c0.477-1.691,0.749-3.468,0.749-5.311
				c0-10.806-8.76-19.565-19.565-19.565c-10.805,0-19.564,8.76-19.564,19.565c0,5.008,1.897,9.562,4.992,13.022
				c-3.738,3.563-6.079,8.579-6.079,14.151c0,10.806,8.76,19.565,19.564,19.565c9.384,0,17.217-6.609,19.117-15.425
				c1.793,0.824,3.78,1.295,5.883,1.295c7.805,0,14.131-6.326,14.131-14.13C141.733,103.473,135.407,97.147,127.603,97.147z"/>
			<path d="M128.934,98.477c-1.8,0-3.516,0.349-5.098,0.963c0.477-1.691,0.749-3.468,0.749-5.311
				c0-10.806-8.759-19.565-19.565-19.565c-10.805,0-19.564,8.759-19.564,19.565c0,5.008,1.897,9.562,4.992,13.022
				c-3.738,3.563-6.079,8.579-6.079,14.151c0,10.806,8.76,19.565,19.564,19.565c9.384,0,17.217-6.61,19.117-15.425
				c1.793,0.823,3.78,1.295,5.884,1.295c7.804,0,14.131-6.326,14.131-14.131C143.064,104.803,136.737,98.477,128.934,98.477z"/>
			<path d="M130.264,99.807c-1.8,0-3.516,0.35-5.097,0.963c0.476-1.691,0.749-3.468,0.749-5.312c0-10.805-8.76-19.564-19.565-19.564
				c-10.805,0-19.565,8.759-19.565,19.564c0,5.008,1.897,9.562,4.993,13.022c-3.738,3.563-6.079,8.58-6.079,14.151
				c0,10.806,8.759,19.565,19.564,19.565c9.384,0,17.217-6.609,19.118-15.425c1.793,0.823,3.78,1.295,5.883,1.295
				c7.805,0,14.131-6.327,14.131-14.13S138.068,99.807,130.264,99.807z"/>
			<path d="M131.594,101.138c-1.8,0-3.515,0.35-5.097,0.963c0.477-1.69,0.749-3.468,0.749-5.311c0-10.805-8.76-19.565-19.565-19.565
				c-10.805,0-19.564,8.76-19.564,19.565c0,5.008,1.897,9.562,4.992,13.023c-3.738,3.563-6.079,8.579-6.079,14.151
				c0,10.806,8.76,19.565,19.564,19.565c9.384,0,17.217-6.609,19.117-15.425c1.793,0.824,3.78,1.295,5.883,1.295
				c7.805,0,14.131-6.326,14.131-14.13C145.725,107.464,139.398,101.138,131.594,101.138z"/>
			<path d="M132.924,102.468c-1.8,0-3.515,0.35-5.097,0.963c0.477-1.691,0.749-3.468,0.749-5.311
				c0-10.805-8.759-19.565-19.565-19.565c-10.805,0-19.564,8.76-19.564,19.565c0,5.008,1.898,9.562,4.992,13.022
				c-3.738,3.563-6.079,8.579-6.079,14.151c0,10.806,8.76,19.565,19.564,19.565c9.384,0,17.217-6.609,19.117-15.425
				c1.793,0.823,3.78,1.295,5.883,1.295c7.805,0,14.131-6.326,14.131-14.13C147.055,108.794,140.729,102.468,132.924,102.468z"/>
			<path d="M134.254,103.798c-1.799,0-3.514,0.35-5.096,0.963c0.477-1.691,0.748-3.468,0.748-5.311
				c0-10.805-8.759-19.565-19.565-19.565c-10.805,0-19.564,8.76-19.564,19.565c0,5.007,1.897,9.562,4.992,13.022
				c-3.738,3.563-6.079,8.579-6.079,14.151c0,10.806,8.76,19.565,19.565,19.565c9.384,0,17.217-6.609,19.117-15.425
				c1.793,0.823,3.78,1.295,5.882,1.295c7.805,0,14.132-6.326,14.132-14.13S142.059,103.798,134.254,103.798z"/>
			<path d="M135.585,105.129c-1.8,0-3.515,0.35-5.097,0.963c0.477-1.691,0.749-3.468,0.749-5.311
				c0-10.805-8.76-19.565-19.565-19.565c-10.805,0-19.564,8.76-19.564,19.565c0,5.008,1.897,9.562,4.992,13.022
				c-3.738,3.563-6.079,8.579-6.079,14.151c0,10.806,8.76,19.565,19.564,19.565c9.384,0,17.217-6.609,19.117-15.425
				c1.793,0.823,3.78,1.295,5.883,1.295c7.805,0,14.131-6.326,14.131-14.13C149.716,111.456,143.39,105.129,135.585,105.129z"/>
			<path d="M136.915,106.459c-1.8,0-3.515,0.35-5.097,0.963c0.477-1.691,0.749-3.468,0.749-5.311
				c0-10.805-8.76-19.565-19.565-19.565c-10.804,0-19.564,8.76-19.564,19.565c0,5.008,1.897,9.562,4.992,13.022
				c-3.738,3.564-6.079,8.58-6.079,14.152c0,10.805,8.76,19.565,19.564,19.565c9.384,0,17.216-6.609,19.117-15.425
				c1.793,0.823,3.78,1.295,5.883,1.295c7.805,0,14.131-6.326,14.131-14.13C151.046,112.786,144.72,106.459,136.915,106.459z"/>
			<path d="M138.245,107.79c-1.799,0-3.514,0.349-5.096,0.963c0.477-1.691,0.749-3.468,0.749-5.312
				c0-10.805-8.76-19.564-19.565-19.564c-10.805,0-19.565,8.76-19.565,19.564c0,5.008,1.897,9.562,4.992,13.022
				c-3.738,3.564-6.079,8.579-6.079,14.151c0,10.806,8.76,19.565,19.564,19.565c9.384,0,17.217-6.609,19.118-15.425
				c1.793,0.823,3.78,1.295,5.882,1.295c7.806,0,14.132-6.326,14.132-14.13C152.377,114.116,146.051,107.79,138.245,107.79z"/>
			<path d="M139.576,109.12c-1.8,0-3.515,0.35-5.097,0.963c0.477-1.69,0.749-3.468,0.749-5.311c0-10.805-8.76-19.565-19.565-19.565
				c-10.805,0-19.564,8.76-19.564,19.565c0,5.008,1.897,9.562,4.992,13.022c-3.738,3.564-6.079,8.579-6.079,14.151
				c0,10.806,8.76,19.565,19.564,19.565c9.384,0,17.217-6.609,19.117-15.425c1.793,0.823,3.78,1.295,5.883,1.295
				c7.805,0,14.131-6.326,14.131-14.13C153.707,115.446,147.381,109.12,139.576,109.12z"/>
			<path d="M140.906,110.45c-1.8,0-3.515,0.35-5.096,0.963c0.476-1.691,0.748-3.468,0.748-5.312c0-10.805-8.76-19.564-19.565-19.564
				c-10.805,0-19.564,8.759-19.564,19.564c0,5.008,1.897,9.562,4.992,13.023c-3.739,3.563-6.08,8.579-6.08,14.151
				c0,10.806,8.76,19.565,19.565,19.565c9.383,0,17.216-6.609,19.117-15.425c1.793,0.823,3.78,1.295,5.883,1.295
				c7.805,0,14.131-6.326,14.131-14.131C155.037,116.777,148.711,110.45,140.906,110.45z"/>
			<path d="M142.237,111.781c-1.8,0-3.515,0.35-5.097,0.962c0.477-1.691,0.749-3.468,0.749-5.311
				c0-10.805-8.76-19.565-19.566-19.565c-10.804,0-19.564,8.76-19.564,19.565c0,5.008,1.897,9.562,4.992,13.022
				c-3.738,3.563-6.079,8.58-6.079,14.151c0,10.806,8.76,19.565,19.565,19.565c9.384,0,17.217-6.609,19.117-15.425
				c1.793,0.823,3.78,1.295,5.883,1.295c7.805,0,14.131-6.326,14.131-14.131C156.368,118.107,150.042,111.781,142.237,111.781z"/>
			<path d="M143.567,113.111c-1.8,0-3.515,0.35-5.097,0.963c0.477-1.691,0.749-3.468,0.749-5.311
				c0-10.805-8.76-19.565-19.565-19.565c-10.805,0-19.564,8.76-19.564,19.565c0,5.008,1.897,9.562,4.992,13.022
				c-3.738,3.563-6.079,8.579-6.079,14.151c0,10.806,8.76,19.565,19.564,19.565c9.384,0,17.217-6.609,19.117-15.425
				c1.793,0.823,3.78,1.295,5.883,1.295c7.805,0,14.131-6.326,14.131-14.13C157.698,119.438,151.372,113.111,143.567,113.111z"/>
		</g>
	</g>
	<g>
		<circle fill="#FFFFFF" cx="51.804" cy="40.913" r="19.565"/>
		<circle fill="#FFFFFF" cx="75.717" cy="59.391" r="14.13"/>
		<circle fill="#FFFFFF" cx="50.717" cy="68.087" r="19.565"/>
		<circle fill="#F4C83C" cx="53.323" cy="42.348" r="13.898"/>
		<circle fill="#F4C83C" cx="73.223" cy="59.693" r="10.038"/>
		<circle fill="#F4C83C" cx="51.051" cy="68.652" r="13.898"/>
		<circle fill="#CC854F" cx="59.63" cy="57.61" r="10.038"/>
	</g>
</g>
</svg>
