<?xml version="1.0" encoding="utf-8"?>
<!-- Generator: Adobe Illustrator 16.0.0, SVG Export Plug-In . SVG Version: 6.00 Build 0)  -->
<!DOCTYPE svg PUBLIC "-//W3C//DTD SVG 1.1//EN" "http://www.w3.org/Graphics/SVG/1.1/DTD/svg11.dtd">
<svg version="1.1" id="Layer_1" xmlns="http://www.w3.org/2000/svg" xmlns:xlink="http://www.w3.org/1999/xlink" x="0px" y="0px"
	 width="109px" height="109px" viewBox="0 0 109 109" enable-background="new 0 0 109 109" xml:space="preserve">
<circle fill="#9E8361" cx="54.5" cy="54.5" r="54.5"/>
<g>
	<defs>
		<circle id="SVGID_1_" cx="54.5" cy="54.5" r="54.5"/>
	</defs>
	<clipPath id="SVGID_2_">
		<use xlink:href="#SVGID_1_"  overflow="visible"/>
	</clipPath>
	<g opacity="0.2" clip-path="url(#SVGID_2_)">
		<g>
			<path d="M116.912,136.241c0,3.072-2.491,5.561-5.562,5.561c-3.071,0-5.562-2.489-5.562-5.561v-10.209
				c0-3.072,2.491-5.563,5.562-5.563c3.07,0,5.562,2.491,5.562,5.563V136.241z M134.184,109.944h-3.346V98.795
				c0-5.559-2.111-10.659-5.592-14.382c-3.468-3.717-8.417-6.115-13.871-6.102c-5.457-0.013-10.407,2.385-13.873,6.102
				c-3.483,3.723-5.595,8.823-5.595,14.382v11.149h-3.35c-1.376,0-2.503,1.121-2.503,2.504v29.476c0,1.394,1.127,2.514,2.503,2.514
				h45.626c1.39,0,2.512-1.12,2.512-2.514v-29.476C136.695,111.065,135.573,109.944,134.184,109.944z M121.594,109.944h-20.445
				V98.795c0-3.205,1.222-6.051,3.106-8.064c1.898-2.017,4.376-3.18,7.12-3.18c2.74,0,5.218,1.163,7.111,3.18
				c1.894,2.014,3.108,4.859,3.108,8.064V109.944z"/>
			<path d="M111.375,123.432c-1.77,0-3.204,1.436-3.204,3.205v8.544c0,1.77,1.434,3.203,3.204,3.203s3.203-1.434,3.203-3.203v-8.544
				C114.578,124.868,113.145,123.432,111.375,123.432z"/>
		</g>
		<g>
			<path d="M115.797,135.126c0,3.072-2.491,5.562-5.562,5.562c-3.071,0-5.562-2.489-5.562-5.562v-10.209
				c0-3.072,2.491-5.563,5.562-5.563c3.07,0,5.562,2.491,5.562,5.563V135.126z M133.068,108.829h-3.346V97.68
				c0-5.559-2.111-10.659-5.592-14.382c-3.468-3.717-8.417-6.102-13.871-6.102c-5.457,0-10.407,2.385-13.873,6.102
				c-3.483,3.723-5.595,8.823-5.595,14.382v11.149h-3.35c-1.376,0-2.503,1.121-2.503,2.504v29.476c0,1.394,1.127,2.514,2.503,2.514
				h45.626c1.39,0,2.512-1.12,2.512-2.514v-29.476C135.58,109.95,134.458,108.829,133.068,108.829z M120.479,108.829h-20.445V97.68
				c0-3.205,1.222-6.051,3.106-8.064c1.898-2.017,4.376-3.18,7.12-3.18c2.74,0,5.218,1.163,7.111,3.18
				c1.894,2.014,3.108,4.859,3.108,8.064V108.829z"/>
			<path d="M110.26,122.316c-1.77,0-3.204,1.436-3.204,3.205v8.544c0,1.77,1.434,3.203,3.204,3.203s3.203-1.434,3.203-3.203v-8.544
				C113.463,123.752,112.03,122.316,110.26,122.316z"/>
		</g>
		<g>
			<path d="M114.682,134.011c0,3.072-2.491,5.561-5.562,5.561c-3.071,0-5.562-2.489-5.562-5.561v-10.208
				c0-3.073,2.491-5.564,5.562-5.564c3.07,0,5.562,2.491,5.562,5.564V134.011z M131.953,107.714h-3.346V96.564
				c0-5.559-2.111-10.659-5.592-14.382c-3.468-3.717-8.417-6.102-13.871-6.102c-5.457,0-10.406,2.385-13.873,6.102
				c-3.482,3.723-5.595,8.823-5.595,14.382v11.149h-3.35c-1.376,0-2.503,1.122-2.503,2.504v29.476c0,1.394,1.127,2.514,2.503,2.514
				h45.626c1.39,0,2.512-1.12,2.512-2.514v-29.476C134.465,108.835,133.343,107.714,131.953,107.714z M119.363,107.714H98.918
				V96.564c0-3.205,1.222-6.051,3.107-8.064c1.897-2.017,4.375-3.18,7.12-3.18c2.74,0,5.218,1.163,7.111,3.18
				c1.894,2.014,3.107,4.86,3.107,8.064V107.714z"/>
			<path d="M109.145,121.201c-1.77,0-3.204,1.436-3.204,3.205v8.544c0,1.77,1.434,3.204,3.204,3.204
				c1.771,0,3.203-1.434,3.203-3.204v-8.544C112.348,122.637,110.915,121.201,109.145,121.201z"/>
		</g>
		<g>
			<path d="M113.566,132.896c0,3.072-2.491,5.562-5.562,5.562c-3.071,0-5.562-2.489-5.562-5.562v-10.209
				c0-3.072,2.491-5.563,5.562-5.563c3.07,0,5.562,2.491,5.562,5.563V132.896z M130.838,106.599h-3.346V95.45
				c0-5.56-2.111-10.66-5.592-14.382c-3.468-3.717-8.417-6.102-13.871-6.102c-5.457,0-10.407,2.385-13.873,6.102
				c-3.483,3.723-5.595,8.823-5.595,14.382v11.149h-3.35c-1.376,0-2.503,1.121-2.503,2.504v29.476c0,1.394,1.127,2.514,2.503,2.514
				h45.626c1.39,0,2.512-1.12,2.512-2.514v-29.476C133.35,107.72,132.228,106.599,130.838,106.599z M118.248,106.599H97.803V95.45
				c0-3.206,1.222-6.051,3.106-8.065c1.898-2.017,4.376-3.18,7.12-3.18c2.74,0,5.218,1.163,7.111,3.18
				c1.894,2.014,3.108,4.859,3.108,8.065V106.599z"/>
			<path d="M108.029,120.086c-1.77,0-3.204,1.436-3.204,3.205v8.543c0,1.77,1.434,3.203,3.204,3.203s3.203-1.434,3.203-3.203v-8.543
				C111.232,121.522,109.799,120.086,108.029,120.086z"/>
		</g>
		<g>
			<path d="M112.451,131.78c0,3.072-2.491,5.561-5.562,5.561c-3.071,0-5.562-2.489-5.562-5.561v-10.209
				c0-3.072,2.491-5.563,5.562-5.563c3.07,0,5.562,2.492,5.562,5.563V131.78z M129.723,105.483h-3.346V94.334
				c0-5.559-2.111-10.659-5.592-14.382c-3.468-3.717-8.417-6.102-13.871-6.102c-5.457,0-10.407,2.385-13.872,6.102
				c-3.483,3.723-5.595,8.823-5.595,14.382v11.149h-3.35c-1.376,0-2.503,1.121-2.503,2.504v29.476c0,1.394,1.127,2.515,2.503,2.515
				h45.625c1.39,0,2.512-1.121,2.512-2.515v-29.476C132.234,106.604,131.112,105.483,129.723,105.483z M117.133,105.483H96.688
				V94.334c0-3.205,1.222-6.051,3.106-8.064c1.898-2.017,4.376-3.18,7.12-3.18c2.74,0,5.218,1.163,7.111,3.18
				c1.894,2.013,3.108,4.859,3.108,8.064V105.483z"/>
			<path d="M106.914,118.971c-1.77,0-3.204,1.436-3.204,3.205v8.544c0,1.769,1.435,3.203,3.204,3.203
				c1.77,0,3.203-1.434,3.203-3.203v-8.544C110.117,120.407,108.684,118.971,106.914,118.971z"/>
		</g>
		<g>
			<path d="M111.336,130.665c0,3.072-2.491,5.561-5.561,5.561c-3.072,0-5.562-2.489-5.562-5.561v-10.209
				c0-3.072,2.491-5.563,5.562-5.563c3.07,0,5.561,2.492,5.561,5.563V130.665z M128.607,104.368h-3.346V93.219
				c0-5.559-2.111-10.66-5.591-14.382c-3.468-3.716-8.417-6.102-13.871-6.102c-5.458,0-10.407,2.385-13.873,6.102
				c-3.483,3.723-5.595,8.823-5.595,14.382v11.149h-3.35c-1.376,0-2.503,1.121-2.503,2.504v29.476c0,1.394,1.127,2.514,2.503,2.514
				h45.626c1.39,0,2.512-1.12,2.512-2.514v-29.476C131.119,105.489,129.997,104.368,128.607,104.368z M116.018,104.368H95.572
				V93.219c0-3.206,1.222-6.051,3.106-8.065c1.898-2.017,4.376-3.18,7.121-3.18c2.74,0,5.217,1.163,7.11,3.18
				c1.895,2.014,3.108,4.859,3.108,8.065V104.368z"/>
			<path d="M105.799,117.855c-1.771,0-3.205,1.437-3.205,3.205v8.544c0,1.77,1.434,3.203,3.205,3.203
				c1.77,0,3.203-1.433,3.203-3.203v-8.544C109.002,119.292,107.569,117.855,105.799,117.855z"/>
		</g>
		<g>
			<path d="M110.221,129.55c0,3.072-2.491,5.561-5.562,5.561c-3.071,0-5.562-2.489-5.562-5.561v-10.209
				c0-3.072,2.491-5.564,5.562-5.564c3.07,0,5.562,2.492,5.562,5.564V129.55z M127.492,103.253h-3.346v-11.15
				c0-5.559-2.111-10.659-5.591-14.382c-3.468-3.717-8.418-6.102-13.872-6.102c-5.457,0-10.406,2.385-13.872,6.102
				c-3.483,3.723-5.595,8.823-5.595,14.382v11.15h-3.35c-1.377,0-2.503,1.121-2.503,2.504v29.476c0,1.394,1.126,2.514,2.503,2.514
				h45.625c1.39,0,2.512-1.12,2.512-2.514v-29.476C130.004,104.375,128.882,103.253,127.492,103.253z M114.902,103.253H94.457
				v-11.15c0-3.205,1.222-6.051,3.107-8.064c1.897-2.017,4.375-3.18,7.12-3.18c2.741,0,5.218,1.163,7.111,3.18
				c1.894,2.014,3.107,4.859,3.107,8.064V103.253z"/>
			<path d="M104.684,116.74c-1.77,0-3.204,1.436-3.204,3.205v8.544c0,1.77,1.435,3.204,3.204,3.204c1.771,0,3.203-1.434,3.203-3.204
				v-8.544C107.887,118.176,106.454,116.74,104.684,116.74z"/>
		</g>
		<g>
			<path d="M109.105,128.435c0,3.072-2.491,5.561-5.562,5.561c-3.071,0-5.562-2.489-5.562-5.561v-10.209
				c0-3.072,2.491-5.563,5.562-5.563c3.07,0,5.562,2.491,5.562,5.563V128.435z M126.377,102.138h-3.346V90.989
				c0-5.56-2.111-10.66-5.592-14.382c-3.468-3.717-8.417-6.102-13.871-6.102c-5.457,0-10.406,2.385-13.872,6.102
				c-3.483,3.723-5.595,8.823-5.595,14.382v11.149h-3.351c-1.376,0-2.503,1.121-2.503,2.504v29.476c0,1.394,1.126,2.514,2.503,2.514
				h45.626c1.39,0,2.512-1.12,2.512-2.514v-29.476C128.889,103.259,127.767,102.138,126.377,102.138z M113.787,102.138H93.342
				V90.989c0-3.205,1.222-6.051,3.106-8.064c1.898-2.017,4.376-3.18,7.12-3.18c2.74,0,5.218,1.163,7.111,3.18
				c1.894,2.014,3.107,4.859,3.107,8.064V102.138z"/>
			<path d="M103.568,115.625c-1.77,0-3.204,1.437-3.204,3.205v8.544c0,1.769,1.435,3.203,3.204,3.203
				c1.771,0,3.203-1.434,3.203-3.203v-8.544C106.771,117.062,105.339,115.625,103.568,115.625z"/>
		</g>
		<g>
			<path d="M107.99,127.319c0,3.072-2.491,5.562-5.561,5.562c-3.072,0-5.562-2.489-5.562-5.562V117.11
				c0-3.072,2.491-5.563,5.562-5.563c3.07,0,5.561,2.491,5.561,5.563V127.319z M125.262,101.022h-3.346V89.873
				c0-5.559-2.111-10.659-5.591-14.381c-3.468-3.717-8.417-6.102-13.871-6.102c-5.457,0-10.407,2.385-13.873,6.102
				c-3.483,3.723-5.594,8.823-5.594,14.381v11.149h-3.351c-1.376,0-2.503,1.121-2.503,2.504v29.477c0,1.394,1.127,2.514,2.503,2.514
				h45.626c1.39,0,2.513-1.12,2.513-2.514v-29.477C127.774,102.144,126.651,101.022,125.262,101.022z M112.672,101.022H92.227
				V89.873c0-3.205,1.222-6.051,3.106-8.064c1.898-2.017,4.376-3.179,7.121-3.179c2.74,0,5.218,1.163,7.11,3.179
				c1.895,2.014,3.108,4.86,3.108,8.064V101.022z"/>
			<path d="M102.454,114.51c-1.771,0-3.205,1.436-3.205,3.205v8.543c0,1.77,1.434,3.203,3.205,3.203c1.77,0,3.203-1.433,3.203-3.203
				v-8.543C105.657,115.946,104.224,114.51,102.454,114.51z"/>
		</g>
		<g>
			<path d="M106.875,126.204c0,3.073-2.492,5.561-5.562,5.561c-3.071,0-5.562-2.488-5.562-5.561v-10.208
				c0-3.073,2.491-5.563,5.562-5.563c3.07,0,5.562,2.491,5.562,5.563V126.204z M124.146,99.907h-3.346V88.758
				c0-5.559-2.111-10.66-5.591-14.382c-3.468-3.717-8.417-6.102-13.872-6.102c-5.457,0-10.406,2.385-13.872,6.102
				c-3.483,3.722-5.595,8.823-5.595,14.382v11.149h-3.35c-1.376,0-2.504,1.121-2.504,2.504v29.476c0,1.395,1.127,2.515,2.504,2.515
				h45.625c1.391,0,2.512-1.12,2.512-2.515v-29.476C126.658,101.028,125.537,99.907,124.146,99.907z M111.557,99.907H91.111V88.758
				c0-3.206,1.222-6.051,3.106-8.065c1.898-2.017,4.376-3.179,7.12-3.179c2.741,0,5.218,1.162,7.111,3.179
				c1.894,2.014,3.107,4.859,3.107,8.065V99.907z"/>
			<path d="M101.338,113.395c-1.77,0-3.204,1.436-3.204,3.205v8.544c0,1.77,1.435,3.203,3.204,3.203c1.77,0,3.204-1.434,3.204-3.203
				V116.6C104.542,114.831,103.108,113.395,101.338,113.395z"/>
		</g>
		<g>
			<path d="M105.76,125.089c0,3.072-2.492,5.561-5.562,5.561c-3.071,0-5.562-2.489-5.562-5.561V114.88
				c0-3.073,2.491-5.563,5.562-5.563c3.07,0,5.562,2.491,5.562,5.563V125.089z M123.031,98.792h-3.345v-11.15
				c0-5.559-2.111-10.659-5.592-14.381c-3.468-3.717-8.417-6.102-13.871-6.102c-5.457,0-10.407,2.385-13.873,6.102
				c-3.483,3.723-5.595,8.823-5.595,14.381v11.15h-3.351c-1.376,0-2.503,1.121-2.503,2.504v29.476c0,1.394,1.127,2.514,2.503,2.514
				h45.626c1.39,0,2.513-1.12,2.513-2.514v-29.476C125.544,99.914,124.421,98.792,123.031,98.792z M110.441,98.792H89.996v-11.15
				c0-3.205,1.222-6.05,3.107-8.064c1.898-2.017,4.375-3.18,7.12-3.18c2.74,0,5.217,1.163,7.111,3.18
				c1.894,2.014,3.107,4.859,3.107,8.064V98.792z"/>
			<path d="M100.223,112.28c-1.77,0-3.205,1.436-3.205,3.205v8.544c0,1.769,1.435,3.203,3.205,3.203s3.203-1.434,3.203-3.203v-8.544
				C103.426,113.716,101.993,112.28,100.223,112.28z"/>
		</g>
		<g>
			<path d="M104.645,123.974c0,3.072-2.492,5.561-5.562,5.561c-3.072,0-5.562-2.489-5.562-5.561v-10.209
				c0-3.072,2.49-5.563,5.562-5.563c3.07,0,5.562,2.491,5.562,5.563V123.974z M121.917,97.677h-3.346V86.528
				c0-5.559-2.111-10.66-5.591-14.382c-3.469-3.717-8.418-6.102-13.872-6.102c-5.458,0-10.407,2.385-13.873,6.102
				c-3.483,3.722-5.595,8.823-5.595,14.382v11.149h-3.35c-1.376,0-2.503,1.121-2.503,2.504v29.476c0,1.394,1.127,2.514,2.503,2.514
				h45.626c1.39,0,2.511-1.12,2.511-2.514v-29.476C124.428,98.798,123.307,97.677,121.917,97.677z M109.327,97.677H88.881V86.528
				c0-3.205,1.222-6.051,3.106-8.064c1.898-2.017,4.376-3.18,7.12-3.18c2.74,0,5.218,1.163,7.111,3.18
				c1.894,2.014,3.108,4.859,3.108,8.064V97.677z"/>
			<path d="M99.108,111.165c-1.77,0-3.204,1.436-3.204,3.205v8.544c0,1.77,1.434,3.203,3.204,3.203s3.203-1.433,3.203-3.203v-8.544
				C102.311,112.601,100.878,111.165,99.108,111.165z"/>
		</g>
		<g>
			<path d="M103.53,122.859c0,3.072-2.492,5.561-5.562,5.561c-3.071,0-5.562-2.489-5.562-5.561V112.65
				c0-3.072,2.491-5.563,5.562-5.563c3.07,0,5.562,2.491,5.562,5.563V122.859z M120.801,96.562h-3.346v-11.15
				c0-5.559-2.111-10.659-5.591-14.381c-3.468-3.717-8.417-6.102-13.871-6.102c-5.457,0-10.407,2.385-13.873,6.102
				c-3.482,3.723-5.595,8.823-5.595,14.381v11.15h-3.35c-1.377,0-2.504,1.121-2.504,2.504v29.476c0,1.394,1.127,2.514,2.504,2.514
				h45.625c1.391,0,2.513-1.121,2.513-2.514V99.066C123.313,97.683,122.191,96.562,120.801,96.562z M108.211,96.562H87.766v-11.15
				c0-3.205,1.222-6.05,3.106-8.063c1.898-2.018,4.376-3.18,7.12-3.18c2.74,0,5.218,1.163,7.111,3.18
				c1.894,2.013,3.108,4.859,3.108,8.063V96.562z"/>
			<path d="M97.993,110.049c-1.77,0-3.204,1.437-3.204,3.206v8.544c0,1.77,1.434,3.203,3.204,3.203s3.203-1.434,3.203-3.203v-8.544
				C101.196,111.485,99.763,110.049,97.993,110.049z"/>
		</g>
		<g>
			<path d="M102.415,121.743c0,3.073-2.491,5.562-5.562,5.562c-3.07,0-5.562-2.489-5.562-5.562v-10.208
				c0-3.072,2.491-5.563,5.562-5.563c3.071,0,5.562,2.491,5.562,5.563V121.743z M119.687,95.446h-3.346V84.297
				c0-5.559-2.111-10.66-5.592-14.382c-3.467-3.717-8.417-6.102-13.871-6.102c-5.458,0-10.407,2.385-13.873,6.102
				c-3.483,3.722-5.595,8.823-5.595,14.382v11.149h-3.35c-1.376,0-2.503,1.122-2.503,2.504v29.476c0,1.394,1.127,2.514,2.503,2.514
				h45.626c1.39,0,2.511-1.12,2.511-2.514V97.951C122.197,96.568,121.076,95.446,119.687,95.446z M107.096,95.446H86.651V84.297
				c0-3.205,1.221-6.051,3.107-8.064c1.897-2.017,4.375-3.18,7.12-3.18c2.74,0,5.218,1.163,7.11,3.18
				c1.895,2.014,3.108,4.859,3.108,8.064V95.446z"/>
			<path d="M96.878,108.935c-1.771,0-3.205,1.436-3.205,3.204v8.544c0,1.77,1.434,3.203,3.205,3.203c1.77,0,3.202-1.434,3.202-3.203
				v-8.544C100.08,110.37,98.647,108.935,96.878,108.935z"/>
		</g>
		<g>
			<path d="M101.299,120.628c0,3.072-2.491,5.561-5.561,5.561c-3.072,0-5.562-2.489-5.562-5.561V110.42
				c0-3.073,2.491-5.563,5.562-5.563c3.07,0,5.561,2.491,5.561,5.563V120.628z M118.571,94.332h-3.346v-11.15
				c0-5.559-2.111-10.659-5.591-14.381c-3.468-3.717-8.418-6.102-13.872-6.102c-5.457,0-10.407,2.385-13.873,6.102
				c-3.483,3.723-5.595,8.823-5.595,14.381v11.15h-3.35c-1.377,0-2.504,1.121-2.504,2.504v29.476c0,1.395,1.127,2.515,2.504,2.515
				h45.626c1.39,0,2.512-1.12,2.512-2.515V96.836C121.083,95.453,119.961,94.332,118.571,94.332z M105.981,94.332H85.536v-11.15
				c0-3.205,1.221-6.05,3.106-8.064c1.898-2.017,4.376-3.18,7.12-3.18c2.74,0,5.218,1.163,7.111,3.18
				c1.894,2.014,3.108,4.859,3.108,8.064V94.332z"/>
			<path d="M95.762,107.819c-1.77,0-3.204,1.436-3.204,3.205v8.544c0,1.77,1.434,3.203,3.204,3.203s3.203-1.434,3.203-3.203v-8.544
				C98.965,109.255,97.532,107.819,95.762,107.819z"/>
		</g>
		<g>
			<path d="M100.184,119.513c0,3.073-2.491,5.561-5.562,5.561c-3.071,0-5.562-2.488-5.562-5.561v-10.208
				c0-3.073,2.491-5.563,5.562-5.563c3.071,0,5.562,2.491,5.562,5.563V119.513z M117.456,93.216h-3.345V82.067
				c0-5.559-2.111-10.659-5.592-14.381c-3.468-3.717-8.418-6.103-13.872-6.103c-5.457,0-10.407,2.386-13.873,6.103
				c-3.483,3.723-5.595,8.822-5.595,14.381v11.149h-3.35c-1.376,0-2.503,1.122-2.503,2.504v29.476c0,1.394,1.127,2.514,2.503,2.514
				h45.626c1.39,0,2.512-1.12,2.512-2.514V95.721C119.968,94.338,118.845,93.216,117.456,93.216z M104.866,93.216H84.42V82.067
				c0-3.205,1.222-6.05,3.106-8.064c1.898-2.018,4.376-3.18,7.12-3.18c2.741,0,5.218,1.162,7.111,3.18
				c1.894,2.014,3.108,4.859,3.108,8.064V93.216z"/>
			<path d="M94.647,106.704c-1.77,0-3.204,1.436-3.204,3.205v8.544c0,1.769,1.434,3.203,3.204,3.203s3.204-1.434,3.204-3.203v-8.544
				C97.851,108.14,96.417,106.704,94.647,106.704z"/>
		</g>
		<g>
			<path d="M99.069,118.398c0,3.072-2.491,5.561-5.562,5.561s-5.562-2.488-5.562-5.561v-10.209c0-3.072,2.491-5.563,5.562-5.563
				s5.562,2.491,5.562,5.563V118.398z M116.341,92.102h-3.346V80.952c0-5.56-2.111-10.66-5.592-14.382
				c-3.468-3.717-8.417-6.103-13.871-6.103c-5.457,0-10.407,2.385-13.873,6.103c-3.482,3.722-5.595,8.822-5.595,14.382v11.149h-3.35
				c-1.376,0-2.503,1.121-2.503,2.503v29.476c0,1.395,1.127,2.514,2.503,2.514h45.626c1.389,0,2.512-1.12,2.512-2.514V94.605
				C118.853,93.223,117.73,92.102,116.341,92.102z M103.75,92.102H83.305V80.952c0-3.205,1.222-6.051,3.106-8.064
				c1.898-2.018,4.376-3.18,7.121-3.18c2.74,0,5.217,1.162,7.11,3.18c1.895,2.013,3.108,4.859,3.108,8.064V92.102z"/>
			<path d="M93.532,105.588c-1.771,0-3.205,1.436-3.205,3.206v8.543c0,1.77,1.434,3.203,3.205,3.203c1.77,0,3.203-1.434,3.203-3.203
				v-8.543C96.735,107.024,95.302,105.588,93.532,105.588z"/>
		</g>
		<g>
			<path d="M97.954,117.283c0,3.072-2.491,5.561-5.562,5.561c-3.072,0-5.562-2.489-5.562-5.561v-10.209
				c0-3.073,2.491-5.563,5.562-5.563c3.07,0,5.562,2.491,5.562,5.563V117.283z M115.226,90.986h-3.346V79.837
				c0-5.56-2.111-10.659-5.591-14.382c-3.468-3.717-8.418-6.103-13.871-6.103c-5.458,0-10.407,2.385-13.873,6.103
				c-3.482,3.723-5.595,8.822-5.595,14.382v11.149H69.6c-1.377,0-2.504,1.121-2.504,2.503v29.476c0,1.394,1.127,2.515,2.504,2.515
				h45.626c1.39,0,2.512-1.121,2.512-2.515V93.49C117.737,92.107,116.615,90.986,115.226,90.986z M102.635,90.986H82.19V79.837
				c0-3.205,1.222-6.051,3.107-8.065c1.897-2.017,4.375-3.179,7.12-3.179c2.74,0,5.218,1.162,7.11,3.179
				c1.895,2.014,3.108,4.86,3.108,8.065V90.986z"/>
			<path d="M92.417,104.473c-1.771,0-3.205,1.436-3.205,3.205v8.544c0,1.77,1.434,3.203,3.205,3.203c1.77,0,3.203-1.434,3.203-3.203
				v-8.544C95.62,105.909,94.187,104.473,92.417,104.473z"/>
		</g>
		<g>
			<path d="M96.839,116.168c0,3.072-2.491,5.561-5.562,5.561c-3.071,0-5.562-2.488-5.562-5.561v-10.209
				c0-3.072,2.491-5.564,5.562-5.564c3.07,0,5.562,2.492,5.562,5.564V116.168z M114.11,89.871h-3.346V78.722
				c0-5.56-2.111-10.66-5.592-14.382c-3.468-3.717-8.418-6.103-13.872-6.103c-5.457,0-10.406,2.386-13.873,6.103
				c-3.483,3.722-5.595,8.822-5.595,14.382v11.149h-3.35c-1.376,0-2.503,1.121-2.503,2.504v29.476c0,1.394,1.127,2.514,2.503,2.514
				h45.626c1.389,0,2.512-1.12,2.512-2.514V92.375C116.622,90.992,115.5,89.871,114.11,89.871z M101.52,89.871H81.075V78.722
				c0-3.206,1.222-6.051,3.107-8.064c1.897-2.018,4.376-3.18,7.12-3.18c2.741,0,5.218,1.162,7.111,3.18
				c1.894,2.013,3.108,4.859,3.108,8.064V89.871z"/>
			<path d="M91.301,103.358c-1.77,0-3.204,1.436-3.204,3.205v8.544c0,1.77,1.434,3.203,3.204,3.203s3.204-1.434,3.204-3.203v-8.544
				C94.505,104.794,93.071,103.358,91.301,103.358z"/>
		</g>
		<g>
			<path d="M95.724,115.052c0,3.073-2.491,5.561-5.562,5.561s-5.562-2.488-5.562-5.561v-10.208c0-3.072,2.491-5.564,5.562-5.564
				s5.562,2.492,5.562,5.564V115.052z M112.995,88.755h-3.346V77.606c0-5.559-2.111-10.659-5.592-14.382
				c-3.468-3.717-8.417-6.103-13.871-6.103c-5.458,0-10.407,2.386-13.873,6.103c-3.482,3.723-5.595,8.823-5.595,14.382v11.149h-3.35
				c-1.377,0-2.504,1.122-2.504,2.504v29.476c0,1.395,1.127,2.515,2.504,2.515h45.626c1.39,0,2.512-1.12,2.512-2.515V91.26
				C115.507,89.877,114.385,88.755,112.995,88.755z M100.405,88.755H79.959V77.606c0-3.205,1.222-6.051,3.107-8.064
				c1.897-2.018,4.375-3.18,7.12-3.18c2.74,0,5.218,1.162,7.11,3.18c1.895,2.014,3.108,4.859,3.108,8.064V88.755z"/>
			<path d="M90.187,102.243c-1.771,0-3.205,1.436-3.205,3.205v8.544c0,1.77,1.434,3.204,3.205,3.204c1.77,0,3.203-1.434,3.203-3.204
				v-8.544C93.39,103.679,91.956,102.243,90.187,102.243z"/>
		</g>
		<g>
			<path d="M94.608,113.938c0,3.072-2.491,5.561-5.562,5.561c-3.072,0-5.562-2.488-5.562-5.561v-10.209
				c0-3.072,2.49-5.563,5.562-5.563c3.07,0,5.562,2.491,5.562,5.563V113.938z M111.88,87.641h-3.346V76.491
				c0-5.56-2.111-10.66-5.592-14.382c-3.468-3.717-8.418-6.103-13.871-6.103c-5.457,0-10.407,2.386-13.873,6.103
				c-3.483,3.722-5.595,8.822-5.595,14.382v11.149h-3.35c-1.377,0-2.504,1.121-2.504,2.504v29.476c0,1.394,1.127,2.514,2.504,2.514
				h45.626c1.39,0,2.512-1.12,2.512-2.514V90.145C114.392,88.762,113.27,87.641,111.88,87.641z M99.29,87.641H78.844V76.491
				c0-3.205,1.222-6.051,3.106-8.065c1.898-2.017,4.376-3.179,7.121-3.179c2.74,0,5.217,1.162,7.11,3.179
				c1.895,2.014,3.108,4.86,3.108,8.065V87.641z"/>
			<path d="M89.071,101.128c-1.77,0-3.205,1.436-3.205,3.205v8.544c0,1.77,1.435,3.203,3.205,3.203c1.77,0,3.203-1.433,3.203-3.203
				v-8.544C92.274,102.564,90.841,101.128,89.071,101.128z"/>
		</g>
		<g>
			<path d="M93.493,112.822c0,3.072-2.491,5.561-5.562,5.561c-3.071,0-5.562-2.488-5.562-5.561v-10.209
				c0-3.072,2.491-5.563,5.562-5.563c3.07,0,5.562,2.491,5.562,5.563V112.822z M110.765,86.525h-3.346V75.376
				c0-5.56-2.111-10.659-5.591-14.382c-3.468-3.717-8.418-6.103-13.872-6.103c-5.457,0-10.407,2.386-13.873,6.103
				c-3.482,3.723-5.595,8.822-5.595,14.382v11.149h-3.35c-1.377,0-2.504,1.121-2.504,2.504v29.476c0,1.395,1.127,2.515,2.504,2.515
				h45.626c1.39,0,2.512-1.12,2.512-2.515V89.029C113.276,87.646,112.154,86.525,110.765,86.525z M98.174,86.525H77.729V75.376
				c0-3.205,1.222-6.051,3.107-8.064c1.897-2.017,4.376-3.18,7.12-3.18c2.741,0,5.218,1.163,7.111,3.18
				c1.894,2.014,3.107,4.859,3.107,8.064V86.525z"/>
			<path d="M87.956,100.013c-1.77,0-3.204,1.436-3.204,3.205v8.544c0,1.77,1.434,3.203,3.204,3.203c1.771,0,3.204-1.434,3.204-3.203
				v-8.544C91.159,101.448,89.726,100.013,87.956,100.013z"/>
		</g>
		<g>
			<path d="M92.378,111.707c0,3.072-2.491,5.561-5.562,5.561c-3.071,0-5.562-2.489-5.562-5.561v-10.209
				c0-3.072,2.491-5.563,5.562-5.563c3.07,0,5.562,2.491,5.562,5.563V111.707z M109.649,85.41h-3.346V74.261
				c0-5.559-2.111-10.659-5.592-14.382c-3.468-3.717-8.417-6.103-13.871-6.103c-5.457,0-10.407,2.386-13.873,6.103
				c-3.483,3.723-5.595,8.823-5.595,14.382V85.41h-3.35c-1.376,0-2.504,1.121-2.504,2.504v29.476c0,1.394,1.127,2.514,2.504,2.514
				h45.626c1.39,0,2.512-1.12,2.512-2.514V87.914C112.161,86.531,111.039,85.41,109.649,85.41z M97.06,85.41H76.614V74.261
				c0-3.205,1.222-6.051,3.106-8.064c1.897-2.018,4.376-3.18,7.12-3.18c2.74,0,5.218,1.162,7.111,3.18
				c1.894,2.014,3.108,4.859,3.108,8.064V85.41z"/>
			<path d="M86.841,98.897c-1.771,0-3.204,1.436-3.204,3.205v8.544c0,1.77,1.434,3.203,3.204,3.203c1.77,0,3.203-1.434,3.203-3.203
				v-8.544C90.044,100.333,88.61,98.897,86.841,98.897z"/>
		</g>
		<g>
			<path d="M91.263,110.592c0,3.072-2.491,5.561-5.562,5.561c-3.071,0-5.562-2.488-5.562-5.561v-10.209
				c0-3.072,2.491-5.563,5.562-5.563c3.07,0,5.562,2.491,5.562,5.563V110.592z M108.534,84.295h-3.346V73.146
				c0-5.559-2.111-10.659-5.592-14.382c-3.468-3.717-8.418-6.103-13.871-6.103c-5.457,0-10.407,2.386-13.873,6.103
				c-3.483,3.723-5.595,8.823-5.595,14.382v11.149h-3.35c-1.376,0-2.503,1.121-2.503,2.504v29.476c0,1.394,1.127,2.514,2.503,2.514
				h45.626c1.39,0,2.512-1.12,2.512-2.514V86.799C111.046,85.416,109.924,84.295,108.534,84.295z M95.944,84.295H75.499V73.146
				c0-3.205,1.222-6.051,3.106-8.064c1.897-2.017,4.376-3.18,7.12-3.18c2.74,0,5.218,1.163,7.11,3.18
				c1.895,2.014,3.108,4.859,3.108,8.064V84.295z"/>
			<path d="M85.726,97.782c-1.77,0-3.204,1.436-3.204,3.205v8.544c0,1.77,1.434,3.203,3.204,3.203c1.77,0,3.203-1.434,3.203-3.203
				v-8.544C88.929,99.218,87.495,97.782,85.726,97.782z"/>
		</g>
		<g>
			<path d="M90.147,109.477c0,3.072-2.491,5.561-5.562,5.561c-3.071,0-5.562-2.489-5.562-5.561V99.268
				c0-3.072,2.491-5.563,5.562-5.563c3.07,0,5.562,2.491,5.562,5.563V109.477z M107.419,83.18h-3.346V72.03
				c0-5.56-2.111-10.659-5.592-14.382c-3.468-3.717-8.418-6.103-13.871-6.103c-5.457,0-10.407,2.386-13.873,6.103
				c-3.482,3.723-5.595,8.822-5.595,14.382V83.18h-3.35c-1.376,0-2.503,1.121-2.503,2.504v29.476c0,1.395,1.127,2.515,2.503,2.515
				h45.626c1.39,0,2.512-1.12,2.512-2.515V85.684C109.931,84.301,108.809,83.18,107.419,83.18z M94.829,83.18H74.384V72.03
				c0-3.205,1.222-6.051,3.106-8.064c1.897-2.017,4.376-3.18,7.12-3.18c2.74,0,5.218,1.163,7.11,3.18
				c1.895,2.014,3.108,4.859,3.108,8.064V83.18z"/>
			<path d="M84.61,96.667c-1.771,0-3.204,1.436-3.204,3.205v8.544c0,1.77,1.434,3.203,3.204,3.203s3.203-1.434,3.203-3.203v-8.544
				C87.813,98.103,86.381,96.667,84.61,96.667z"/>
		</g>
		<g>
			<path d="M89.032,108.361c0,3.072-2.491,5.561-5.562,5.561c-3.071,0-5.562-2.489-5.562-5.561V98.152
				c0-3.072,2.491-5.563,5.562-5.563c3.07,0,5.562,2.491,5.562,5.563V108.361z M106.304,82.064h-3.346V70.915
				c0-5.559-2.111-10.659-5.592-14.382c-3.468-3.717-8.417-6.102-13.871-6.102c-5.457,0-10.407,2.385-13.873,6.102
				c-3.483,3.723-5.595,8.823-5.595,14.382v11.149h-3.35c-1.376,0-2.503,1.121-2.503,2.504v29.476c0,1.395,1.127,2.515,2.503,2.515
				h45.626c1.39,0,2.512-1.12,2.512-2.515V84.568C108.815,83.186,107.693,82.064,106.304,82.064z M93.714,82.064H73.269V70.915
				c0-3.205,1.222-6.051,3.106-8.064c1.897-2.017,4.376-3.18,7.12-3.18c2.74,0,5.218,1.163,7.111,3.18
				c1.894,2.014,3.108,4.859,3.108,8.064V82.064z"/>
			<path d="M83.495,95.552c-1.77,0-3.204,1.436-3.204,3.205v8.544c0,1.77,1.434,3.203,3.204,3.203s3.203-1.434,3.203-3.203v-8.544
				C86.698,96.988,85.265,95.552,83.495,95.552z"/>
		</g>
		<g>
			<path d="M87.917,107.246c0,3.072-2.491,5.562-5.562,5.562c-3.071,0-5.562-2.489-5.562-5.562V97.037
				c0-3.072,2.491-5.563,5.562-5.563c3.07,0,5.562,2.491,5.562,5.563V107.246z M105.188,80.949h-3.346V69.8
				c0-5.559-2.111-10.659-5.592-14.382c-3.468-3.717-8.417-6.102-13.871-6.102c-5.457,0-10.407,2.385-13.873,6.102
				c-3.483,3.723-5.595,8.823-5.595,14.382v11.149h-3.35c-1.376,0-2.503,1.121-2.503,2.504v29.476c0,1.394,1.127,2.514,2.503,2.514
				h45.626c1.39,0,2.512-1.12,2.512-2.514V83.453C107.701,82.07,106.578,80.949,105.188,80.949z M92.599,80.949H72.153V69.8
				c0-3.205,1.222-6.051,3.106-8.064c1.898-2.017,4.376-3.18,7.12-3.18c2.74,0,5.218,1.163,7.111,3.18
				c1.894,2.014,3.108,4.859,3.108,8.064V80.949z"/>
			<path d="M82.38,94.437c-1.77,0-3.204,1.436-3.204,3.205v8.544c0,1.77,1.434,3.203,3.204,3.203s3.203-1.434,3.203-3.203v-8.544
				C85.583,95.873,84.15,94.437,82.38,94.437z"/>
		</g>
		<g>
			<path d="M86.802,106.131c0,3.072-2.491,5.562-5.562,5.562c-3.071,0-5.562-2.489-5.562-5.562V95.922
				c0-3.072,2.49-5.563,5.562-5.563c3.07,0,5.562,2.491,5.562,5.563V106.131z M104.073,79.834h-3.346V68.685
				c0-5.559-2.111-10.659-5.591-14.382c-3.468-3.717-8.417-6.102-13.872-6.102c-5.457,0-10.407,2.385-13.873,6.102
				c-3.482,3.723-5.595,8.823-5.595,14.382v11.149h-3.35c-1.376,0-2.503,1.121-2.503,2.504v29.476c0,1.394,1.127,2.514,2.503,2.514
				h45.626c1.39,0,2.512-1.12,2.512-2.514V82.338C106.585,80.955,105.463,79.834,104.073,79.834z M91.483,79.834H71.038V68.685
				c0-3.205,1.222-6.051,3.106-8.064c1.898-2.017,4.376-3.18,7.12-3.18c2.74,0,5.218,1.163,7.11,3.18
				c1.895,2.014,3.108,4.859,3.108,8.064V79.834z"/>
			<path d="M81.265,93.321c-1.771,0-3.204,1.437-3.204,3.205v8.544c0,1.77,1.434,3.203,3.204,3.203s3.203-1.434,3.203-3.203v-8.544
				C84.468,94.758,83.035,93.321,81.265,93.321z"/>
		</g>
		<g>
			<path d="M85.687,105.016c0,3.072-2.491,5.561-5.562,5.561c-3.071,0-5.562-2.488-5.562-5.561V94.807
				c0-3.072,2.491-5.563,5.562-5.563c3.07,0,5.562,2.491,5.562,5.563V105.016z M102.958,78.719h-3.346V67.569
				c0-5.559-2.111-10.659-5.592-14.382c-3.468-3.717-8.417-6.102-13.871-6.102c-5.457,0-10.407,2.385-13.873,6.102
				c-3.483,3.723-5.595,8.823-5.595,14.382v11.149h-3.35c-1.376,0-2.503,1.121-2.503,2.504v29.477c0,1.394,1.127,2.514,2.503,2.514
				h45.626c1.389,0,2.512-1.12,2.512-2.514V81.223C105.47,79.84,104.348,78.719,102.958,78.719z M90.368,78.719H69.923V67.569
				c0-3.205,1.222-6.051,3.106-8.064c1.898-2.017,4.376-3.18,7.12-3.18c2.74,0,5.218,1.163,7.111,3.18
				c1.894,2.014,3.107,4.859,3.107,8.064V78.719z"/>
			<path d="M80.149,92.206c-1.77,0-3.204,1.436-3.204,3.205v8.544c0,1.77,1.434,3.203,3.204,3.203c1.771,0,3.203-1.434,3.203-3.203
				v-8.544C83.353,93.642,81.92,92.206,80.149,92.206z"/>
		</g>
		<g>
			<path d="M84.571,103.9c0,3.072-2.491,5.561-5.562,5.561c-3.071,0-5.562-2.489-5.562-5.561V93.691
				c0-3.072,2.491-5.563,5.562-5.563c3.07,0,5.562,2.491,5.562,5.563V103.9z M101.843,77.604h-3.346V66.454
				c0-5.559-2.111-10.659-5.592-14.382c-3.468-3.717-8.417-6.102-13.871-6.102c-5.457,0-10.406,2.385-13.872,6.102
				c-3.483,3.723-5.595,8.823-5.595,14.382v11.149h-3.35c-1.376,0-2.503,1.122-2.503,2.504v29.476c0,1.394,1.126,2.514,2.503,2.514
				h45.626c1.39,0,2.512-1.12,2.512-2.514V80.107C104.354,78.725,103.232,77.604,101.843,77.604z M89.253,77.604H68.808V66.454
				c0-3.205,1.222-6.051,3.106-8.064c1.898-2.017,4.376-3.18,7.12-3.18c2.74,0,5.218,1.163,7.111,3.18
				c1.894,2.014,3.107,4.859,3.107,8.064V77.604z"/>
			<path d="M79.034,91.091c-1.77,0-3.204,1.437-3.204,3.205v8.544c0,1.77,1.435,3.203,3.204,3.203c1.77,0,3.203-1.434,3.203-3.203
				v-8.544C82.237,92.527,80.804,91.091,79.034,91.091z"/>
		</g>
		<g>
			<path d="M83.456,102.785c0,3.072-2.491,5.562-5.562,5.562c-3.071,0-5.562-2.489-5.562-5.562V92.576
				c0-3.072,2.49-5.563,5.562-5.563c3.07,0,5.562,2.491,5.562,5.563V102.785z M100.728,76.488h-3.346V65.339
				c0-5.559-2.111-10.659-5.591-14.381c-3.468-3.717-8.417-6.103-13.872-6.103c-5.457,0-10.406,2.385-13.873,6.103
				c-3.482,3.722-5.595,8.822-5.595,14.381v11.149h-3.35c-1.377,0-2.503,1.121-2.503,2.504v29.477c0,1.394,1.126,2.514,2.503,2.514
				h45.626c1.39,0,2.512-1.121,2.512-2.514V78.992C103.24,77.609,102.118,76.488,100.728,76.488z M88.138,76.488H67.692V65.339
				c0-3.205,1.222-6.051,3.106-8.064c1.898-2.017,4.376-3.179,7.12-3.179c2.74,0,5.218,1.162,7.111,3.179
				c1.894,2.014,3.108,4.859,3.108,8.064V76.488z"/>
			<path d="M77.919,89.976c-1.77,0-3.204,1.436-3.204,3.205v8.544c0,1.769,1.434,3.203,3.204,3.203s3.204-1.434,3.204-3.203v-8.544
				C81.123,91.412,79.689,89.976,77.919,89.976z"/>
		</g>
		<g>
			<path d="M82.341,101.67c0,3.072-2.491,5.561-5.562,5.561c-3.071,0-5.562-2.489-5.562-5.561V91.461
				c0-3.072,2.49-5.563,5.562-5.563c3.07,0,5.562,2.491,5.562,5.563V101.67z M99.613,75.373h-3.347V64.224
				c0-5.559-2.111-10.659-5.591-14.381c-3.469-3.717-8.418-6.103-13.872-6.103c-5.457,0-10.406,2.385-13.872,6.103
				c-3.483,3.722-5.595,8.823-5.595,14.381v11.149h-3.35c-1.376,0-2.503,1.121-2.503,2.504v29.476c0,1.394,1.126,2.514,2.503,2.514
				h45.627c1.389,0,2.511-1.12,2.511-2.514V77.877C102.124,76.494,101.002,75.373,99.613,75.373z M87.022,75.373H66.577V64.224
				c0-3.205,1.222-6.05,3.106-8.064c1.898-2.017,4.376-3.179,7.12-3.179c2.74,0,5.218,1.163,7.111,3.179
				c1.894,2.014,3.107,4.859,3.107,8.064V75.373z"/>
			<path d="M76.804,88.86c-1.77,0-3.204,1.437-3.204,3.205v8.544c0,1.77,1.435,3.203,3.204,3.203c1.771,0,3.203-1.434,3.203-3.203
				v-8.544C80.007,90.297,78.574,88.86,76.804,88.86z"/>
		</g>
		<g>
			<path d="M81.226,100.555c0,3.073-2.492,5.562-5.562,5.562c-3.071,0-5.562-2.489-5.562-5.562V90.346
				c0-3.072,2.49-5.563,5.562-5.563c3.07,0,5.562,2.491,5.562,5.563V100.555z M98.498,74.258h-3.346V63.109
				c0-5.559-2.111-10.66-5.592-14.382c-3.467-3.717-8.417-6.103-13.871-6.103c-5.457,0-10.407,2.385-13.872,6.103
				c-3.483,3.722-5.595,8.823-5.595,14.382v11.149h-3.35c-1.376,0-2.503,1.121-2.503,2.504v29.477c0,1.394,1.127,2.514,2.503,2.514
				h45.626c1.389,0,2.512-1.12,2.512-2.514V76.762C101.009,75.379,99.887,74.258,98.498,74.258z M85.907,74.258H65.462V63.109
				c0-3.206,1.222-6.051,3.107-8.064c1.898-2.017,4.375-3.18,7.12-3.18c2.74,0,5.218,1.163,7.111,3.18
				c1.894,2.013,3.107,4.859,3.107,8.064V74.258z"/>
			<path d="M75.688,87.745c-1.77,0-3.204,1.437-3.204,3.205v8.544c0,1.77,1.435,3.203,3.204,3.203c1.771,0,3.203-1.434,3.203-3.203
				V90.95C78.892,89.182,77.459,87.745,75.688,87.745z"/>
		</g>
		<g>
			<path d="M80.111,99.439c0,3.072-2.492,5.561-5.562,5.561c-3.071,0-5.562-2.489-5.562-5.561V89.23
				c0-3.072,2.491-5.563,5.562-5.563c3.07,0,5.562,2.491,5.562,5.563V99.439z M97.382,73.143h-3.346V61.993
				c0-5.559-2.111-10.659-5.592-14.381c-3.468-3.717-8.417-6.102-13.872-6.102c-5.457,0-10.406,2.385-13.873,6.102
				c-3.483,3.723-5.595,8.823-5.595,14.381v11.149h-3.35c-1.376,0-2.503,1.122-2.503,2.504v29.477c0,1.394,1.127,2.514,2.503,2.514
				h45.626c1.389,0,2.512-1.12,2.512-2.514V75.646C99.894,74.264,98.771,73.143,97.382,73.143z M84.792,73.143H64.347V61.993
				c0-3.205,1.222-6.05,3.107-8.064c1.898-2.017,4.375-3.179,7.12-3.179c2.74,0,5.218,1.163,7.111,3.179
				c1.894,2.014,3.107,4.86,3.107,8.064V73.143z"/>
			<path d="M74.573,86.63c-1.77,0-3.204,1.437-3.204,3.205v8.544c0,1.77,1.434,3.203,3.204,3.203c1.771,0,3.204-1.433,3.204-3.203
				v-8.544C77.777,88.066,76.344,86.63,74.573,86.63z"/>
		</g>
		<g>
			<path d="M78.996,98.324c0,3.072-2.492,5.562-5.562,5.562c-3.071,0-5.562-2.489-5.562-5.562V88.116
				c0-3.073,2.49-5.563,5.562-5.563c3.07,0,5.562,2.491,5.562,5.563V98.324z M96.268,72.027h-3.347V60.878
				c0-5.559-2.11-10.66-5.591-14.382c-3.468-3.717-8.418-6.102-13.872-6.102c-5.458,0-10.407,2.385-13.873,6.102
				c-3.483,3.722-5.595,8.823-5.595,14.382v11.149h-3.351c-1.376,0-2.503,1.121-2.503,2.504v29.477c0,1.394,1.127,2.514,2.503,2.514
				h45.627c1.389,0,2.512-1.12,2.512-2.514V74.531C98.779,73.148,97.656,72.027,96.268,72.027z M83.677,72.027H63.231V60.878
				c0-3.205,1.222-6.051,3.106-8.065c1.898-2.017,4.376-3.179,7.121-3.179c2.74,0,5.218,1.163,7.111,3.179
				c1.894,2.014,3.107,4.86,3.107,8.065V72.027z"/>
			<path d="M73.458,85.515c-1.77,0-3.205,1.437-3.205,3.205v8.544c0,1.77,1.435,3.204,3.205,3.204s3.203-1.434,3.203-3.204V88.72
				C76.661,86.951,75.229,85.515,73.458,85.515z"/>
		</g>
		<g>
			<path d="M77.88,97.209c0,3.072-2.492,5.561-5.562,5.561c-3.071,0-5.562-2.489-5.562-5.561V87c0-3.072,2.49-5.563,5.562-5.563
				c3.07,0,5.562,2.491,5.562,5.563V97.209z M95.152,70.913h-3.346v-11.15c0-5.559-2.11-10.659-5.591-14.381
				c-3.469-3.717-8.418-6.102-13.872-6.102c-5.457,0-10.406,2.385-13.872,6.102c-3.483,3.723-5.595,8.823-5.595,14.381v11.15h-3.35
				c-1.376,0-2.503,1.121-2.503,2.504v29.476c0,1.394,1.127,2.514,2.503,2.514h45.626c1.39,0,2.512-1.121,2.512-2.514V73.417
				C97.664,72.033,96.542,70.913,95.152,70.913z M82.562,70.913H62.116v-11.15c0-3.205,1.222-6.05,3.106-8.064
				c1.898-2.017,4.376-3.18,7.12-3.18c2.741,0,5.218,1.163,7.111,3.18c1.894,2.014,3.107,4.859,3.107,8.064V70.913z"/>
			<path d="M72.343,84.4c-1.77,0-3.204,1.436-3.204,3.205v8.543c0,1.77,1.435,3.204,3.204,3.204c1.771,0,3.203-1.434,3.203-3.204
				v-8.543C75.546,85.836,74.113,84.4,72.343,84.4z"/>
		</g>
		<g>
			<path d="M76.765,96.094c0,3.072-2.492,5.561-5.562,5.561c-3.071,0-5.562-2.489-5.562-5.561V85.885
				c0-3.072,2.491-5.563,5.562-5.563c3.07,0,5.562,2.492,5.562,5.563V96.094z M94.037,69.797h-3.346V58.648
				c0-5.559-2.111-10.66-5.591-14.382c-3.468-3.716-8.418-6.102-13.872-6.102c-5.457,0-10.406,2.386-13.872,6.102
				c-3.483,3.722-5.595,8.823-5.595,14.382v11.149H48.41c-1.376,0-2.503,1.122-2.503,2.504v29.476c0,1.394,1.127,2.514,2.503,2.514
				h45.627c1.389,0,2.512-1.12,2.512-2.514V72.301C96.549,70.919,95.426,69.797,94.037,69.797z M81.446,69.797H61.001V58.648
				c0-3.206,1.222-6.051,3.107-8.065c1.898-2.017,4.376-3.179,7.12-3.179c2.741,0,5.218,1.163,7.111,3.179
				c1.894,2.014,3.107,4.859,3.107,8.065V69.797z"/>
			<path d="M71.228,83.285c-1.77,0-3.204,1.436-3.204,3.205v8.544c0,1.77,1.435,3.203,3.204,3.203c1.771,0,3.204-1.433,3.204-3.203
				v-8.544C74.431,84.721,72.998,83.285,71.228,83.285z"/>
		</g>
		<g>
			<path d="M75.65,94.979c0,3.072-2.492,5.561-5.561,5.561c-3.072,0-5.562-2.489-5.562-5.561V84.771c0-3.073,2.49-5.564,5.562-5.564
				c3.069,0,5.561,2.492,5.561,5.564V94.979z M92.922,68.682h-3.346v-11.15c0-5.559-2.111-10.659-5.591-14.381
				c-3.468-3.717-8.418-6.102-13.872-6.102c-5.457,0-10.407,2.385-13.873,6.102c-3.483,3.723-5.595,8.823-5.595,14.381v11.15h-3.35
				c-1.376,0-2.503,1.121-2.503,2.503v29.477c0,1.394,1.127,2.514,2.503,2.514h45.626c1.389,0,2.512-1.121,2.512-2.514V71.186
				C95.434,69.803,94.311,68.682,92.922,68.682z M80.331,68.682H59.886v-11.15c0-3.205,1.222-6.05,3.107-8.064
				c1.898-2.017,4.376-3.18,7.12-3.18c2.74,0,5.217,1.163,7.111,3.18c1.894,2.014,3.107,4.859,3.107,8.064V68.682z"/>
			<path d="M70.113,82.17c-1.77,0-3.205,1.436-3.205,3.205v8.543c0,1.771,1.435,3.204,3.205,3.204s3.203-1.434,3.203-3.204v-8.543
				C73.316,83.605,71.883,82.17,70.113,82.17z"/>
		</g>
		<g>
			<path d="M74.535,93.863c0,3.073-2.492,5.562-5.562,5.562s-5.562-2.488-5.562-5.562V83.655c0-3.072,2.491-5.563,5.562-5.563
				s5.562,2.491,5.562,5.563V93.863z M91.807,67.566H88.46V56.417c0-5.559-2.111-10.66-5.591-14.382
				c-3.468-3.717-8.418-6.102-13.871-6.102c-5.458,0-10.407,2.385-13.873,6.102c-3.483,3.722-5.595,8.823-5.595,14.382v11.149h-3.35
				c-1.376,0-2.503,1.122-2.503,2.504v29.476c0,1.394,1.127,2.514,2.503,2.514h45.626c1.389,0,2.512-1.12,2.512-2.514V70.071
				C94.318,68.688,93.196,67.566,91.807,67.566z M79.216,67.566H58.771V56.417c0-3.205,1.222-6.05,3.107-8.064
				c1.897-2.017,4.375-3.18,7.12-3.18c2.74,0,5.218,1.163,7.11,3.18c1.895,2.014,3.107,4.859,3.107,8.064V67.566z"/>
			<path d="M68.998,81.055c-1.771,0-3.205,1.436-3.205,3.205v8.544c0,1.77,1.435,3.203,3.205,3.203c1.77,0,3.202-1.434,3.202-3.203
				v-8.544C72.2,82.49,70.768,81.055,68.998,81.055z"/>
		</g>
		<g>
			<path d="M73.419,92.749c0,3.072-2.491,5.561-5.562,5.561c-3.071,0-5.562-2.489-5.562-5.561V82.54
				c0-3.072,2.491-5.563,5.562-5.563c3.071,0,5.562,2.491,5.562,5.563V92.749z M90.691,66.452h-3.347V55.302
				c0-5.559-2.11-10.659-5.591-14.382c-3.468-3.717-8.418-6.102-13.872-6.102c-5.457,0-10.407,2.385-13.873,6.102
				c-3.482,3.723-5.595,8.823-5.595,14.382v11.149h-3.35c-1.377,0-2.504,1.121-2.504,2.504v29.476c0,1.394,1.127,2.515,2.504,2.515
				h45.626c1.39,0,2.512-1.121,2.512-2.515V68.956C93.203,67.572,92.081,66.452,90.691,66.452z M78.101,66.452H57.656V55.302
				c0-3.205,1.222-6.051,3.106-8.064c1.898-2.018,4.376-3.18,7.12-3.18c2.74,0,5.218,1.163,7.111,3.18
				c1.894,2.013,3.107,4.859,3.107,8.064V66.452z"/>
			<path d="M67.882,79.939c-1.77,0-3.204,1.436-3.204,3.205v8.544c0,1.77,1.434,3.203,3.204,3.203s3.203-1.434,3.203-3.203v-8.544
				C71.085,81.375,69.652,79.939,67.882,79.939z"/>
		</g>
		<g>
			<path d="M72.304,91.633c0,3.072-2.491,5.561-5.562,5.561c-3.071,0-5.562-2.489-5.562-5.561V81.425
				c0-3.072,2.491-5.564,5.562-5.564c3.071,0,5.562,2.492,5.562,5.564V91.633z M89.576,65.336H86.23V54.187
				c0-5.559-2.111-10.659-5.591-14.382c-3.468-3.716-8.418-6.102-13.872-6.102c-5.457,0-10.407,2.386-13.873,6.102
				c-3.483,3.723-5.595,8.823-5.595,14.382v11.149h-3.35c-1.376,0-2.503,1.122-2.503,2.504v29.476c0,1.394,1.127,2.514,2.503,2.514
				h45.626c1.389,0,2.512-1.12,2.512-2.514V67.84C92.088,66.458,90.965,65.336,89.576,65.336z M76.985,65.336H56.541V54.187
				c0-3.205,1.222-6.05,3.106-8.064c1.898-2.017,4.376-3.18,7.12-3.18c2.741,0,5.218,1.163,7.111,3.18
				c1.894,2.014,3.107,4.86,3.107,8.064V65.336z"/>
			<path d="M66.767,78.824c-1.77,0-3.204,1.436-3.204,3.206v8.543c0,1.77,1.434,3.204,3.204,3.204s3.203-1.434,3.203-3.204v-8.543
				C69.97,80.26,68.537,78.824,66.767,78.824z"/>
		</g>
		<g>
			<path d="M71.189,90.518c0,3.073-2.491,5.561-5.561,5.561c-3.072,0-5.562-2.488-5.562-5.561V80.309
				c0-3.072,2.491-5.563,5.562-5.563c3.07,0,5.561,2.492,5.561,5.563V90.518z M88.461,64.221h-3.346V53.072
				c0-5.559-2.111-10.659-5.591-14.381c-3.468-3.717-8.418-6.103-13.871-6.103c-5.458,0-10.407,2.385-13.873,6.103
				c-3.483,3.722-5.595,8.822-5.595,14.381v11.149h-3.35c-1.376,0-2.503,1.121-2.503,2.504v29.476c0,1.394,1.127,2.514,2.503,2.514
				h45.626c1.389,0,2.512-1.12,2.512-2.514V66.726C90.973,65.342,89.85,64.221,88.461,64.221z M75.87,64.221H55.425V53.072
				c0-3.205,1.222-6.051,3.106-8.064c1.898-2.017,4.376-3.179,7.121-3.179c2.74,0,5.217,1.162,7.11,3.179
				c1.895,2.014,3.107,4.86,3.107,8.064V64.221z"/>
			<path d="M65.652,77.708c-1.77,0-3.205,1.436-3.205,3.205v8.544c0,1.77,1.435,3.203,3.205,3.203c1.77,0,3.203-1.433,3.203-3.203
				v-8.544C68.855,79.145,67.422,77.708,65.652,77.708z"/>
		</g>
		<g>
			<path d="M70.074,89.403c0,3.072-2.491,5.561-5.562,5.561c-3.071,0-5.562-2.489-5.562-5.561V79.194
				c0-3.072,2.491-5.563,5.562-5.563c3.071,0,5.562,2.491,5.562,5.563V89.403z M87.346,63.106H84v-11.15
				c0-5.559-2.111-10.659-5.591-14.381c-3.468-3.717-8.418-6.103-13.872-6.103c-5.457,0-10.406,2.385-13.873,6.103
				c-3.483,3.722-5.595,8.822-5.595,14.381v11.15h-3.35c-1.376,0-2.503,1.121-2.503,2.504v29.476c0,1.394,1.127,2.514,2.503,2.514
				h45.626c1.389,0,2.512-1.12,2.512-2.514V65.61C89.857,64.227,88.735,63.106,87.346,63.106z M74.755,63.106H54.31v-11.15
				c0-3.205,1.222-6.05,3.107-8.064c1.897-2.017,4.375-3.18,7.12-3.18c2.74,0,5.218,1.163,7.111,3.18
				c1.894,2.014,3.107,4.859,3.107,8.064V63.106z"/>
			<path d="M64.537,76.593c-1.77,0-3.204,1.436-3.204,3.206v8.544c0,1.769,1.434,3.203,3.204,3.203s3.204-1.434,3.204-3.203v-8.544
				C67.74,78.029,66.307,76.593,64.537,76.593z"/>
		</g>
		<g>
			<path d="M68.958,88.288c0,3.072-2.491,5.561-5.562,5.561s-5.562-2.488-5.562-5.561V78.079c0-3.072,2.491-5.563,5.562-5.563
				s5.562,2.491,5.562,5.563V88.288z M86.23,61.991h-3.346V50.842c0-5.56-2.111-10.659-5.592-14.382
				c-3.468-3.717-8.418-6.103-13.872-6.103c-5.457,0-10.407,2.386-13.873,6.103c-3.482,3.723-5.595,8.822-5.595,14.382v11.149h-3.35
				c-1.376,0-2.503,1.121-2.503,2.503v29.476c0,1.394,1.127,2.514,2.503,2.514H86.23c1.389,0,2.512-1.12,2.512-2.514V64.495
				C88.742,63.112,87.62,61.991,86.23,61.991z M73.64,61.991H53.195V50.842c0-3.206,1.221-6.051,3.106-8.065
				c1.897-2.017,4.376-3.179,7.12-3.179c2.741,0,5.218,1.162,7.111,3.179c1.894,2.014,3.108,4.859,3.108,8.065V61.991z"/>
			<path d="M63.421,75.479c-1.77,0-3.204,1.436-3.204,3.205v8.544c0,1.769,1.434,3.203,3.204,3.203c1.771,0,3.203-1.434,3.203-3.203
				v-8.544C66.625,76.915,65.192,75.479,63.421,75.479z"/>
		</g>
		<g>
			<path d="M67.843,87.173c0,3.072-2.491,5.561-5.561,5.561c-3.072,0-5.562-2.489-5.562-5.561V76.964
				c0-3.073,2.491-5.563,5.562-5.563c3.07,0,5.561,2.491,5.561,5.563V87.173z M85.115,60.876H81.77v-11.15
				c0-5.559-2.111-10.659-5.591-14.381c-3.468-3.717-8.418-6.103-13.872-6.103c-5.457,0-10.407,2.386-13.873,6.103
				c-3.482,3.722-5.595,8.823-5.595,14.381v11.15h-3.35c-1.376,0-2.503,1.121-2.503,2.503v29.477c0,1.394,1.127,2.514,2.503,2.514
				h45.626c1.39,0,2.512-1.12,2.512-2.514V63.379C87.627,61.997,86.505,60.876,85.115,60.876z M72.525,60.876H52.08v-11.15
				c0-3.205,1.221-6.05,3.106-8.064c1.898-2.018,4.376-3.18,7.121-3.18c2.74,0,5.217,1.162,7.11,3.18
				c1.895,2.014,3.108,4.859,3.108,8.064V60.876z"/>
			<path d="M62.307,74.363c-1.771,0-3.204,1.436-3.204,3.205v8.543c0,1.77,1.434,3.204,3.204,3.204c1.77,0,3.203-1.434,3.203-3.204
				v-8.543C65.51,75.799,64.076,74.363,62.307,74.363z"/>
		</g>
		<g>
			<path d="M66.729,86.057c0,3.072-2.491,5.561-5.562,5.561c-3.071,0-5.562-2.489-5.562-5.561V75.848
				c0-3.072,2.491-5.563,5.562-5.563c3.07,0,5.562,2.491,5.562,5.563V86.057z M84,59.76h-3.346V48.611
				c0-5.56-2.11-10.659-5.591-14.382c-3.468-3.717-8.417-6.103-13.871-6.103c-5.458,0-10.407,2.385-13.873,6.103
				c-3.483,3.723-5.595,8.822-5.595,14.382V59.76h-3.35c-1.376,0-2.503,1.121-2.503,2.504V91.74c0,1.394,1.127,2.514,2.503,2.514H84
				c1.389,0,2.512-1.12,2.512-2.514V62.265C86.512,60.881,85.389,59.76,84,59.76z M71.41,59.76H50.965V48.611
				c0-3.205,1.221-6.051,3.106-8.064c1.898-2.017,4.376-3.18,7.121-3.18c2.74,0,5.217,1.163,7.11,3.18
				c1.895,2.014,3.108,4.859,3.108,8.064V59.76z"/>
			<path d="M61.191,73.248c-1.771,0-3.204,1.436-3.204,3.205v8.544c0,1.77,1.434,3.203,3.204,3.203c1.77,0,3.203-1.433,3.203-3.203
				v-8.544C64.395,74.684,62.961,73.248,61.191,73.248z"/>
		</g>
		<g>
			<path d="M65.613,84.942c0,3.072-2.491,5.561-5.562,5.561s-5.562-2.488-5.562-5.561V74.733c0-3.072,2.491-5.563,5.562-5.563
				s5.562,2.491,5.562,5.563V84.942z M82.885,58.646h-3.346v-11.15c0-5.559-2.111-10.659-5.592-14.381
				c-3.468-3.717-8.418-6.103-13.872-6.103c-5.457,0-10.406,2.385-13.872,6.103c-3.483,3.722-5.595,8.822-5.595,14.381v11.15h-3.35
				c-1.377,0-2.504,1.121-2.504,2.504v29.476c0,1.394,1.127,2.514,2.504,2.514h45.626c1.389,0,2.511-1.12,2.511-2.514V61.149
				C85.396,59.767,84.274,58.646,82.885,58.646z M70.294,58.646H49.85v-11.15c0-3.205,1.221-6.05,3.106-8.064
				c1.898-2.017,4.375-3.179,7.12-3.179c2.74,0,5.218,1.162,7.111,3.179c1.894,2.014,3.107,4.86,3.107,8.064V58.646z"/>
			<path d="M60.076,72.133c-1.77,0-3.204,1.436-3.204,3.205v8.544c0,1.769,1.434,3.203,3.204,3.203c1.771,0,3.203-1.434,3.203-3.203
				v-8.544C63.279,73.568,61.846,72.133,60.076,72.133z"/>
		</g>
		<g>
			<path d="M64.498,83.827c0,3.072-2.491,5.561-5.562,5.561c-3.072,0-5.562-2.489-5.562-5.561V73.618
				c0-3.072,2.491-5.564,5.562-5.564c3.07,0,5.562,2.492,5.562,5.564V83.827z M81.77,57.53h-3.346V46.381
				c0-5.559-2.111-10.659-5.591-14.382c-3.468-3.717-8.418-6.102-13.872-6.102c-5.457,0-10.407,2.385-13.873,6.102
				c-3.482,3.723-5.594,8.823-5.594,14.382V57.53h-3.35c-1.377,0-2.504,1.121-2.504,2.504V89.51c0,1.394,1.127,2.514,2.504,2.514
				H81.77c1.39,0,2.512-1.12,2.512-2.514V60.034C84.282,58.651,83.159,57.53,81.77,57.53z M69.179,57.53H48.734V46.381
				c0-3.205,1.222-6.051,3.106-8.064c1.898-2.018,4.376-3.18,7.12-3.18c2.74,0,5.218,1.162,7.111,3.18
				c1.894,2.014,3.107,4.859,3.107,8.064V57.53z"/>
			<path d="M58.961,71.017c-1.771,0-3.204,1.437-3.204,3.206v8.543c0,1.77,1.434,3.204,3.204,3.204c1.77,0,3.203-1.434,3.203-3.204
				v-8.543C62.164,72.454,60.731,71.017,58.961,71.017z"/>
		</g>
		<g>
			<path d="M63.383,82.712c0,3.072-2.491,5.561-5.562,5.561c-3.071,0-5.562-2.489-5.562-5.561V72.503
				c0-3.072,2.491-5.563,5.562-5.563c3.07,0,5.562,2.491,5.562,5.563V82.712z M80.655,56.415h-3.346v-11.15
				c0-5.559-2.111-10.659-5.591-14.381c-3.468-3.717-8.418-6.102-13.872-6.102c-5.457,0-10.407,2.385-13.873,6.102
				c-3.483,3.722-5.595,8.823-5.595,14.381v11.15h-3.35c-1.377,0-2.504,1.121-2.504,2.504v29.476c0,1.394,1.127,2.514,2.504,2.514
				h45.626c1.389,0,2.511-1.12,2.511-2.514V58.919C83.166,57.536,82.044,56.415,80.655,56.415z M68.064,56.415H47.619v-11.15
				c0-3.205,1.222-6.05,3.106-8.064c1.898-2.017,4.375-3.18,7.12-3.18c2.74,0,5.218,1.163,7.111,3.18
				c1.894,2.014,3.107,4.859,3.107,8.064V56.415z"/>
			<path d="M57.846,69.902c-1.77,0-3.204,1.436-3.204,3.206v8.544c0,1.77,1.434,3.203,3.204,3.203s3.203-1.434,3.203-3.203v-8.544
				C61.049,71.338,59.616,69.902,57.846,69.902z"/>
		</g>
		<g>
			<path d="M62.268,81.596c0,3.073-2.491,5.562-5.562,5.562c-3.071,0-5.562-2.489-5.562-5.562V71.388
				c0-3.072,2.491-5.563,5.562-5.563c3.07,0,5.562,2.491,5.562,5.563V81.596z M79.54,55.299h-3.347V44.15
				c0-5.56-2.11-10.659-5.591-14.382c-3.468-3.717-8.417-6.102-13.871-6.102c-5.457,0-10.407,2.385-13.873,6.102
				c-3.483,3.723-5.595,8.822-5.595,14.382v11.149h-3.35c-1.376,0-2.503,1.121-2.503,2.504V87.28c0,1.394,1.127,2.514,2.503,2.514
				H79.54c1.389,0,2.512-1.12,2.512-2.514V57.804C82.051,56.42,80.929,55.299,79.54,55.299z M66.949,55.299H46.504V44.15
				c0-3.205,1.222-6.051,3.106-8.064c1.898-2.017,4.376-3.18,7.121-3.18c2.74,0,5.217,1.163,7.11,3.18
				c1.895,2.014,3.108,4.859,3.108,8.064V55.299z"/>
			<path d="M56.73,68.787c-1.77,0-3.204,1.436-3.204,3.205v8.544c0,1.77,1.434,3.203,3.204,3.203c1.77,0,3.203-1.434,3.203-3.203
				v-8.544C59.934,70.223,58.5,68.787,56.73,68.787z"/>
		</g>
		<g>
			<path d="M61.152,80.481c0,3.072-2.491,5.561-5.562,5.561c-3.071,0-5.562-2.488-5.562-5.561V70.272
				c0-3.072,2.491-5.563,5.562-5.563c3.07,0,5.562,2.491,5.562,5.563V80.481z M78.424,54.185h-3.346v-11.15
				c0-5.559-2.111-10.659-5.591-14.381c-3.468-3.717-8.418-6.102-13.872-6.102c-5.457,0-10.407,2.385-13.873,6.102
				c-3.483,3.722-5.595,8.823-5.595,14.381v11.15h-3.35c-1.376,0-2.503,1.121-2.503,2.504v29.476c0,1.394,1.127,2.514,2.503,2.514
				h45.626c1.389,0,2.511-1.12,2.511-2.514V56.688C80.936,55.306,79.813,54.185,78.424,54.185z M65.833,54.185H45.389v-11.15
				c0-3.205,1.222-6.05,3.106-8.064c1.898-2.017,4.375-3.18,7.12-3.18c2.74,0,5.218,1.163,7.111,3.18
				c1.894,2.014,3.107,4.859,3.107,8.064V54.185z"/>
			<path d="M55.615,67.672c-1.77,0-3.204,1.436-3.204,3.205v8.544c0,1.77,1.434,3.203,3.204,3.203s3.203-1.434,3.203-3.203v-8.544
				C58.818,69.107,57.385,67.672,55.615,67.672z"/>
		</g>
		<g>
			<path d="M60.037,79.366c0,3.072-2.491,5.561-5.562,5.561c-3.071,0-5.562-2.489-5.562-5.561V69.157
				c0-3.072,2.491-5.563,5.562-5.563c3.07,0,5.562,2.491,5.562,5.563V79.366z M77.309,53.069h-3.346V41.92
				c0-5.559-2.111-10.659-5.591-14.382c-3.468-3.717-8.418-6.115-13.872-6.102c-5.457-0.013-10.407,2.385-13.873,6.102
				c-3.483,3.723-5.595,8.823-5.595,14.382v11.149h-3.35c-1.376,0-2.503,1.121-2.503,2.504v29.476c0,1.394,1.127,2.514,2.503,2.514
				h45.626c1.389,0,2.512-1.12,2.512-2.514V55.573C79.821,54.19,78.698,53.069,77.309,53.069z M64.718,53.069H44.273V41.92
				c0-3.205,1.222-6.051,3.106-8.064c1.898-2.017,4.376-3.18,7.12-3.18c2.74,0,5.218,1.163,7.111,3.18
				c1.894,2.014,3.107,4.859,3.107,8.064V53.069z"/>
			<path d="M54.5,66.557c-1.77,0-3.204,1.436-3.204,3.205v8.544c0,1.77,1.434,3.203,3.204,3.203s3.203-1.434,3.203-3.203v-8.544
				C57.703,67.993,56.27,66.557,54.5,66.557z"/>
		</g>
	</g>
</g>
<g>
	<path fill="#FFFFFF" d="M77.309,53.069h-3.346V41.92c0-5.559-2.111-10.659-5.591-14.382c-3.468-3.717-8.418-6.115-13.872-6.102
		c-5.457-0.013-10.407,2.385-13.873,6.102c-3.483,3.723-5.595,8.823-5.595,14.382v11.149h-3.35c-1.376,0-2.503,1.121-2.503,2.504
		v29.476c0,1.394,1.127,2.514,2.503,2.514h45.626c1.389,0,2.512-1.12,2.512-2.514V55.573C79.821,54.19,78.698,53.069,77.309,53.069z
		 M60.037,79.366c0,3.072-2.491,5.561-5.562,5.561c-3.071,0-5.562-2.489-5.562-5.561V69.157c0-3.072,2.491-5.563,5.562-5.563
		c3.07,0,5.562,2.491,5.562,5.563V79.366z M64.718,53.069H44.273V41.92c0-3.205,1.222-6.051,3.106-8.064
		c1.898-2.017,4.376-3.18,7.12-3.18c2.74,0,5.218,1.163,7.111,3.18c1.894,2.014,3.107,4.859,3.107,8.064V53.069z"/>
	<path fill="#F4C83C" d="M54.5,66.557c-1.77,0-3.204,1.436-3.204,3.205v8.544c0,1.77,1.434,3.203,3.204,3.203
		s3.203-1.434,3.203-3.203v-8.544C57.703,67.993,56.27,66.557,54.5,66.557z"/>
</g>
</svg>
