<?xml version="1.0" encoding="utf-8"?>
<!-- Generator: Adobe Illustrator 16.0.0, SVG Export Plug-In . SVG Version: 6.00 Build 0)  -->
<!DOCTYPE svg PUBLIC "-//W3C//DTD SVG 1.1//EN" "http://www.w3.org/Graphics/SVG/1.1/DTD/svg11.dtd">
<svg version="1.1" id="Layer_1" xmlns="http://www.w3.org/2000/svg" xmlns:xlink="http://www.w3.org/1999/xlink" x="0px" y="0px"
	 width="109px" height="109px" viewBox="0 0 109 109" enable-background="new 0 0 109 109" xml:space="preserve">
<circle fill="#9E8361" cx="54.5" cy="54.5" r="54.5"/>
<g>
	<defs>
		<circle id="SVGID_1_" cx="54.5" cy="54.5" r="54.5"/>
	</defs>
	<clipPath id="SVGID_2_">
		<use xlink:href="#SVGID_1_"  overflow="visible"/>
	</clipPath>
	<g opacity="0.2" clip-path="url(#SVGID_2_)">
		<g>
			<polygon points="35,83.94 74,83.94 59.146,53.531 59.146,34.97 66.121,34.97 66.121,29.824 42.879,29.824 42.879,34.97 
				49.854,34.97 49.854,53.531 			"/>
			<circle cx="56.992" cy="22.143" r="4.259"/>
			<circle cx="60.228" cy="14.097" r="1.863"/>
			<circle cx="68.073" cy="14.388" r="3.327"/>
		</g>
		<g>
			<polygon points="35.301,84.241 74.301,84.241 59.447,53.832 59.447,35.271 66.422,35.271 66.422,30.125 43.18,30.125 
				43.18,35.271 50.154,35.271 50.154,53.832 			"/>
			<circle cx="57.293" cy="22.444" r="4.259"/>
			<circle cx="60.529" cy="14.398" r="1.863"/>
			<circle cx="68.374" cy="14.688" r="3.327"/>
		</g>
		<g>
			<polygon points="35.602,84.542 74.602,84.542 59.749,54.133 59.749,35.572 66.723,35.572 66.723,30.426 43.481,30.426 
				43.481,35.572 50.456,35.572 50.456,54.133 			"/>
			<circle cx="57.594" cy="22.745" r="4.259"/>
			<circle cx="60.83" cy="14.699" r="1.863"/>
			<circle cx="68.676" cy="14.99" r="3.327"/>
		</g>
		<g>
			<polygon points="35.903,84.843 74.903,84.843 60.049,54.434 60.049,35.873 67.024,35.873 67.024,30.727 43.782,30.727 
				43.782,35.873 50.756,35.873 50.756,54.434 			"/>
			<circle cx="57.895" cy="23.046" r="4.259"/>
			<circle cx="61.131" cy="15" r="1.863"/>
			<circle cx="68.976" cy="15.291" r="3.327"/>
		</g>
		<g>
			<polygon points="36.204,85.144 75.204,85.144 60.35,54.735 60.35,36.173 67.325,36.173 67.325,31.028 44.083,31.028 
				44.083,36.173 51.058,36.173 51.058,54.735 			"/>
			<circle cx="58.196" cy="23.347" r="4.259"/>
			<circle cx="61.432" cy="15.301" r="1.863"/>
			<circle cx="69.277" cy="15.592" r="3.327"/>
		</g>
		<g>
			<polygon points="36.505,85.445 75.505,85.445 60.651,55.037 60.651,36.475 67.626,36.475 67.626,31.329 44.384,31.329 
				44.384,36.475 51.358,36.475 51.358,55.037 			"/>
			<circle cx="58.498" cy="23.648" r="4.258"/>
			<circle cx="61.733" cy="15.602" r="1.863"/>
			<circle cx="69.579" cy="15.893" r="3.327"/>
		</g>
		<g>
			<polygon points="36.806,85.746 75.806,85.746 60.953,55.337 60.953,36.776 67.927,36.776 67.927,31.63 44.685,31.63 
				44.685,36.776 51.66,36.776 51.66,55.337 			"/>
			<circle cx="58.798" cy="23.949" r="4.259"/>
			<circle cx="62.034" cy="15.903" r="1.863"/>
			<circle cx="69.879" cy="16.194" r="3.327"/>
		</g>
		<g>
			<polygon points="37.107,86.047 76.107,86.047 61.253,55.638 61.253,37.077 68.228,37.077 68.228,31.931 44.986,31.931 
				44.986,37.077 51.96,37.077 51.96,55.638 			"/>
			<circle cx="59.099" cy="24.25" r="4.259"/>
			<circle cx="62.335" cy="16.204" r="1.863"/>
			<circle cx="70.18" cy="16.495" r="3.327"/>
		</g>
		<g>
			<polygon points="37.408,86.348 76.408,86.348 61.554,55.939 61.554,37.377 68.529,37.377 68.529,32.231 45.287,32.231 
				45.287,37.377 52.261,37.377 52.261,55.939 			"/>
			<circle cx="59.4" cy="24.551" r="4.258"/>
			<circle cx="62.635" cy="16.505" r="1.863"/>
			<circle cx="70.481" cy="16.796" r="3.327"/>
		</g>
		<g>
			<polygon points="37.708,86.648 76.708,86.648 61.855,56.24 61.855,37.679 68.83,37.679 68.83,32.533 45.587,32.533 
				45.587,37.679 52.562,37.679 52.562,56.24 			"/>
			<circle cx="59.701" cy="24.852" r="4.259"/>
			<circle cx="62.936" cy="16.806" r="1.863"/>
			<circle cx="70.782" cy="17.096" r="3.327"/>
		</g>
		<g>
			<polygon points="38.01,86.95 77.01,86.95 62.156,56.541 62.156,37.979 69.131,37.979 69.131,32.834 45.889,32.834 45.889,37.979 
				52.863,37.979 52.863,56.541 			"/>
			<circle cx="60.002" cy="25.153" r="4.258"/>
			<circle cx="63.238" cy="17.107" r="1.863"/>
			<circle cx="71.083" cy="17.397" r="3.327"/>
		</g>
		<g>
			<polygon points="38.311,87.25 77.311,87.25 62.457,56.842 62.457,38.281 69.432,38.281 69.432,33.134 46.19,33.134 46.19,38.281 
				53.165,38.281 53.165,56.842 			"/>
			<circle cx="60.303" cy="25.454" r="4.259"/>
			<circle cx="63.539" cy="17.408" r="1.863"/>
			<circle cx="71.384" cy="17.698" r="3.327"/>
		</g>
		<g>
			<polygon points="38.612,87.552 77.612,87.552 62.758,57.143 62.758,38.582 69.733,38.582 69.733,33.435 46.491,33.435 
				46.491,38.582 53.465,38.582 53.465,57.143 			"/>
			<circle cx="60.604" cy="25.755" r="4.259"/>
			<circle cx="63.839" cy="17.709" r="1.863"/>
			<circle cx="71.685" cy="18" r="3.327"/>
		</g>
		<g>
			<polygon points="38.913,87.853 77.913,87.853 63.06,57.444 63.06,38.883 70.034,38.883 70.034,33.737 46.792,33.737 
				46.792,38.883 53.767,38.883 53.767,57.444 			"/>
			<circle cx="60.905" cy="26.056" r="4.259"/>
			<circle cx="64.141" cy="18.01" r="1.863"/>
			<circle cx="71.987" cy="18.301" r="3.327"/>
		</g>
		<g>
			<polygon points="39.214,88.154 78.214,88.154 63.36,57.746 63.36,39.184 70.335,39.184 70.335,34.038 47.093,34.038 
				47.093,39.184 54.067,39.184 54.067,57.746 			"/>
			<circle cx="61.206" cy="26.357" r="4.259"/>
			<circle cx="64.442" cy="18.311" r="1.863"/>
			<circle cx="72.287" cy="18.602" r="3.327"/>
		</g>
		<g>
			<polygon points="39.515,88.455 78.515,88.455 63.661,58.046 63.661,39.485 70.636,39.485 70.636,34.338 47.394,34.338 
				47.394,39.485 54.369,39.485 54.369,58.046 			"/>
			<circle cx="61.507" cy="26.658" r="4.259"/>
			<circle cx="64.743" cy="18.612" r="1.863"/>
			<circle cx="72.588" cy="18.903" r="3.327"/>
		</g>
		<g>
			<polygon points="39.816,88.756 78.816,88.756 63.962,58.347 63.962,39.785 70.937,39.785 70.937,34.639 47.695,34.639 
				47.695,39.785 54.669,39.785 54.669,58.347 			"/>
			<circle cx="61.808" cy="26.959" r="4.259"/>
			<circle cx="65.044" cy="18.913" r="1.863"/>
			<circle cx="72.889" cy="19.203" r="3.327"/>
		</g>
		<g>
			<polygon points="40.117,89.057 79.117,89.057 64.263,58.648 64.263,40.086 71.237,40.086 71.237,34.94 47.995,34.94 
				47.995,40.086 54.97,40.086 54.97,58.648 			"/>
			<circle cx="62.109" cy="27.26" r="4.258"/>
			<circle cx="65.344" cy="19.214" r="1.863"/>
			<circle cx="73.19" cy="19.504" r="3.327"/>
		</g>
		<g>
			<polygon points="40.418,89.358 79.418,89.358 64.564,58.949 64.564,40.388 71.539,40.388 71.539,35.242 48.297,35.242 
				48.297,40.388 55.271,40.388 55.271,58.949 			"/>
			<circle cx="62.41" cy="27.561" r="4.259"/>
			<circle cx="65.646" cy="19.515" r="1.863"/>
			<circle cx="73.491" cy="19.806" r="3.327"/>
		</g>
		<g>
			<polygon points="40.719,89.659 79.719,89.659 64.866,59.25 64.866,40.688 71.84,40.688 71.84,35.542 48.598,35.542 
				48.598,40.688 55.572,40.688 55.572,59.25 			"/>
			<circle cx="62.711" cy="27.862" r="4.259"/>
			<circle cx="65.947" cy="19.816" r="1.863"/>
			<circle cx="73.792" cy="20.107" r="3.327"/>
		</g>
		<g>
			<polygon points="41.02,89.959 80.02,89.959 65.167,59.551 65.167,40.989 72.141,40.989 72.141,35.843 48.899,35.843 
				48.899,40.989 55.873,40.989 55.873,59.551 			"/>
			<circle cx="63.012" cy="28.163" r="4.259"/>
			<circle cx="66.247" cy="20.117" r="1.863"/>
			<circle cx="74.093" cy="20.407" r="3.327"/>
		</g>
		<g>
			<polygon points="41.321,90.261 80.321,90.261 65.468,59.852 65.468,41.291 72.442,41.291 72.442,36.145 49.2,36.145 49.2,41.291 
				56.175,41.291 56.175,59.852 			"/>
			<circle cx="63.313" cy="28.464" r="4.259"/>
			<circle cx="66.549" cy="20.418" r="1.863"/>
			<circle cx="74.395" cy="20.709" r="3.327"/>
		</g>
		<g>
			<polygon points="41.622,90.562 80.622,90.562 65.769,60.153 65.769,41.591 72.743,41.591 72.743,36.446 49.501,36.446 
				49.501,41.591 56.476,41.591 56.476,60.153 			"/>
			<circle cx="63.614" cy="28.765" r="4.259"/>
			<circle cx="66.85" cy="20.719" r="1.863"/>
			<circle cx="74.695" cy="21.01" r="3.327"/>
		</g>
		<g>
			<polygon points="41.923,90.863 80.923,90.863 66.069,60.454 66.069,41.893 73.044,41.893 73.044,36.747 49.802,36.747 
				49.802,41.893 56.776,41.893 56.776,60.454 			"/>
			<circle cx="63.915" cy="29.066" r="4.259"/>
			<circle cx="67.151" cy="21.02" r="1.863"/>
			<circle cx="74.996" cy="21.311" r="3.327"/>
		</g>
		<g>
			<polygon points="42.224,91.164 81.224,91.164 66.37,60.755 66.37,42.193 73.345,42.193 73.345,37.047 50.103,37.047 
				50.103,42.193 57.077,42.193 57.077,60.755 			"/>
			<circle cx="64.216" cy="29.367" r="4.259"/>
			<circle cx="67.451" cy="21.321" r="1.863"/>
			<circle cx="75.297" cy="21.611" r="3.327"/>
		</g>
		<g>
			<polygon points="42.525,91.464 81.524,91.464 66.671,61.056 66.671,42.494 73.646,42.494 73.646,37.349 50.404,37.349 
				50.404,42.494 57.378,42.494 57.378,61.056 			"/>
			<circle cx="64.517" cy="29.667" r="4.259"/>
			<circle cx="67.752" cy="21.622" r="1.863"/>
			<circle cx="75.598" cy="21.912" r="3.327"/>
		</g>
		<g>
			<polygon points="42.826,91.766 81.826,91.766 66.973,61.357 66.973,42.795 73.947,42.795 73.947,37.65 50.705,37.65 
				50.705,42.795 57.68,42.795 57.68,61.357 			"/>
			<circle cx="64.818" cy="29.969" r="4.259"/>
			<circle cx="68.054" cy="21.923" r="1.863"/>
			<circle cx="75.899" cy="22.213" r="3.327"/>
		</g>
		<g>
			<polygon points="43.127,92.066 82.127,92.066 67.273,61.658 67.273,43.097 74.248,43.097 74.248,37.951 51.006,37.951 
				51.006,43.097 57.98,43.097 57.98,61.658 			"/>
			<circle cx="65.119" cy="30.27" r="4.259"/>
			<circle cx="68.354" cy="22.224" r="1.863"/>
			<circle cx="76.2" cy="22.515" r="3.327"/>
		</g>
		<g>
			<polygon points="43.428,92.368 82.428,92.368 67.574,61.959 67.574,43.397 74.549,43.397 74.549,38.251 51.307,38.251 
				51.307,43.397 58.281,43.397 58.281,61.959 			"/>
			<circle cx="65.42" cy="30.571" r="4.259"/>
			<circle cx="68.656" cy="22.525" r="1.863"/>
			<circle cx="76.501" cy="22.815" r="3.327"/>
		</g>
		<g>
			<polygon points="43.729,92.669 82.729,92.669 67.875,62.26 67.875,43.699 74.85,43.699 74.85,38.553 51.608,38.553 
				51.608,43.699 58.583,43.699 58.583,62.26 			"/>
			<circle cx="65.721" cy="30.872" r="4.259"/>
			<circle cx="68.957" cy="22.826" r="1.863"/>
			<circle cx="76.802" cy="23.117" r="3.327"/>
		</g>
		<g>
			<polygon points="44.03,92.97 83.03,92.97 68.176,62.562 68.176,44 75.151,44 75.151,38.854 51.909,38.854 51.909,44 58.884,44 
				58.884,62.562 			"/>
			<circle cx="66.022" cy="31.173" r="4.259"/>
			<circle cx="69.258" cy="23.127" r="1.863"/>
			<circle cx="77.103" cy="23.418" r="3.327"/>
		</g>
		<g>
			<polygon points="44.331,93.271 83.331,93.271 68.477,62.862 68.477,44.301 75.452,44.301 75.452,39.154 52.209,39.154 
				52.209,44.301 59.184,44.301 59.184,62.862 			"/>
			<circle cx="66.323" cy="31.474" r="4.258"/>
			<circle cx="69.558" cy="23.428" r="1.863"/>
			<circle cx="77.404" cy="23.719" r="3.327"/>
		</g>
		<g>
			<polygon points="44.632,93.572 83.632,93.572 68.778,63.163 68.778,44.602 75.753,44.602 75.753,39.455 52.511,39.455 
				52.511,44.602 59.485,44.602 59.485,63.163 			"/>
			<circle cx="66.624" cy="31.775" r="4.259"/>
			<circle cx="69.859" cy="23.729" r="1.863"/>
			<circle cx="77.705" cy="24.02" r="3.327"/>
		</g>
		<g>
			<polygon points="44.933,93.872 83.933,93.872 69.079,63.464 69.079,44.902 76.054,44.902 76.054,39.756 52.812,39.756 
				52.812,44.902 59.786,44.902 59.786,63.464 			"/>
			<circle cx="66.925" cy="32.076" r="4.259"/>
			<circle cx="70.16" cy="24.03" r="1.863"/>
			<circle cx="78.006" cy="24.32" r="3.327"/>
		</g>
		<g>
			<polygon points="45.234,94.174 84.234,94.174 69.38,63.765 69.38,45.204 76.355,45.204 76.355,40.058 53.113,40.058 
				53.113,45.204 60.088,45.204 60.088,63.765 			"/>
			<circle cx="67.226" cy="32.377" r="4.259"/>
			<circle cx="70.462" cy="24.331" r="1.863"/>
			<circle cx="78.307" cy="24.621" r="3.327"/>
		</g>
		<g>
			<polygon points="45.535,94.475 84.535,94.475 69.681,64.066 69.681,45.504 76.656,45.504 76.656,40.358 53.414,40.358 
				53.414,45.504 60.388,45.504 60.388,64.066 			"/>
			<circle cx="67.527" cy="32.678" r="4.259"/>
			<circle cx="70.762" cy="24.632" r="1.863"/>
			<circle cx="78.608" cy="24.923" r="3.327"/>
		</g>
		<g>
			<polygon points="45.835,94.775 84.836,94.775 69.982,64.367 69.982,45.806 76.957,45.806 76.957,40.659 53.714,40.659 
				53.714,45.806 60.689,45.806 60.689,64.367 			"/>
			<circle cx="67.828" cy="32.979" r="4.258"/>
			<circle cx="71.064" cy="24.933" r="1.863"/>
			<circle cx="78.909" cy="25.224" r="3.327"/>
		</g>
		<g>
			<polygon points="46.137,95.077 85.137,95.077 70.283,64.668 70.283,46.106 77.258,46.106 77.258,40.961 54.016,40.961 
				54.016,46.106 60.991,46.106 60.991,64.668 			"/>
			<circle cx="68.129" cy="33.28" r="4.259"/>
			<circle cx="71.365" cy="25.234" r="1.863"/>
			<circle cx="79.21" cy="25.525" r="3.327"/>
		</g>
		<g>
			<polygon points="46.438,95.378 85.438,95.378 70.584,64.969 70.584,46.408 77.559,46.408 77.559,41.262 54.317,41.262 
				54.317,46.408 61.291,46.408 61.291,64.969 			"/>
			<circle cx="68.43" cy="33.581" r="4.259"/>
			<circle cx="71.666" cy="25.535" r="1.863"/>
			<circle cx="79.511" cy="25.825" r="3.327"/>
		</g>
		<g>
			<polygon points="46.739,95.679 85.739,95.679 70.885,65.27 70.885,46.708 77.86,46.708 77.86,41.562 54.618,41.562 
				54.618,46.708 61.592,46.708 61.592,65.27 			"/>
			<circle cx="68.731" cy="33.882" r="4.259"/>
			<circle cx="71.967" cy="25.836" r="1.863"/>
			<circle cx="79.812" cy="26.126" r="3.327"/>
		</g>
		<g>
			<polygon points="47.04,95.979 86.04,95.979 71.186,65.571 71.186,47.01 78.161,47.01 78.161,41.863 54.919,41.863 54.919,47.01 
				61.893,47.01 61.893,65.571 			"/>
			<circle cx="69.032" cy="34.183" r="4.259"/>
			<circle cx="72.268" cy="26.137" r="1.863"/>
			<circle cx="80.113" cy="26.427" r="3.327"/>
		</g>
		<g>
			<polygon points="47.341,96.28 86.34,96.28 71.487,65.872 71.487,47.31 78.462,47.31 78.462,42.164 55.219,42.164 55.219,47.31 
				62.194,47.31 62.194,65.872 			"/>
			<circle cx="69.333" cy="34.484" r="4.259"/>
			<circle cx="72.568" cy="26.438" r="1.863"/>
			<circle cx="80.414" cy="26.728" r="3.327"/>
		</g>
		<g>
			<polygon points="47.642,96.582 86.642,96.582 71.789,66.173 71.789,47.612 78.763,47.612 78.763,42.466 55.521,42.466 
				55.521,47.612 62.495,47.612 62.495,66.173 			"/>
			<circle cx="69.634" cy="34.785" r="4.259"/>
			<circle cx="72.869" cy="26.739" r="1.863"/>
			<circle cx="80.715" cy="27.03" r="3.327"/>
		</g>
		<g>
			<polygon points="47.943,96.883 86.943,96.883 72.089,66.474 72.089,47.912 79.064,47.912 79.064,42.767 55.822,42.767 
				55.822,47.912 62.796,47.912 62.796,66.474 			"/>
			<circle cx="69.935" cy="35.085" r="4.259"/>
			<circle cx="73.17" cy="27.04" r="1.863"/>
			<circle cx="81.016" cy="27.331" r="3.327"/>
		</g>
		<g>
			<polygon points="48.244,97.184 87.244,97.184 72.39,66.775 72.39,48.213 79.365,48.213 79.365,43.067 56.123,43.067 
				56.123,48.213 63.097,48.213 63.097,66.775 			"/>
			<circle cx="70.236" cy="35.387" r="4.259"/>
			<circle cx="73.471" cy="27.341" r="1.863"/>
			<circle cx="81.317" cy="27.631" r="3.327"/>
		</g>
		<g>
			<polygon points="48.545,97.485 87.545,97.485 72.691,67.076 72.691,48.515 79.666,48.515 79.666,43.369 56.424,43.369 
				56.424,48.515 63.398,48.515 63.398,67.076 			"/>
			<circle cx="70.537" cy="35.688" r="4.259"/>
			<circle cx="73.773" cy="27.642" r="1.863"/>
			<circle cx="81.618" cy="27.933" r="3.327"/>
		</g>
		<g>
			<polygon points="48.846,97.786 87.846,97.786 72.992,67.377 72.992,48.815 79.967,48.815 79.967,43.67 56.725,43.67 
				56.725,48.815 63.699,48.815 63.699,67.377 			"/>
			<circle cx="70.838" cy="35.989" r="4.259"/>
			<circle cx="74.073" cy="27.943" r="1.863"/>
			<circle cx="81.919" cy="28.233" r="3.327"/>
		</g>
		<g>
			<polygon points="49.146,98.086 88.147,98.086 73.293,67.678 73.293,49.116 80.268,49.116 80.268,43.971 57.025,43.971 
				57.025,49.116 64,49.116 64,67.678 			"/>
			<circle cx="71.139" cy="36.29" r="4.259"/>
			<circle cx="74.374" cy="28.244" r="1.863"/>
			<circle cx="82.22" cy="28.534" r="3.327"/>
		</g>
		<g>
			<polygon points="49.447,98.388 88.447,98.388 73.594,67.979 73.594,49.417 80.569,49.417 80.569,44.271 57.327,44.271 
				57.327,49.417 64.301,49.417 64.301,67.979 			"/>
			<circle cx="71.44" cy="36.59" r="4.259"/>
			<circle cx="74.675" cy="28.544" r="1.863"/>
			<circle cx="82.521" cy="28.835" r="3.327"/>
		</g>
		<g>
			<polygon points="49.748,98.688 88.749,98.688 73.895,68.28 73.895,49.718 80.87,49.718 80.87,44.572 57.627,44.572 
				57.627,49.718 64.602,49.718 64.602,68.28 			"/>
			<circle cx="71.741" cy="36.891" r="4.258"/>
			<circle cx="74.976" cy="28.846" r="1.863"/>
			<circle cx="82.822" cy="29.136" r="3.327"/>
		</g>
		<g>
			<polygon points="50.05,98.99 89.05,98.99 74.196,68.581 74.196,50.02 81.171,50.02 81.171,44.874 57.929,44.874 57.929,50.02 
				64.903,50.02 64.903,68.581 			"/>
			<circle cx="72.042" cy="37.193" r="4.259"/>
			<circle cx="75.277" cy="29.147" r="1.863"/>
			<circle cx="83.123" cy="29.438" r="3.327"/>
		</g>
		<g>
			<polygon points="50.351,99.291 89.351,99.291 74.497,68.882 74.497,50.32 81.472,50.32 81.472,45.174 58.229,45.174 
				58.229,50.32 65.204,50.32 65.204,68.882 			"/>
			<circle cx="72.343" cy="37.494" r="4.259"/>
			<circle cx="75.578" cy="29.448" r="1.863"/>
			<circle cx="83.424" cy="29.738" r="3.327"/>
		</g>
		<g>
			<polygon points="50.651,99.591 89.651,99.591 74.798,69.183 74.798,50.621 81.772,50.621 81.772,45.475 58.53,45.475 
				58.53,50.621 65.505,50.621 65.505,69.183 			"/>
			<circle cx="72.644" cy="37.794" r="4.259"/>
			<circle cx="75.879" cy="29.749" r="1.863"/>
			<circle cx="83.725" cy="30.039" r="3.327"/>
		</g>
		<g>
			<polygon points="50.953,99.893 89.953,99.893 75.099,69.484 75.099,50.922 82.074,50.922 82.074,45.776 58.832,45.776 
				58.832,50.922 65.806,50.922 65.806,69.484 			"/>
			<circle cx="72.945" cy="38.096" r="4.259"/>
			<circle cx="76.18" cy="30.05" r="1.863"/>
			<circle cx="84.026" cy="30.34" r="3.327"/>
		</g>
		<g>
			<polygon points="51.254,100.194 90.254,100.194 75.4,69.785 75.4,51.224 82.375,51.224 82.375,46.078 59.133,46.078 
				59.133,51.224 66.107,51.224 66.107,69.785 			"/>
			<circle cx="73.246" cy="38.397" r="4.259"/>
			<circle cx="76.482" cy="30.351" r="1.863"/>
			<circle cx="84.327" cy="30.642" r="3.327"/>
		</g>
		<g>
			<polygon points="51.555,100.495 90.555,100.495 75.701,70.086 75.701,51.524 82.676,51.524 82.676,46.378 59.434,46.378 
				59.434,51.524 66.408,51.524 66.408,70.086 			"/>
			<circle cx="73.547" cy="38.698" r="4.259"/>
			<circle cx="76.782" cy="30.652" r="1.863"/>
			<circle cx="84.628" cy="30.942" r="3.327"/>
		</g>
		<g>
			<polygon points="51.855,100.795 90.855,100.795 76.002,70.387 76.002,51.825 82.977,51.825 82.977,46.679 59.734,46.679 
				59.734,51.825 66.709,51.825 66.709,70.387 			"/>
			<circle cx="73.848" cy="38.999" r="4.259"/>
			<circle cx="77.083" cy="30.953" r="1.863"/>
			<circle cx="84.929" cy="31.243" r="3.327"/>
		</g>
		<g>
			<polygon points="52.157,101.097 91.157,101.097 76.303,70.688 76.303,52.126 83.277,52.126 83.277,46.98 60.036,46.98 
				60.036,52.126 67.01,52.126 67.01,70.688 			"/>
			<circle cx="74.149" cy="39.3" r="4.259"/>
			<circle cx="77.385" cy="31.254" r="1.863"/>
			<circle cx="85.23" cy="31.544" r="3.327"/>
		</g>
		<g>
			<polygon points="52.458,101.397 91.458,101.397 76.604,70.989 76.604,52.428 83.579,52.428 83.579,47.282 60.337,47.282 
				60.337,52.428 67.312,52.428 67.312,70.989 			"/>
			<circle cx="74.45" cy="39.601" r="4.259"/>
			<circle cx="77.686" cy="31.555" r="1.863"/>
			<circle cx="85.531" cy="31.846" r="3.327"/>
		</g>
		<g>
			<polygon points="52.759,101.699 91.759,101.699 76.905,71.29 76.905,52.729 83.88,52.729 83.88,47.583 60.638,47.583 
				60.638,52.729 67.612,52.729 67.612,71.29 			"/>
			<circle cx="74.75" cy="39.902" r="4.259"/>
			<circle cx="77.987" cy="31.856" r="1.863"/>
			<circle cx="85.832" cy="32.146" r="3.327"/>
		</g>
		<g>
			<polygon points="53.06,101.999 92.06,101.999 77.206,71.591 77.206,53.029 84.18,53.029 84.18,47.883 60.938,47.883 
				60.938,53.029 67.913,53.029 67.913,71.591 			"/>
			<circle cx="75.052" cy="40.202" r="4.258"/>
			<circle cx="78.287" cy="32.157" r="1.863"/>
			<circle cx="86.133" cy="32.447" r="3.327"/>
		</g>
		<g>
			<polygon points="53.36,102.301 92.36,102.301 77.507,71.892 77.507,53.33 84.481,53.33 84.481,48.185 61.239,48.185 
				61.239,53.33 68.214,53.33 68.214,71.892 			"/>
			<circle cx="75.353" cy="40.504" r="4.258"/>
			<circle cx="78.589" cy="32.458" r="1.863"/>
			<circle cx="86.434" cy="32.748" r="3.327"/>
		</g>
		<g>
			<polygon points="53.662,102.602 92.662,102.602 77.808,72.193 77.808,53.632 84.783,53.632 84.783,48.486 61.541,48.486 
				61.541,53.632 68.516,53.632 68.516,72.193 			"/>
			<circle cx="75.654" cy="40.805" r="4.259"/>
			<circle cx="78.89" cy="32.759" r="1.863"/>
			<circle cx="86.735" cy="33.05" r="3.327"/>
		</g>
		<g>
			<polygon points="53.962,102.902 92.963,102.902 78.109,72.494 78.109,53.932 85.083,53.932 85.083,48.786 61.842,48.786 
				61.842,53.932 68.816,53.932 68.816,72.494 			"/>
			<circle cx="75.955" cy="41.106" r="4.259"/>
			<circle cx="79.19" cy="33.06" r="1.863"/>
			<circle cx="87.036" cy="33.351" r="3.327"/>
		</g>
		<g>
			<polygon points="54.263,103.203 93.263,103.203 78.41,72.795 78.41,54.233 85.384,54.233 85.384,49.087 62.142,49.087 
				62.142,54.233 69.117,54.233 69.117,72.795 			"/>
			<circle cx="76.255" cy="41.406" r="4.259"/>
			<circle cx="79.491" cy="33.361" r="1.863"/>
			<circle cx="87.337" cy="33.651" r="3.327"/>
		</g>
		<g>
			<polygon points="54.564,103.505 93.564,103.505 78.711,73.096 78.711,54.534 85.686,54.534 85.686,49.388 62.443,49.388 
				62.443,54.534 69.418,54.534 69.418,73.096 			"/>
			<circle cx="76.557" cy="41.708" r="4.259"/>
			<circle cx="79.792" cy="33.662" r="1.863"/>
			<circle cx="87.638" cy="33.952" r="3.327"/>
		</g>
		<g>
			<polygon points="54.866,103.806 93.866,103.806 79.012,73.397 79.012,54.836 85.987,54.836 85.987,49.689 62.745,49.689 
				62.745,54.836 69.72,54.836 69.72,73.397 			"/>
			<circle cx="76.858" cy="42.009" r="4.259"/>
			<circle cx="80.094" cy="33.963" r="1.863"/>
			<circle cx="87.939" cy="34.254" r="3.327"/>
		</g>
		<g>
			<polygon points="55.166,104.106 94.167,104.106 79.313,73.698 79.313,55.136 86.288,55.136 86.288,49.99 63.046,49.99 
				63.046,55.136 70.021,55.136 70.021,73.698 			"/>
			<circle cx="77.159" cy="42.31" r="4.258"/>
			<circle cx="80.394" cy="34.264" r="1.863"/>
			<circle cx="88.24" cy="34.554" r="3.327"/>
		</g>
		<g>
			<polygon points="55.468,104.407 94.467,104.407 79.614,73.999 79.614,55.438 86.588,55.438 86.588,50.291 63.347,50.291 
				63.347,55.438 70.321,55.438 70.321,73.999 			"/>
			<circle cx="77.459" cy="42.61" r="4.259"/>
			<circle cx="80.695" cy="34.565" r="1.863"/>
			<circle cx="88.541" cy="34.855" r="3.327"/>
		</g>
		<g>
			<polygon points="55.769,104.708 94.769,104.708 79.915,74.3 79.915,55.738 86.89,55.738 86.89,50.592 63.647,50.592 
				63.647,55.738 70.622,55.738 70.622,74.3 			"/>
			<circle cx="77.76" cy="42.912" r="4.259"/>
			<circle cx="80.996" cy="34.866" r="1.863"/>
			<circle cx="88.842" cy="35.156" r="3.327"/>
		</g>
		<g>
			<polygon points="56.07,105.01 95.07,105.01 80.217,74.601 80.217,56.04 87.191,56.04 87.191,50.894 63.949,50.894 63.949,56.04 
				70.924,56.04 70.924,74.601 			"/>
			<circle cx="78.062" cy="43.213" r="4.259"/>
			<circle cx="81.298" cy="35.167" r="1.863"/>
			<circle cx="89.143" cy="35.458" r="3.327"/>
		</g>
		<g>
			<polygon points="56.371,105.311 95.37,105.311 80.518,74.901 80.518,56.34 87.492,56.34 87.492,51.194 64.25,51.194 64.25,56.34 
				71.224,56.34 71.224,74.901 			"/>
			<circle cx="78.363" cy="43.514" r="4.259"/>
			<circle cx="81.598" cy="35.468" r="1.863"/>
			<circle cx="89.444" cy="35.758" r="3.327"/>
		</g>
		<g>
			<polygon points="56.671,105.611 95.671,105.611 80.818,75.203 80.818,56.641 87.792,56.641 87.792,51.495 64.55,51.495 
				64.55,56.641 71.524,56.641 71.524,75.203 			"/>
			<circle cx="78.664" cy="43.814" r="4.258"/>
			<circle cx="81.899" cy="35.768" r="1.863"/>
			<circle cx="89.745" cy="36.059" r="3.327"/>
		</g>
		<g>
			<polygon points="56.973,105.912 95.973,105.912 81.119,75.504 81.119,56.942 88.094,56.942 88.094,51.796 64.852,51.796 
				64.852,56.942 71.826,56.942 71.826,75.504 			"/>
			<circle cx="78.965" cy="44.116" r="4.259"/>
			<circle cx="82.2" cy="36.07" r="1.863"/>
			<circle cx="90.046" cy="36.36" r="3.327"/>
		</g>
		<g>
			<polygon points="57.274,106.214 96.273,106.214 81.42,75.805 81.42,57.244 88.395,57.244 88.395,52.098 65.152,52.098 
				65.152,57.244 72.127,57.244 72.127,75.805 			"/>
			<circle cx="79.266" cy="44.417" r="4.259"/>
			<circle cx="82.501" cy="36.371" r="1.863"/>
			<circle cx="90.347" cy="36.661" r="3.327"/>
		</g>
		<g>
			<polygon points="57.574,106.515 96.574,106.515 81.721,76.106 81.721,57.544 88.695,57.544 88.695,52.398 65.453,52.398 
				65.453,57.544 72.428,57.544 72.428,76.106 			"/>
			<circle cx="79.567" cy="44.718" r="4.259"/>
			<circle cx="82.802" cy="36.672" r="1.863"/>
			<circle cx="90.648" cy="36.962" r="3.327"/>
		</g>
		<g>
			<polygon points="57.875,106.815 96.875,106.815 82.021,76.406 82.021,57.845 88.996,57.845 88.996,52.699 65.754,52.699 
				65.754,57.845 72.729,57.845 72.729,76.406 			"/>
			<circle cx="79.868" cy="45.019" r="4.259"/>
			<circle cx="83.103" cy="36.972" r="1.863"/>
			<circle cx="90.949" cy="37.263" r="3.327"/>
		</g>
		<g>
			<polygon points="58.177,107.116 97.177,107.116 82.323,76.708 82.323,58.146 89.298,58.146 89.298,53 66.056,53 66.056,58.146 
				73.03,58.146 73.03,76.708 			"/>
			<circle cx="80.168" cy="45.319" r="4.259"/>
			<circle cx="83.404" cy="37.274" r="1.863"/>
			<circle cx="91.25" cy="37.564" r="3.327"/>
		</g>
		<g>
			<polygon points="58.478,107.418 97.478,107.418 82.624,77.009 82.624,58.448 89.599,58.448 89.599,53.301 66.356,53.301 
				66.356,58.448 73.331,58.448 73.331,77.009 			"/>
			<circle cx="80.47" cy="45.621" r="4.259"/>
			<circle cx="83.705" cy="37.575" r="1.863"/>
			<circle cx="91.551" cy="37.865" r="3.327"/>
		</g>
		<g>
			<polygon points="58.778,107.718 97.778,107.718 82.925,77.31 82.925,58.748 89.899,58.748 89.899,53.602 66.657,53.602 
				66.657,58.748 73.632,58.748 73.632,77.31 			"/>
			<circle cx="80.771" cy="45.921" r="4.259"/>
			<circle cx="84.006" cy="37.875" r="1.863"/>
			<circle cx="91.852" cy="38.166" r="3.327"/>
		</g>
		<g>
			<polygon points="59.079,108.02 98.08,108.02 83.226,77.61 83.226,59.049 90.2,59.049 90.2,53.903 66.958,53.903 66.958,59.049 
				73.933,59.049 73.933,77.61 			"/>
			<circle cx="81.072" cy="46.222" r="4.259"/>
			<circle cx="84.307" cy="38.176" r="1.863"/>
			<circle cx="92.153" cy="38.467" r="3.327"/>
		</g>
		<g>
			<polygon points="59.38,108.32 98.38,108.32 83.527,77.912 83.527,59.35 90.502,59.35 90.502,54.204 67.26,54.204 67.26,59.35 
				74.234,59.35 74.234,77.912 			"/>
			<circle cx="81.373" cy="46.524" r="4.259"/>
			<circle cx="84.608" cy="38.478" r="1.863"/>
			<circle cx="92.454" cy="38.768" r="3.327"/>
		</g>
		<g>
			<polygon points="59.682,108.622 98.682,108.622 83.828,78.213 83.828,59.651 90.803,59.651 90.803,54.505 67.561,54.505 
				67.561,59.651 74.535,59.651 74.535,78.213 			"/>
			<circle cx="81.674" cy="46.825" r="4.259"/>
			<circle cx="84.909" cy="38.779" r="1.863"/>
			<circle cx="92.755" cy="39.069" r="3.327"/>
		</g>
		<g>
			<polygon points="59.982,108.923 98.982,108.923 84.129,78.514 84.129,59.952 91.104,59.952 91.104,54.806 67.861,54.806 
				67.861,59.952 74.836,59.952 74.836,78.514 			"/>
			<circle cx="81.975" cy="47.125" r="4.259"/>
			<circle cx="85.21" cy="39.08" r="1.863"/>
			<circle cx="93.056" cy="39.37" r="3.327"/>
		</g>
		<g>
			<polygon points="60.283,109.223 99.283,109.223 84.43,78.814 84.43,60.253 91.404,60.253 91.404,55.107 68.162,55.107 
				68.162,60.253 75.137,60.253 75.137,78.814 			"/>
			<circle cx="82.275" cy="47.426" r="4.258"/>
			<circle cx="85.511" cy="39.38" r="1.863"/>
			<circle cx="93.357" cy="39.671" r="3.327"/>
		</g>
		<g>
			<polygon points="60.585,109.524 99.584,109.524 84.731,79.116 84.731,60.554 91.706,60.554 91.706,55.408 68.463,55.408 
				68.463,60.554 75.438,60.554 75.438,79.116 			"/>
			<circle cx="82.577" cy="47.728" r="4.259"/>
			<circle cx="85.812" cy="39.681" r="1.863"/>
			<circle cx="93.658" cy="39.973" r="3.327"/>
		</g>
		<g>
			<polygon points="60.886,109.825 99.886,109.825 85.032,79.417 85.032,60.855 92.007,60.855 92.007,55.709 68.765,55.709 
				68.765,60.855 75.739,60.855 75.739,79.417 			"/>
			<circle cx="82.878" cy="48.029" r="4.259"/>
			<circle cx="86.113" cy="39.983" r="1.863"/>
			<circle cx="93.959" cy="40.273" r="3.327"/>
		</g>
		<g>
			<polygon points="61.187,110.126 100.187,110.126 85.333,79.718 85.333,61.156 92.308,61.156 92.308,56.01 69.065,56.01 
				69.065,61.156 76.04,61.156 76.04,79.718 			"/>
			<circle cx="83.178" cy="48.33" r="4.259"/>
			<circle cx="86.414" cy="40.284" r="1.863"/>
			<circle cx="94.26" cy="40.574" r="3.327"/>
		</g>
		<g>
			<polygon points="61.487,110.427 100.487,110.427 85.634,80.019 85.634,61.457 92.608,61.457 92.608,56.311 69.366,56.311 
				69.366,61.457 76.341,61.457 76.341,80.019 			"/>
			<circle cx="83.479" cy="48.63" r="4.259"/>
			<circle cx="86.715" cy="40.584" r="1.863"/>
			<circle cx="94.561" cy="40.875" r="3.327"/>
		</g>
		<g>
			<polygon points="61.789,110.729 100.789,110.729 85.935,80.319 85.935,61.758 92.91,61.758 92.91,56.612 69.667,56.612 
				69.667,61.758 76.642,61.758 76.642,80.319 			"/>
			<circle cx="83.781" cy="48.931" r="4.258"/>
			<circle cx="87.016" cy="40.886" r="1.863"/>
			<circle cx="94.862" cy="41.176" r="3.327"/>
		</g>
		<g>
			<polygon points="62.09,111.029 101.09,111.029 86.236,80.621 86.236,62.06 93.211,62.06 93.211,56.914 69.969,56.914 
				69.969,62.06 76.943,62.06 76.943,80.621 			"/>
			<circle cx="84.082" cy="49.233" r="4.259"/>
			<circle cx="87.317" cy="41.187" r="1.863"/>
			<circle cx="95.163" cy="41.478" r="3.327"/>
		</g>
		<g>
			<polygon points="62.391,111.33 101.391,111.33 86.537,80.922 86.537,62.36 93.512,62.36 93.512,57.214 70.27,57.214 70.27,62.36 
				77.244,62.36 77.244,80.922 			"/>
			<circle cx="84.383" cy="49.534" r="4.259"/>
			<circle cx="87.618" cy="41.488" r="1.863"/>
			<circle cx="95.464" cy="41.778" r="3.327"/>
		</g>
		<g>
			<polygon points="62.691,111.631 101.691,111.631 86.837,81.223 86.837,62.661 93.812,62.661 93.812,57.515 70.57,57.515 
				70.57,62.661 77.545,62.661 77.545,81.223 			"/>
			<circle cx="84.683" cy="49.834" r="4.259"/>
			<circle cx="87.919" cy="41.788" r="1.863"/>
			<circle cx="95.765" cy="42.079" r="3.327"/>
		</g>
		<g>
			<polygon points="62.992,111.933 101.993,111.933 87.139,81.524 87.139,62.962 94.114,62.962 94.114,57.816 70.871,57.816 
				70.871,62.962 77.846,62.962 77.846,81.524 			"/>
			<circle cx="84.985" cy="50.135" r="4.259"/>
			<circle cx="88.22" cy="42.089" r="1.863"/>
			<circle cx="96.066" cy="42.38" r="3.327"/>
		</g>
		<g>
			<polygon points="63.293,112.234 102.293,112.234 87.44,81.825 87.44,63.264 94.415,63.264 94.415,58.117 71.173,58.117 
				71.173,63.264 78.147,63.264 78.147,81.825 			"/>
			<circle cx="85.286" cy="50.437" r="4.259"/>
			<circle cx="88.521" cy="42.391" r="1.863"/>
			<circle cx="96.367" cy="42.682" r="3.327"/>
		</g>
		<g>
			<polygon points="63.594,112.534 102.595,112.534 87.741,82.126 87.741,63.564 94.715,63.564 94.715,58.418 71.474,58.418 
				71.474,63.564 78.448,63.564 78.448,82.126 			"/>
			<circle cx="85.586" cy="50.738" r="4.259"/>
			<circle cx="88.822" cy="42.692" r="1.863"/>
			<circle cx="96.668" cy="42.982" r="3.327"/>
		</g>
		<g>
			<polygon points="63.895,112.835 102.896,112.835 88.042,82.427 88.042,63.865 95.016,63.865 95.016,58.719 71.774,58.719 
				71.774,63.865 78.749,63.865 78.749,82.427 			"/>
			<circle cx="85.887" cy="51.038" r="4.258"/>
			<circle cx="89.123" cy="42.992" r="1.863"/>
			<circle cx="96.969" cy="43.283" r="3.327"/>
		</g>
		<g>
			<polygon points="64.196,113.136 103.196,113.136 88.343,82.728 88.343,64.166 95.317,64.166 95.317,59.02 72.075,59.02 
				72.075,64.166 79.05,64.166 79.05,82.728 			"/>
			<circle cx="86.188" cy="51.339" r="4.259"/>
			<circle cx="89.424" cy="43.293" r="1.863"/>
			<circle cx="97.27" cy="43.584" r="3.327"/>
		</g>
		<g>
			<polygon points="64.498,113.438 103.498,113.438 88.645,83.029 88.645,64.467 95.619,64.467 95.619,59.321 72.376,59.321 
				72.376,64.467 79.352,64.467 79.352,83.029 			"/>
			<circle cx="86.49" cy="51.641" r="4.259"/>
			<circle cx="89.725" cy="43.595" r="1.863"/>
			<circle cx="97.571" cy="43.885" r="3.327"/>
		</g>
		<g>
			<polygon points="64.799,113.738 103.799,113.738 88.945,83.33 88.945,64.768 95.919,64.768 95.919,59.622 72.677,59.622 
				72.677,64.768 79.652,64.768 79.652,83.33 			"/>
			<circle cx="86.791" cy="51.941" r="4.259"/>
			<circle cx="90.026" cy="43.896" r="1.863"/>
			<circle cx="97.872" cy="44.186" r="3.327"/>
		</g>
		<g>
			<polygon points="65.099,114.039 104.099,114.039 89.246,83.631 89.246,65.069 96.22,65.069 96.22,59.923 72.978,59.923 
				72.978,65.069 79.953,65.069 79.953,83.631 			"/>
			<circle cx="87.091" cy="52.242" r="4.259"/>
			<circle cx="90.327" cy="44.196" r="1.863"/>
			<circle cx="98.173" cy="44.487" r="3.327"/>
		</g>
		<g>
			<polygon points="65.4,114.34 104.4,114.34 89.547,83.932 89.547,65.37 96.521,65.37 96.521,60.224 73.279,60.224 73.279,65.37 
				80.254,65.37 80.254,83.932 			"/>
			<circle cx="87.392" cy="52.543" r="4.259"/>
			<circle cx="90.628" cy="44.498" r="1.863"/>
			<circle cx="98.474" cy="44.788" r="3.327"/>
		</g>
		<g>
			<polygon points="65.702,114.642 104.702,114.642 89.848,84.232 89.848,65.671 96.822,65.671 96.822,60.525 73.58,60.525 
				73.58,65.671 80.555,65.671 80.555,84.232 			"/>
			<circle cx="87.694" cy="52.844" r="4.259"/>
			<circle cx="90.929" cy="44.798" r="1.863"/>
			<circle cx="98.775" cy="45.089" r="3.327"/>
		</g>
		<g>
			<polygon points="66.002,114.942 105.002,114.942 90.149,84.534 90.149,65.972 97.124,65.972 97.124,60.826 73.881,60.826 
				73.881,65.972 80.855,65.972 80.855,84.534 			"/>
			<circle cx="87.995" cy="53.146" r="4.259"/>
			<circle cx="91.23" cy="45.099" r="1.863"/>
			<circle cx="99.076" cy="45.39" r="3.327"/>
		</g>
		<g>
			<polygon points="66.303,115.243 105.304,115.243 90.45,84.835 90.45,66.273 97.424,66.273 97.424,61.127 74.182,61.127 
				74.182,66.273 81.157,66.273 81.157,84.835 			"/>
			<circle cx="88.295" cy="53.447" r="4.259"/>
			<circle cx="91.531" cy="45.401" r="1.863"/>
			<circle cx="99.377" cy="45.691" r="3.327"/>
		</g>
		<g>
			<polygon points="66.604,115.544 105.604,115.544 90.751,85.136 90.751,66.574 97.726,66.574 97.726,61.428 74.483,61.428 
				74.483,66.574 81.458,66.574 81.458,85.136 			"/>
			<circle cx="88.596" cy="53.748" r="4.259"/>
			<circle cx="91.832" cy="45.702" r="1.863"/>
			<circle cx="99.678" cy="45.992" r="3.327"/>
		</g>
		<g>
			<polygon points="66.905,115.845 105.905,115.845 91.052,85.437 91.052,66.875 98.026,66.875 98.026,61.729 74.784,61.729 
				74.784,66.875 81.759,66.875 81.759,85.437 			"/>
			<circle cx="88.898" cy="54.048" r="4.259"/>
			<circle cx="92.133" cy="46.002" r="1.863"/>
			<circle cx="99.979" cy="46.293" r="3.327"/>
		</g>
		<g>
			<polygon points="67.206,116.146 106.206,116.146 91.353,85.738 91.353,67.176 98.327,67.176 98.327,62.03 75.085,62.03 
				75.085,67.176 82.06,67.176 82.06,85.738 			"/>
			<circle cx="89.198" cy="54.349" r="4.258"/>
			<circle cx="92.434" cy="46.303" r="1.863"/>
			<circle cx="100.279" cy="46.594" r="3.327"/>
		</g>
		<g>
			<polygon points="67.508,116.447 106.507,116.447 91.654,86.039 91.654,67.477 98.628,67.477 98.628,62.331 75.386,62.331 
				75.386,67.477 82.361,67.477 82.361,86.039 			"/>
			<circle cx="89.5" cy="54.65" r="4.259"/>
			<circle cx="92.735" cy="46.604" r="1.863"/>
			<circle cx="100.581" cy="46.895" r="3.327"/>
		</g>
		<g>
			<polygon points="67.809,116.749 106.809,116.749 91.955,86.34 91.955,67.778 98.929,67.778 98.929,62.632 75.688,62.632 
				75.688,67.778 82.662,67.778 82.662,86.34 			"/>
			<circle cx="89.801" cy="54.951" r="4.258"/>
			<circle cx="93.036" cy="46.906" r="1.863"/>
			<circle cx="100.882" cy="47.196" r="3.327"/>
		</g>
		<g>
			<polygon points="68.109,117.05 107.109,117.05 92.256,86.641 92.256,68.079 99.23,68.079 99.23,62.933 75.988,62.933 
				75.988,68.079 82.963,68.079 82.963,86.641 			"/>
			<circle cx="90.102" cy="55.252" r="4.259"/>
			<circle cx="93.337" cy="47.207" r="1.863"/>
			<circle cx="101.183" cy="47.497" r="3.327"/>
		</g>
		<g>
			<polygon points="68.41,117.35 107.41,117.35 92.557,86.941 92.557,68.38 99.531,68.38 99.531,63.234 76.289,63.234 76.289,68.38 
				83.264,68.38 83.264,86.941 			"/>
			<circle cx="90.403" cy="55.553" r="4.259"/>
			<circle cx="93.638" cy="47.508" r="1.863"/>
			<circle cx="101.483" cy="47.798" r="3.327"/>
		</g>
		<g>
			<polygon points="68.711,117.651 107.711,117.651 92.858,87.243 92.858,68.681 99.833,68.681 99.833,63.535 76.59,63.535 
				76.59,68.681 83.565,68.681 83.565,87.243 			"/>
			<circle cx="90.704" cy="55.854" r="4.258"/>
			<circle cx="93.939" cy="47.808" r="1.863"/>
			<circle cx="101.785" cy="48.099" r="3.327"/>
		</g>
		<g>
			<polygon points="69.013,117.952 108.013,117.952 93.159,87.544 93.159,68.982 100.133,68.982 100.133,63.836 76.891,63.836 
				76.891,68.982 83.866,68.982 83.866,87.544 			"/>
			<circle cx="91.004" cy="56.156" r="4.259"/>
			<circle cx="94.24" cy="48.11" r="1.863"/>
			<circle cx="102.086" cy="48.4" r="3.327"/>
		</g>
		<g>
			<polygon points="69.313,118.253 108.313,118.253 93.46,87.845 93.46,69.283 100.435,69.283 100.435,64.137 77.192,64.137 
				77.192,69.283 84.167,69.283 84.167,87.845 			"/>
			<circle cx="91.305" cy="56.457" r="4.259"/>
			<circle cx="94.541" cy="48.411" r="1.863"/>
			<circle cx="102.387" cy="48.701" r="3.327"/>
		</g>
		<g>
			<polygon points="69.614,118.555 108.614,118.555 93.761,88.146 93.761,69.584 100.735,69.584 100.735,64.438 77.493,64.438 
				77.493,69.584 84.468,69.584 84.468,88.146 			"/>
			<circle cx="91.607" cy="56.757" r="4.259"/>
			<circle cx="94.842" cy="48.711" r="1.863"/>
			<circle cx="102.688" cy="49.002" r="3.327"/>
		</g>
		<g>
			<polygon points="69.916,118.855 108.915,118.855 94.062,88.446 94.062,69.885 101.037,69.885 101.037,64.739 77.794,64.739 
				77.794,69.885 84.769,69.885 84.769,88.446 			"/>
			<circle cx="91.908" cy="57.058" r="4.259"/>
			<circle cx="95.143" cy="49.012" r="1.863"/>
			<circle cx="102.989" cy="49.303" r="3.327"/>
		</g>
		<g>
			<polygon points="70.216,119.156 109.217,119.156 94.363,88.748 94.363,70.186 101.337,70.186 101.337,65.04 78.096,65.04 
				78.096,70.186 85.07,70.186 85.07,88.748 			"/>
			<circle cx="92.208" cy="57.359" r="4.259"/>
			<circle cx="95.444" cy="49.314" r="1.863"/>
			<circle cx="103.29" cy="49.604" r="3.327"/>
		</g>
		<g>
			<polygon points="70.518,119.458 109.517,119.458 94.664,89.049 94.664,70.487 101.639,70.487 101.639,65.341 78.396,65.341 
				78.396,70.487 85.371,70.487 85.371,89.049 			"/>
			<circle cx="92.51" cy="57.661" r="4.259"/>
			<circle cx="95.745" cy="49.615" r="1.863"/>
			<circle cx="103.591" cy="49.905" r="3.327"/>
		</g>
		<g>
			<polygon points="70.818,119.758 109.818,119.758 94.965,89.35 94.965,70.788 101.939,70.788 101.939,65.642 78.697,65.642 
				78.697,70.788 85.672,70.788 85.672,89.35 			"/>
			<circle cx="92.81" cy="57.961" r="4.259"/>
			<circle cx="96.046" cy="49.916" r="1.863"/>
			<circle cx="103.892" cy="50.206" r="3.327"/>
		</g>
		<g>
			<polygon points="71.119,120.059 110.119,120.059 95.266,89.65 95.266,71.089 102.241,71.089 102.241,65.943 78.998,65.943 
				78.998,71.089 85.973,71.089 85.973,89.65 			"/>
			<circle cx="93.111" cy="58.262" r="4.259"/>
			<circle cx="96.347" cy="50.217" r="1.863"/>
			<circle cx="104.192" cy="50.507" r="3.327"/>
		</g>
		<g>
			<polygon points="71.42,120.36 110.42,120.36 95.566,89.951 95.566,71.39 102.542,71.39 102.542,66.244 79.299,66.244 
				79.299,71.39 86.273,71.39 86.273,89.951 			"/>
			<circle cx="93.413" cy="58.563" r="4.258"/>
			<circle cx="96.648" cy="50.517" r="1.863"/>
			<circle cx="104.493" cy="50.808" r="3.327"/>
		</g>
		<g>
			<polygon points="71.722,120.661 110.721,120.661 95.868,90.252 95.868,71.691 102.842,71.691 102.842,66.545 79.601,66.545 
				79.601,71.691 86.575,71.691 86.575,90.252 			"/>
			<circle cx="93.713" cy="58.865" r="4.259"/>
			<circle cx="96.949" cy="50.818" r="1.863"/>
			<circle cx="104.795" cy="51.109" r="3.327"/>
		</g>
		<g>
			<polygon points="72.022,120.962 111.022,120.962 96.169,90.554 96.169,71.992 103.144,71.992 103.144,66.846 79.901,66.846 
				79.901,71.992 86.876,71.992 86.876,90.554 			"/>
			<circle cx="94.014" cy="59.166" r="4.259"/>
			<circle cx="97.25" cy="51.12" r="1.863"/>
			<circle cx="105.096" cy="51.41" r="3.327"/>
		</g>
		<g>
			<polygon points="72.323,121.264 111.323,121.264 96.47,90.854 96.47,72.293 103.444,72.293 103.444,67.147 80.202,67.147 
				80.202,72.293 87.177,72.293 87.177,90.854 			"/>
			<circle cx="94.315" cy="59.466" r="4.259"/>
			<circle cx="97.551" cy="51.42" r="1.863"/>
			<circle cx="105.396" cy="51.711" r="3.327"/>
		</g>
		<g>
			<polygon points="72.624,121.564 111.625,121.564 96.771,91.155 96.771,72.594 103.746,72.594 103.746,67.448 80.503,67.448 
				80.503,72.594 87.478,72.594 87.478,91.155 			"/>
			<circle cx="94.616" cy="59.767" r="4.259"/>
			<circle cx="97.852" cy="51.721" r="1.863"/>
			<circle cx="105.698" cy="52.012" r="3.327"/>
		</g>
		<g>
			<polygon points="72.925,121.865 111.925,121.865 97.072,91.457 97.072,72.896 104.046,72.896 104.046,67.749 80.805,67.749 
				80.805,72.896 87.779,72.896 87.779,91.457 			"/>
			<circle cx="94.917" cy="60.068" r="4.258"/>
			<circle cx="98.153" cy="52.022" r="1.863"/>
			<circle cx="105.998" cy="52.313" r="3.327"/>
		</g>
		<g>
			<polygon points="73.227,122.166 112.227,122.166 97.373,91.757 97.373,73.196 104.348,73.196 104.348,68.05 81.105,68.05 
				81.105,73.196 88.08,73.196 88.08,91.757 			"/>
			<circle cx="95.219" cy="60.37" r="4.259"/>
			<circle cx="98.454" cy="52.324" r="1.863"/>
			<circle cx="106.3" cy="52.614" r="3.327"/>
		</g>
		<g>
			<polygon points="73.527,122.467 112.527,122.467 97.674,92.059 97.674,73.497 104.648,73.497 104.648,68.351 81.406,68.351 
				81.406,73.497 88.381,73.497 88.381,92.059 			"/>
			<circle cx="95.52" cy="60.67" r="4.259"/>
			<circle cx="98.755" cy="52.625" r="1.863"/>
			<circle cx="106.601" cy="52.915" r="3.327"/>
		</g>
		<g>
			<polygon points="73.829,122.768 112.828,122.768 97.975,92.359 97.975,73.798 104.949,73.798 104.949,68.652 81.707,68.652 
				81.707,73.798 88.682,73.798 88.682,92.359 			"/>
			<circle cx="95.821" cy="60.971" r="4.259"/>
			<circle cx="99.056" cy="52.925" r="1.863"/>
			<circle cx="106.902" cy="53.216" r="3.327"/>
		</g>
		<g>
			<polygon points="74.129,123.069 113.129,123.069 98.276,92.66 98.276,74.099 105.25,74.099 105.25,68.953 82.008,68.953 
				82.008,74.099 88.983,74.099 88.983,92.66 			"/>
			<circle cx="96.122" cy="61.272" r="4.259"/>
			<circle cx="99.357" cy="53.226" r="1.863"/>
			<circle cx="107.203" cy="53.517" r="3.327"/>
		</g>
		<g>
			<polygon points="74.43,123.37 113.43,123.37 98.577,92.961 98.577,74.4 105.552,74.4 105.552,69.254 82.31,69.254 82.31,74.4 
				89.284,74.4 89.284,92.961 			"/>
			<circle cx="96.422" cy="61.573" r="4.259"/>
			<circle cx="99.658" cy="53.528" r="1.863"/>
			<circle cx="107.504" cy="53.818" r="3.327"/>
		</g>
		<g>
			<polygon points="74.731,123.671 113.731,123.671 98.878,93.262 98.878,74.701 105.853,74.701 105.853,69.555 82.61,69.555 
				82.61,74.701 89.585,74.701 89.585,93.262 			"/>
			<circle cx="96.723" cy="61.875" r="4.259"/>
			<circle cx="99.959" cy="53.829" r="1.863"/>
			<circle cx="107.805" cy="54.119" r="3.327"/>
		</g>
		<g>
			<polygon points="75.032,123.973 114.032,123.973 99.179,93.563 99.179,75.002 106.153,75.002 106.153,69.855 82.911,69.855 
				82.911,75.002 89.886,75.002 89.886,93.563 			"/>
			<circle cx="97.024" cy="62.175" r="4.259"/>
			<circle cx="100.26" cy="54.129" r="1.863"/>
			<circle cx="108.105" cy="54.42" r="3.327"/>
		</g>
		<g>
			<polygon points="75.333,124.273 114.333,124.273 99.479,93.865 99.479,75.303 106.454,75.303 106.454,70.157 83.212,70.157 
				83.212,75.303 90.187,75.303 90.187,93.865 			"/>
			<circle cx="97.326" cy="62.476" r="4.258"/>
			<circle cx="100.561" cy="54.43" r="1.863"/>
			<circle cx="108.407" cy="54.721" r="3.327"/>
		</g>
		<g>
			<polygon points="75.634,124.574 114.634,124.574 99.781,94.166 99.781,75.604 106.755,75.604 106.755,70.458 83.513,70.458 
				83.513,75.604 90.488,75.604 90.488,94.166 			"/>
			<circle cx="97.626" cy="62.777" r="4.259"/>
			<circle cx="100.862" cy="54.731" r="1.863"/>
			<circle cx="108.708" cy="55.022" r="3.327"/>
		</g>
		<g>
			<polygon points="75.936,124.875 114.936,124.875 100.082,94.467 100.082,75.905 107.057,75.905 107.057,70.759 83.814,70.759 
				83.814,75.905 90.789,75.905 90.789,94.467 			"/>
			<circle cx="97.927" cy="63.078" r="4.259"/>
			<circle cx="101.163" cy="55.033" r="1.863"/>
			<circle cx="109.009" cy="55.323" r="3.327"/>
		</g>
		<g>
			<polygon points="76.236,125.176 115.236,125.176 100.383,94.768 100.383,76.206 107.357,76.206 107.357,71.06 84.115,71.06 
				84.115,76.206 91.09,76.206 91.09,94.768 			"/>
			<circle cx="98.229" cy="63.379" r="4.259"/>
			<circle cx="101.464" cy="55.333" r="1.863"/>
			<circle cx="109.31" cy="55.624" r="3.327"/>
		</g>
		<g>
			<polygon points="76.537,125.478 115.537,125.478 100.684,95.068 100.684,76.507 107.658,76.507 107.658,71.361 84.416,71.361 
				84.416,76.507 91.391,76.507 91.391,95.068 			"/>
			<circle cx="98.529" cy="63.68" r="4.259"/>
			<circle cx="101.765" cy="55.634" r="1.863"/>
			<circle cx="109.611" cy="55.925" r="3.327"/>
		</g>
		<g>
			<polygon points="76.838,125.778 115.838,125.778 100.984,95.37 100.984,76.808 107.959,76.808 107.959,71.662 84.717,71.662 
				84.717,76.808 91.692,76.808 91.692,95.37 			"/>
			<circle cx="98.831" cy="63.981" r="4.259"/>
			<circle cx="102.066" cy="55.935" r="1.863"/>
			<circle cx="109.911" cy="56.226" r="3.327"/>
		</g>
		<g>
			<polygon points="77.14,126.079 116.14,126.079 101.286,95.671 101.286,77.109 108.261,77.109 108.261,71.963 85.019,71.963 
				85.019,77.109 91.993,77.109 91.993,95.671 			"/>
			<circle cx="99.131" cy="64.282" r="4.258"/>
			<circle cx="102.367" cy="56.237" r="1.863"/>
			<circle cx="110.213" cy="56.527" r="3.327"/>
		</g>
		<g>
			<polygon points="77.44,126.38 116.44,126.38 101.587,95.972 101.587,77.41 108.562,77.41 108.562,72.264 85.319,72.264 
				85.319,77.41 92.294,77.41 92.294,95.972 			"/>
			<circle cx="99.432" cy="64.583" r="4.259"/>
			<circle cx="102.668" cy="56.538" r="1.863"/>
			<circle cx="110.514" cy="56.828" r="3.327"/>
		</g>
		<g>
			<polygon points="77.741,126.681 116.741,126.681 101.888,96.272 101.888,77.711 108.862,77.711 108.862,72.565 85.62,72.565 
				85.62,77.711 92.595,77.711 92.595,96.272 			"/>
			<circle cx="99.733" cy="64.884" r="4.259"/>
			<circle cx="102.969" cy="56.838" r="1.863"/>
			<circle cx="110.814" cy="57.129" r="3.327"/>
		</g>
		<g>
			<polygon points="78.042,126.982 117.042,126.982 102.188,96.573 102.188,78.012 109.163,78.012 109.163,72.866 85.921,72.866 
				85.921,78.012 92.896,78.012 92.896,96.573 			"/>
			<circle cx="100.035" cy="65.185" r="4.259"/>
			<circle cx="103.27" cy="57.139" r="1.863"/>
			<circle cx="111.115" cy="57.43" r="3.327"/>
		</g>
		<g>
			<polygon points="78.343,127.283 117.343,127.283 102.489,96.875 102.489,78.313 109.465,78.313 109.465,73.167 86.222,73.167 
				86.222,78.313 93.196,78.313 93.196,96.875 			"/>
			<circle cx="100.335" cy="65.486" r="4.259"/>
			<circle cx="103.571" cy="57.44" r="1.863"/>
			<circle cx="111.417" cy="57.731" r="3.327"/>
		</g>
		<g>
			<polygon points="78.644,127.584 117.644,127.584 102.791,97.176 102.791,78.614 109.766,78.614 109.766,73.468 86.523,73.468 
				86.523,78.614 93.498,78.614 93.498,97.176 			"/>
			<circle cx="100.636" cy="65.787" r="4.258"/>
			<circle cx="103.872" cy="57.741" r="1.863"/>
			<circle cx="111.718" cy="58.032" r="3.327"/>
		</g>
		<g>
			<polygon points="78.945,127.885 117.945,127.885 103.092,97.477 103.092,78.915 110.066,78.915 110.066,73.769 86.824,73.769 
				86.824,78.915 93.799,78.915 93.799,97.477 			"/>
			<circle cx="100.938" cy="66.088" r="4.259"/>
			<circle cx="104.173" cy="58.042" r="1.863"/>
			<circle cx="112.019" cy="58.333" r="3.327"/>
		</g>
		<g>
			<polygon points="79.246,128.187 118.246,128.187 103.393,97.777 103.393,79.216 110.367,79.216 110.367,74.07 87.125,74.07 
				87.125,79.216 94.1,79.216 94.1,97.777 			"/>
			<circle cx="101.239" cy="66.389" r="4.259"/>
			<circle cx="104.474" cy="58.343" r="1.863"/>
			<circle cx="112.319" cy="58.634" r="3.327"/>
		</g>
		<g>
			<polygon points="79.547,128.487 118.547,128.487 103.694,98.078 103.694,79.517 110.668,79.517 110.668,74.371 87.426,74.371 
				87.426,79.517 94.4,79.517 94.4,98.078 			"/>
			<circle cx="101.54" cy="66.69" r="4.258"/>
			<circle cx="104.775" cy="58.644" r="1.863"/>
			<circle cx="112.621" cy="58.935" r="3.327"/>
		</g>
		<g>
			<polygon points="79.848,128.788 118.848,128.788 103.995,98.379 103.995,79.818 110.969,79.818 110.969,74.672 87.727,74.672 
				87.727,79.818 94.702,79.818 94.702,98.379 			"/>
			<circle cx="101.84" cy="66.991" r="4.259"/>
			<circle cx="105.076" cy="58.945" r="1.863"/>
			<circle cx="112.921" cy="59.236" r="3.327"/>
		</g>
		<g>
			<polygon points="80.149,129.089 119.149,129.089 104.296,98.681 104.296,80.119 111.27,80.119 111.27,74.973 88.028,74.973 
				88.028,80.119 95.003,80.119 95.003,98.681 			"/>
			<circle cx="102.141" cy="67.292" r="4.259"/>
			<circle cx="105.377" cy="59.247" r="1.863"/>
			<circle cx="113.223" cy="59.537" r="3.327"/>
		</g>
		<g>
			<polygon points="80.45,129.39 119.45,129.39 104.597,98.981 104.597,80.42 111.571,80.42 111.571,75.274 88.329,75.274 
				88.329,80.42 95.304,80.42 95.304,98.981 			"/>
			<circle cx="102.442" cy="67.593" r="4.259"/>
			<circle cx="105.678" cy="59.547" r="1.863"/>
			<circle cx="113.523" cy="59.838" r="3.327"/>
		</g>
		<g>
			<polygon points="80.751,129.691 119.751,129.691 104.897,99.282 104.897,80.721 111.872,80.721 111.872,75.575 88.63,75.575 
				88.63,80.721 95.604,80.721 95.604,99.282 			"/>
			<circle cx="102.743" cy="67.894" r="4.259"/>
			<circle cx="105.979" cy="59.848" r="1.863"/>
			<circle cx="113.824" cy="60.139" r="3.327"/>
		</g>
		<g>
			<polygon points="81.052,129.992 120.052,129.992 105.199,99.583 105.199,81.022 112.173,81.022 112.173,75.876 88.931,75.876 
				88.931,81.022 95.906,81.022 95.906,99.583 			"/>
			<circle cx="103.044" cy="68.195" r="4.259"/>
			<circle cx="106.28" cy="60.149" r="1.863"/>
			<circle cx="114.125" cy="60.44" r="3.327"/>
		</g>
		<g>
			<polygon points="81.354,130.293 120.354,130.293 105.5,99.884 105.5,81.323 112.474,81.323 112.474,76.177 89.232,76.177 
				89.232,81.323 96.207,81.323 96.207,99.884 			"/>
			<circle cx="103.345" cy="68.497" r="4.259"/>
			<circle cx="106.581" cy="60.451" r="1.863"/>
			<circle cx="114.427" cy="60.741" r="3.327"/>
		</g>
		<g>
			<polygon points="81.654,130.594 120.654,130.594 105.801,100.186 105.801,81.624 112.775,81.624 112.775,76.478 89.533,76.478 
				89.533,81.624 96.508,81.624 96.508,100.186 			"/>
			<circle cx="103.646" cy="68.797" r="4.259"/>
			<circle cx="106.882" cy="60.751" r="1.863"/>
			<circle cx="114.728" cy="61.042" r="3.327"/>
		</g>
		<g>
			<polygon points="81.955,130.896 120.955,130.896 106.102,100.486 106.102,81.925 113.076,81.925 113.076,76.779 89.834,76.779 
				89.834,81.925 96.809,81.925 96.809,100.486 			"/>
			<circle cx="103.947" cy="69.098" r="4.259"/>
			<circle cx="107.183" cy="61.052" r="1.863"/>
			<circle cx="115.028" cy="61.343" r="3.327"/>
		</g>
		<g>
			<polygon points="82.256,131.196 121.256,131.196 106.402,100.787 106.402,82.226 113.377,82.226 113.377,77.08 90.135,77.08 
				90.135,82.226 97.11,82.226 97.11,100.787 			"/>
			<circle cx="104.248" cy="69.399" r="4.259"/>
			<circle cx="107.484" cy="61.353" r="1.863"/>
			<circle cx="115.329" cy="61.644" r="3.327"/>
		</g>
		<g>
			<polygon points="82.557,131.497 121.557,131.497 106.704,101.088 106.704,82.527 113.678,82.527 113.678,77.381 90.436,77.381 
				90.436,82.527 97.411,82.527 97.411,101.088 			"/>
			<circle cx="104.549" cy="69.7" r="4.259"/>
			<circle cx="107.785" cy="61.655" r="1.863"/>
			<circle cx="115.63" cy="61.945" r="3.327"/>
		</g>
		<g>
			<polygon points="82.858,131.798 121.858,131.798 107.004,101.389 107.004,82.828 113.979,82.828 113.979,77.682 90.737,77.682 
				90.737,82.828 97.712,82.828 97.712,101.389 			"/>
			<circle cx="104.85" cy="70.001" r="4.259"/>
			<circle cx="108.086" cy="61.955" r="1.863"/>
			<circle cx="115.932" cy="62.246" r="3.327"/>
		</g>
		<g>
			<polygon points="83.159,132.099 122.159,132.099 107.306,101.69 107.306,83.129 114.28,83.129 114.28,77.982 91.038,77.982 
				91.038,83.129 98.013,83.129 98.013,101.69 			"/>
			<circle cx="105.152" cy="70.302" r="4.259"/>
			<circle cx="108.387" cy="62.256" r="1.863"/>
			<circle cx="116.232" cy="62.547" r="3.327"/>
		</g>
		<g>
			<polygon points="83.46,132.4 122.46,132.4 107.606,101.992 107.606,83.43 114.581,83.43 114.581,78.284 91.339,78.284 
				91.339,83.43 98.314,83.43 98.314,101.992 			"/>
			<circle cx="105.453" cy="70.604" r="4.259"/>
			<circle cx="108.688" cy="62.557" r="1.863"/>
			<circle cx="116.533" cy="62.848" r="3.327"/>
		</g>
		<g>
			<polygon points="83.761,132.701 122.761,132.701 107.907,102.292 107.907,83.73 114.882,83.73 114.882,78.585 91.64,78.585 
				91.64,83.73 98.614,83.73 98.614,102.292 			"/>
			<circle cx="105.753" cy="70.904" r="4.258"/>
			<circle cx="108.989" cy="62.858" r="1.863"/>
			<circle cx="116.834" cy="63.149" r="3.327"/>
		</g>
		<g>
			<polygon points="84.062,133.002 123.062,133.002 108.209,102.594 108.209,84.032 115.183,84.032 115.183,78.886 91.941,78.886 
				91.941,84.032 98.916,84.032 98.916,102.594 			"/>
			<circle cx="106.054" cy="71.205" r="4.259"/>
			<circle cx="109.29" cy="63.159" r="1.863"/>
			<circle cx="117.135" cy="63.45" r="3.327"/>
		</g>
		<g>
			<polygon points="84.363,133.303 123.363,133.303 108.51,102.895 108.51,84.333 115.484,84.333 115.484,79.187 92.242,79.187 
				92.242,84.333 99.217,84.333 99.217,102.895 			"/>
			<circle cx="106.355" cy="71.506" r="4.258"/>
			<circle cx="109.591" cy="63.46" r="1.863"/>
			<circle cx="117.437" cy="63.751" r="3.327"/>
		</g>
		<g>
			<polygon points="84.664,133.604 123.664,133.604 108.811,103.195 108.811,84.634 115.785,84.634 115.785,79.488 92.543,79.488 
				92.543,84.634 99.518,84.634 99.518,103.195 			"/>
			<circle cx="106.656" cy="71.807" r="4.259"/>
			<circle cx="109.892" cy="63.761" r="1.863"/>
			<circle cx="117.737" cy="64.052" r="3.327"/>
		</g>
		<g>
			<polygon points="84.965,133.905 123.965,133.905 109.111,103.497 109.111,84.935 116.086,84.935 116.086,79.789 92.844,79.789 
				92.844,84.935 99.818,84.935 99.818,103.497 			"/>
			<circle cx="106.958" cy="72.108" r="4.259"/>
			<circle cx="110.193" cy="64.062" r="1.863"/>
			<circle cx="118.038" cy="64.353" r="3.327"/>
		</g>
		<g>
			<polygon points="85.267,134.206 124.267,134.206 109.412,103.797 109.412,85.236 116.387,85.236 116.387,80.09 93.145,80.09 
				93.145,85.236 100.12,85.236 100.12,103.797 			"/>
			<circle cx="107.258" cy="72.409" r="4.259"/>
			<circle cx="110.494" cy="64.363" r="1.863"/>
			<circle cx="118.34" cy="64.654" r="3.327"/>
		</g>
		<g>
			<polygon points="85.567,134.507 124.567,134.507 109.714,104.099 109.714,85.537 116.688,85.537 116.688,80.391 93.446,80.391 
				93.446,85.537 100.421,85.537 100.421,104.099 			"/>
			<circle cx="107.559" cy="72.71" r="4.259"/>
			<circle cx="110.795" cy="64.665" r="1.863"/>
			<circle cx="118.64" cy="64.955" r="3.327"/>
		</g>
		<g>
			<polygon points="85.868,134.808 124.868,134.808 110.015,104.399 110.015,85.838 116.989,85.838 116.989,80.692 93.747,80.692 
				93.747,85.838 100.722,85.838 100.722,104.399 			"/>
			<circle cx="107.86" cy="73.011" r="4.259"/>
			<circle cx="111.096" cy="64.965" r="1.863"/>
			<circle cx="118.941" cy="65.256" r="3.327"/>
		</g>
		<g>
			<polygon points="86.169,135.109 125.169,135.109 110.316,104.7 110.316,86.139 117.291,86.139 117.291,80.993 94.048,80.993 
				94.048,86.139 101.022,86.139 101.022,104.7 			"/>
			<circle cx="108.161" cy="73.312" r="4.259"/>
			<circle cx="111.397" cy="65.266" r="1.863"/>
			<circle cx="119.242" cy="65.557" r="3.327"/>
		</g>
		<g>
			<polygon points="86.47,135.41 125.471,135.41 110.617,105.001 110.617,86.44 117.591,86.44 117.591,81.294 94.349,81.294 
				94.349,86.44 101.324,86.44 101.324,105.001 			"/>
			<circle cx="108.462" cy="73.613" r="4.259"/>
			<circle cx="111.698" cy="65.567" r="1.863"/>
			<circle cx="119.543" cy="65.858" r="3.327"/>
		</g>
		<g>
			<polygon points="86.771,135.711 125.771,135.711 110.917,105.302 110.917,86.741 117.893,86.741 117.893,81.595 94.65,81.595 
				94.65,86.741 101.625,86.741 101.625,105.302 			"/>
			<circle cx="108.763" cy="73.914" r="4.259"/>
			<circle cx="111.999" cy="65.869" r="1.863"/>
			<circle cx="119.844" cy="66.159" r="3.327"/>
		</g>
		<g>
			<polygon points="87.072,136.012 126.072,136.012 111.219,105.604 111.219,87.042 118.193,87.042 118.193,81.896 94.951,81.896 
				94.951,87.042 101.926,87.042 101.926,105.604 			"/>
			<circle cx="109.064" cy="74.215" r="4.259"/>
			<circle cx="112.3" cy="66.169" r="1.863"/>
			<circle cx="120.145" cy="66.46" r="3.327"/>
		</g>
		<g>
			<polygon points="87.373,136.313 126.373,136.313 111.52,105.904 111.52,87.343 118.494,87.343 118.494,82.197 95.252,82.197 
				95.252,87.343 102.227,87.343 102.227,105.904 			"/>
			<circle cx="109.365" cy="74.516" r="4.259"/>
			<circle cx="112.601" cy="66.47" r="1.863"/>
			<circle cx="120.446" cy="66.761" r="3.327"/>
		</g>
		<g>
			<polygon points="87.674,136.614 126.674,136.614 111.821,106.205 111.821,87.644 118.795,87.644 118.795,82.498 95.553,82.498 
				95.553,87.644 102.528,87.644 102.528,106.205 			"/>
			<circle cx="109.666" cy="74.817" r="4.259"/>
			<circle cx="112.901" cy="66.771" r="1.863"/>
			<circle cx="120.747" cy="67.062" r="3.327"/>
		</g>
		<g>
			<polygon points="87.975,136.915 126.975,136.915 112.122,106.506 112.122,87.945 119.096,87.945 119.096,82.799 95.854,82.799 
				95.854,87.945 102.829,87.945 102.829,106.506 			"/>
			<circle cx="109.967" cy="75.118" r="4.259"/>
			<circle cx="113.203" cy="67.072" r="1.863"/>
			<circle cx="121.048" cy="67.363" r="3.327"/>
		</g>
		<g>
			<polygon points="88.276,137.216 127.276,137.216 112.422,106.807 112.422,88.246 119.397,88.246 119.397,83.1 96.155,83.1 
				96.155,88.246 103.13,88.246 103.13,106.807 			"/>
			<circle cx="110.268" cy="75.419" r="4.259"/>
			<circle cx="113.504" cy="67.373" r="1.863"/>
			<circle cx="121.35" cy="67.664" r="3.327"/>
		</g>
		<g>
			<polygon points="88.577,137.517 127.577,137.517 112.724,107.108 112.724,88.547 119.698,88.547 119.698,83.401 96.456,83.401 
				96.456,88.547 103.431,88.547 103.431,107.108 			"/>
			<circle cx="110.569" cy="75.72" r="4.259"/>
			<circle cx="113.805" cy="67.674" r="1.863"/>
			<circle cx="121.65" cy="67.965" r="3.327"/>
		</g>
		<g>
			<polygon points="88.878,137.818 127.878,137.818 113.024,107.409 113.024,88.848 119.999,88.848 119.999,83.702 96.757,83.702 
				96.757,88.848 103.731,88.848 103.731,107.409 			"/>
			<circle cx="110.871" cy="76.021" r="4.259"/>
			<circle cx="114.106" cy="67.975" r="1.863"/>
			<circle cx="121.951" cy="68.266" r="3.327"/>
		</g>
		<g>
			<polygon points="89.179,138.119 128.179,138.119 113.326,107.71 113.326,89.149 120.3,89.149 120.3,84.003 97.058,84.003 
				97.058,89.149 104.033,89.149 104.033,107.71 			"/>
			<circle cx="111.171" cy="76.322" r="4.259"/>
			<circle cx="114.407" cy="68.276" r="1.863"/>
			<circle cx="122.253" cy="68.567" r="3.327"/>
		</g>
		<g>
			<polygon points="89.48,138.42 128.48,138.42 113.626,108.011 113.626,89.45 120.602,89.45 120.602,84.304 97.359,84.304 
				97.359,89.45 104.333,89.45 104.333,108.011 			"/>
			<circle cx="111.472" cy="76.623" r="4.259"/>
			<circle cx="114.708" cy="68.577" r="1.863"/>
			<circle cx="122.554" cy="68.868" r="3.327"/>
		</g>
		<g>
			<polygon points="89.781,138.721 128.781,138.721 113.927,108.312 113.927,89.751 120.902,89.751 120.902,84.605 97.66,84.605 
				97.66,89.751 104.634,89.751 104.634,108.312 			"/>
			<circle cx="111.773" cy="76.924" r="4.259"/>
			<circle cx="115.009" cy="68.878" r="1.863"/>
			<circle cx="122.854" cy="69.169" r="3.327"/>
		</g>
		<g>
			<polygon points="90.082,139.022 129.082,139.022 114.229,108.613 114.229,90.052 121.203,90.052 121.203,84.906 97.961,84.906 
				97.961,90.052 104.936,90.052 104.936,108.613 			"/>
			<circle cx="112.074" cy="77.225" r="4.259"/>
			<circle cx="115.31" cy="69.179" r="1.863"/>
			<circle cx="123.155" cy="69.47" r="3.327"/>
		</g>
		<g>
			<polygon points="90.383,139.323 129.383,139.323 114.529,108.914 114.529,90.353 121.504,90.353 121.504,85.207 98.262,85.207 
				98.262,90.353 105.237,90.353 105.237,108.914 			"/>
			<circle cx="112.375" cy="77.526" r="4.259"/>
			<circle cx="115.611" cy="69.48" r="1.863"/>
			<circle cx="123.456" cy="69.771" r="3.327"/>
		</g>
		<g>
			<polygon points="90.684,139.624 129.684,139.624 114.831,109.215 114.831,90.653 121.806,90.653 121.806,85.508 98.563,85.508 
				98.563,90.653 105.538,90.653 105.538,109.215 			"/>
			<circle cx="112.676" cy="77.827" r="4.259"/>
			<circle cx="115.912" cy="69.781" r="1.863"/>
			<circle cx="123.757" cy="70.072" r="3.327"/>
		</g>
		<g>
			<polygon points="90.985,139.925 129.985,139.925 115.131,109.516 115.131,90.955 122.106,90.955 122.106,85.809 98.864,85.809 
				98.864,90.955 105.838,90.955 105.838,109.516 			"/>
			<circle cx="112.977" cy="78.128" r="4.259"/>
			<circle cx="116.212" cy="70.082" r="1.863"/>
			<circle cx="124.059" cy="70.373" r="3.327"/>
		</g>
		<g>
			<polygon points="91.286,140.226 130.286,140.226 115.432,109.817 115.432,91.256 122.407,91.256 122.407,86.109 99.165,86.109 
				99.165,91.256 106.14,91.256 106.14,109.817 			"/>
			<circle cx="113.278" cy="78.429" r="4.259"/>
			<circle cx="116.514" cy="70.383" r="1.863"/>
			<circle cx="124.359" cy="70.674" r="3.327"/>
		</g>
		<g>
			<polygon points="91.587,140.527 130.587,140.527 115.733,110.119 115.733,91.557 122.708,91.557 122.708,86.411 99.466,86.411 
				99.466,91.557 106.44,91.557 106.44,110.119 			"/>
			<circle cx="113.579" cy="78.73" r="4.259"/>
			<circle cx="116.814" cy="70.684" r="1.863"/>
			<circle cx="124.66" cy="70.975" r="3.327"/>
		</g>
		<g>
			<polygon points="91.888,140.828 130.888,140.828 116.034,110.419 116.034,91.858 123.009,91.858 123.009,86.711 99.767,86.711 
				99.767,91.858 106.741,91.858 106.741,110.419 			"/>
			<circle cx="113.88" cy="79.031" r="4.259"/>
			<circle cx="117.115" cy="70.985" r="1.863"/>
			<circle cx="124.961" cy="71.276" r="3.327"/>
		</g>
		<g>
			<polygon points="92.189,141.129 131.189,141.129 116.336,110.721 116.336,92.159 123.311,92.159 123.311,87.013 100.068,87.013 
				100.068,92.159 107.042,92.159 107.042,110.721 			"/>
			<circle cx="114.181" cy="79.333" r="4.259"/>
			<circle cx="117.417" cy="71.286" r="1.863"/>
			<circle cx="125.262" cy="71.577" r="3.327"/>
		</g>
		<g>
			<polygon points="92.49,141.43 131.49,141.43 116.637,111.021 116.637,92.46 123.611,92.46 123.611,87.313 100.369,87.313 
				100.369,92.46 107.344,92.46 107.344,111.021 			"/>
			<circle cx="114.482" cy="79.633" r="4.259"/>
			<circle cx="117.718" cy="71.587" r="1.863"/>
			<circle cx="125.563" cy="71.878" r="3.327"/>
		</g>
		<g>
			<polygon points="92.791,141.731 131.791,141.731 116.938,111.322 116.938,92.761 123.912,92.761 123.912,87.615 100.67,87.615 
				100.67,92.761 107.645,92.761 107.645,111.322 			"/>
			<circle cx="114.783" cy="79.934" r="4.259"/>
			<circle cx="118.019" cy="71.888" r="1.863"/>
			<circle cx="125.864" cy="72.179" r="3.327"/>
		</g>
		<g>
			<polygon points="93.092,142.032 132.092,142.032 117.239,111.624 117.239,93.062 124.213,93.062 124.213,87.916 100.971,87.916 
				100.971,93.062 107.945,93.062 107.945,111.624 			"/>
			<circle cx="115.084" cy="80.235" r="4.259"/>
			<circle cx="118.32" cy="72.189" r="1.863"/>
			<circle cx="126.165" cy="72.48" r="3.327"/>
		</g>
		<g>
			<polygon points="93.393,142.333 132.394,142.333 117.54,111.924 117.54,93.363 124.515,93.363 124.515,88.217 101.271,88.217 
				101.271,93.363 108.247,93.363 108.247,111.924 			"/>
			<circle cx="115.385" cy="80.536" r="4.259"/>
			<circle cx="118.621" cy="72.49" r="1.863"/>
			<circle cx="126.466" cy="72.781" r="3.327"/>
		</g>
		<g>
			<polygon points="93.694,142.634 132.694,142.634 117.841,112.226 117.841,93.664 124.815,93.664 124.815,88.518 101.573,88.518 
				101.573,93.664 108.548,93.664 108.548,112.226 			"/>
			<circle cx="115.686" cy="80.837" r="4.259"/>
			<circle cx="118.922" cy="72.791" r="1.863"/>
			<circle cx="126.768" cy="73.082" r="3.327"/>
		</g>
		<g>
			<polygon points="93.995,142.935 132.995,142.935 118.142,112.526 118.142,93.964 125.116,93.964 125.116,88.819 101.874,88.819 
				101.874,93.964 108.848,93.964 108.848,112.526 			"/>
			<circle cx="115.987" cy="81.138" r="4.259"/>
			<circle cx="119.222" cy="73.092" r="1.863"/>
			<circle cx="127.068" cy="73.383" r="3.327"/>
		</g>
		<g>
			<polygon points="94.296,143.236 133.296,143.236 118.442,112.827 118.442,94.266 125.417,94.266 125.417,89.12 102.175,89.12 
				102.175,94.266 109.149,94.266 109.149,112.827 			"/>
			<circle cx="116.288" cy="81.439" r="4.259"/>
			<circle cx="119.523" cy="73.393" r="1.863"/>
			<circle cx="127.369" cy="73.684" r="3.327"/>
		</g>
		<g>
			<polygon points="94.597,143.537 133.597,143.537 118.744,113.128 118.744,94.566 125.719,94.566 125.719,89.421 102.476,89.421 
				102.476,94.566 109.451,94.566 109.451,113.128 			"/>
			<circle cx="116.589" cy="81.74" r="4.259"/>
			<circle cx="119.824" cy="73.694" r="1.863"/>
			<circle cx="127.67" cy="73.985" r="3.327"/>
		</g>
		<g>
			<polygon points="94.898,143.838 133.898,143.838 119.044,113.429 119.044,94.868 126.02,94.868 126.02,89.722 102.777,89.722 
				102.777,94.868 109.752,94.868 109.752,113.429 			"/>
			<circle cx="116.89" cy="82.041" r="4.259"/>
			<circle cx="120.126" cy="73.995" r="1.863"/>
			<circle cx="127.972" cy="74.286" r="3.327"/>
		</g>
		<g>
			<polygon points="95.199,144.139 134.199,144.139 119.346,113.73 119.346,95.168 126.32,95.168 126.32,90.023 103.078,90.023 
				103.078,95.168 110.052,95.168 110.052,113.73 			"/>
			<circle cx="117.191" cy="82.342" r="4.259"/>
			<circle cx="120.427" cy="74.296" r="1.863"/>
			<circle cx="128.272" cy="74.587" r="3.327"/>
		</g>
		<g>
			<polygon points="95.5,144.44 134.5,144.44 119.646,114.031 119.646,95.47 126.621,95.47 126.621,90.324 103.379,90.324 
				103.379,95.47 110.354,95.47 110.354,114.031 			"/>
			<circle cx="117.492" cy="82.643" r="4.259"/>
			<circle cx="120.728" cy="74.597" r="1.863"/>
			<circle cx="128.573" cy="74.888" r="3.327"/>
		</g>
	</g>
</g>
<g>
	<rect x="42.879" y="29.824" fill="#FFFFFF" width="23.242" height="5.146"/>
	<rect x="49.854" y="31.421" fill="#FFFFFF" width="9.293" height="22.888"/>
	<polygon fill="#FFFFFF" points="35,83.94 54.5,44.019 74,83.94 	"/>
	<path fill="#F4C83C" d="M54.766,67.35c-2.164-1.731-5.009-2.077-7.625-1.876l-7.98,16.337H69.84l-7.166-14.669
		C59.948,68.491,56.987,69.126,54.766,67.35z"/>
	<circle fill="#FFFFFF" cx="56.992" cy="22.143" r="4.259"/>
	<circle fill="#FFFFFF" cx="60.228" cy="14.097" r="1.863"/>
	<circle fill="#FFFFFF" cx="68.073" cy="14.388" r="3.327"/>
</g>
</svg>
